<svg id="Layer_1" data-name="Layer 1" xmlns="http://www.w3.org/2000/svg" viewBox="0 0 434.04 244.15"><title>client logos</title><path d="M268.06,79.11h89.58v84.54H268.93c-.11,0-.22,0-.33,0l-.57,0v-.82q0-10.1,0-20.2,0-31.25,0-62.47C268,79.77,268.05,79.44,268.06,79.11Zm71.84,56.23c-.33.2-.56.32-.78.46A51.56,51.56,0,0,1,328,141.05a33.83,33.83,0,0,1-9.66,1.82c-1.32,0-2.64-.06-4-.15a29,29,0,0,1-7.69-1.61A19.82,19.82,0,0,1,294.53,130a21.14,21.14,0,0,1-1.78-7.83,22.77,22.77,0,0,1,1-7.18,19.22,19.22,0,0,1,7.46-10.55,26.54,26.54,0,0,1,13.95-4.63,30,30,0,0,1,7.45.59,53.31,53.31,0,0,1,16.15,5.89l.56.27V95.41l-.49-.23a79.81,79.81,0,0,0-8.82-3,43.9,43.9,0,0,0-7.44-1.55c-1.62-.16-3.25-.24-4.89-.28a47.16,47.16,0,0,0-8.31.52,36.43,36.43,0,0,0-9.64,3A30,30,0,0,0,284.81,108a31,31,0,0,0-3.26,12.26A26.93,26.93,0,0,0,282,126a30,30,0,0,0,8,16.39,28.91,28.91,0,0,0,9.78,6.92,44.08,44.08,0,0,0,16,3.35,48.1,48.1,0,0,0,11.9-1.19,49,49,0,0,0,11.56-4.11,1.06,1.06,0,0,0,.69-1.11c0-3.35,0-6.71,0-10.06Z"/><path d="M61.35,79.11h89.58c0,.28,0,.57,0,.86v82.68c0,.17,0,.35,0,.53s0,.28-.07.42c-1.37.13-89,.07-89.6-.08V96.84q0-8.41,0-16.83A6.88,6.88,0,0,1,61.35,79.11ZM84.86,91v60.7h23.36a31.14,31.14,0,0,0,4.42-.28,26.87,26.87,0,0,0,8.49-2.63,15.4,15.4,0,0,0,6.46-6,15.61,15.61,0,0,0,2-7.93,14.76,14.76,0,0,0-4.94-11.23,18.32,18.32,0,0,0-7.53-4l-.59-.19c0-.07,0-.09.06-.1l.46-.27a13.77,13.77,0,0,0,6-6.56,14,14,0,0,0,.94-7.2,14.24,14.24,0,0,0-5.54-10,21.34,21.34,0,0,0-12.91-4.3c-6.66-.16-13.34,0-20,0Z"/><path d="M164.71,79.11h89.57v83.73c0,.25,0,.51,0,.75H164.64V80A8.12,8.12,0,0,1,164.71,79.11Zm23.52,72.63h.8c7.53,0,15.06,0,22.59,0a30.7,30.7,0,0,0,5.34-.43,25,25,0,0,0,8.44-3,14.8,14.8,0,0,0,6.13-6.59,16.16,16.16,0,0,0,1.46-6.61,14.79,14.79,0,0,0-3.76-10.25,17,17,0,0,0-7.48-4.83c-.61-.21-1.22-.38-1.91-.6l.62-.36a13.68,13.68,0,0,0,6.07-6.69,14.06,14.06,0,0,0,.86-7.29,14.26,14.26,0,0,0-5.48-9.72c-3.72-2.91-8.1-4-12.7-4.36H188.74a4.4,4.4,0,0,0-.51,0Z"/><path d="M95.68,142.36V125.81c.22,0,.41,0,.6,0h10.54a18.09,18.09,0,0,1,6.19.91,8.16,8.16,0,0,1,4.73,4,7.67,7.67,0,0,1-3,9.91,12.57,12.57,0,0,1-4.75,1.57,29,29,0,0,1-3.36.18c-3.36,0-6.72,0-10.07,0Z"/><path d="M95.67,116.2V100.52c.22,0,.41,0,.6,0,2.56,0,5.12,0,7.68,0a12.19,12.19,0,0,1,4.83,1c5.62,2.46,5.14,9.28,1.72,12.12a11.27,11.27,0,0,1-4.61,2.21,14.53,14.53,0,0,1-3.6.42c-1.94,0-3.89,0-5.83,0Z"/><path d="M199.05,142.36V125.81c.22,0,.42,0,.61,0h10.52a19.79,19.79,0,0,1,5.37.64,9.82,9.82,0,0,1,3.74,1.93,7.62,7.62,0,0,1-1.18,12.25,12.87,12.87,0,0,1-4.81,1.58,29,29,0,0,1-3.36.18c-3.36,0-6.71,0-10.06,0Z"/><path d="M199,116.2V100.52c.21,0,.4,0,.59,0,2.56,0,5.12,0,7.68,0a11.9,11.9,0,0,1,4.95,1,6.52,6.52,0,0,1,4.07,5.26,7.3,7.3,0,0,1-3.24,7.4,12.18,12.18,0,0,1-5.31,1.9,19.78,19.78,0,0,1-2.18.13H199Z"/></svg>