<svg id="Layer_1" data-name="Layer 1" xmlns="http://www.w3.org/2000/svg" viewBox="0 0 434.04 244.15"><defs><style>.cls-1{fill:#eb5920;}</style></defs><title>client logos</title><path d="M357.82,164.44,346,164.5H334.29c-4.19,0-6.21-1.67-6.45-5.8-.26-4.35-.19-8.71-.22-13.07,0-1.76.09-3.51.16-5.27.21-4.71,2.85-6,6.84-6.09,3.55-.09,7.11,0,10.67,0l12.53.05v5.5c-2.46,0-4.91,0-7.37,0-4.84,0-9.67,0-14.51.08-1.46,0-2,.57-2,2-.05,1,0,2,0,3,0,1.87,0,1.89,1.91,1.89,6.67,0,13.34,0,20,0,.83,0,1.22.22,1.16,1.11s0,1.83,0,2.75c0,1.43-.16,1.58-1.58,1.58H343.17c-2.67,0-5.35,0-8,0-.88,0-1.29.34-1.27,1.24s0,1.83,0,2.75c0,2.36.48,2.82,2.83,2.81l18.81,0c.76,0,1.53.14,2.29.21Z"/><path d="M76.22,134.3c1.35,0,2.71,0,4.06-.06,1.06,0,1.45.43,1.44,1.44,0,3.19,0,6.38,0,9.57,0,1.5,0,1.5,1.43,1.51h16.94c1.48,0,1.59-.1,1.59-1.54,0-3.12,0-6.24,0-9.35,0-1.46.14-1.59,1.56-1.61,1.06,0,2.13,0,3.19,0s1.35.33,1.33,1.34c0,4.11,0,8.22,0,12.32,0,5,0,10,0,15,0,1.52-.11,1.62-1.62,1.64-1,0-2.06,0-3.08,0s-1.38-.4-1.37-1.38c0-3.15,0-6.31,0-9.46,0-1.41-.06-1.48-1.51-1.48-5.72,0-11.44,0-17.16,0-1,0-1.33.33-1.31,1.33,0,3.12,0,6.24,0,9.35,0,1.5-.16,1.64-1.65,1.64-1.28,0-2.56,0-3.84-.05Z"/><path class="cls-1" d="M334,54.23H331.4c-3.29.07-6.59.06-9.87.25a134.61,134.61,0,0,0-21.31,3.07,153.35,153.35,0,0,0-36.31,13.1A158,158,0,0,0,234.8,89.9c-1.58,1.31-1.57,1.29-.06,2.61q4.56,4,9.1,8.12a5.05,5.05,0,0,1,.65,1,4.72,4.72,0,0,1-1.09.61,103,103,0,0,1-16.57,2.73,94.06,94.06,0,0,1-19.85-.3c-4.43-.54-8.81-1.52-13.2-2.36-1.57-.3-1.68-.7-.52-1.76,3.12-2.84,6.27-5.63,9.42-8.43.84-.74.87-1,0-1.7A159,159,0,0,0,177.45,73a153.71,153.71,0,0,0-40.14-15.32,138.38,138.38,0,0,0-22.72-3.27c-3.32-.2-6.65-.15-10-.21-.5,0-1,0-1.5,0l0-.37c1.45-.17,2.9-.47,4.36-.5,7.58-.12,15.17-.37,22.75-.19a166.26,166.26,0,0,1,30.6,3.94A180.22,180.22,0,0,1,187.44,65a159.87,159.87,0,0,1,29.74,14.88,2,2,0,0,0,2.47,0,164.21,164.21,0,0,1,30.47-15.15,186.92,186.92,0,0,1,25.6-7.55,154.21,154.21,0,0,1,25.87-3.72c8.37-.39,16.78-.17,25.17-.15,2.4,0,4.8.3,7.2.45ZM218.5,104.54c.43-.37.82-.67,1.17-1,4-3.82,7.87-7.66,11.85-11.44.72-.68.69-1.07-.06-1.61q-6-4.32-12-8.65a1.52,1.52,0,0,0-2,0c-4,2.9-8,5.81-12,8.69-.77.55-.68,1,0,1.53,1.62,1.43,3.25,2.85,4.8,4.35,2.5,2.42,4.93,4.92,7.39,7.37A12.06,12.06,0,0,0,218.5,104.54Z"/><path d="M172.53,140.7c-.16.43-.35.85-.47,1.28l-5.22,19a4.51,4.51,0,0,1-4.58,3.54h-2.53c-2.54,0-3.88-.94-4.67-3.36-.88-2.69-1.67-5.4-2.49-8.1q-2.56-8.47-5.13-16.94c-.52-1.73-.45-1.84,1.32-1.85,1.06,0,2.13,0,3.19,0a1.54,1.54,0,0,1,1.75,1.27c1.73,5.83,3.51,11.65,5.28,17.47.48,1.58.94,3.16,1.44,4.73A11.3,11.3,0,0,0,161,159a11.83,11.83,0,0,0,.66-1.41c1.28-4.59,2.54-9.19,3.81-13.78.51-1.83,1-3.66,1.54-5.5a4.29,4.29,0,0,1,3.64-3.39,13.69,13.69,0,0,1,4.56.14,4.14,4.14,0,0,1,3.13,3.22q2.6,9.44,5.23,18.86c.15.54.38,1.06.58,1.59l.36,0a11.56,11.56,0,0,0,.55-1.19q3.19-10.63,6.36-21.28c.61-2,.6-2,2.71-2,1,0,2,0,3,0,1.25,0,1.35.19,1,1.36q-3,9.9-6,19.79c-.56,1.86-1.09,3.73-1.67,5.58a4.44,4.44,0,0,1-4.81,3.51h-2.42a4.28,4.28,0,0,1-4.57-3.35c-.71-2.31-1.3-4.66-1.95-7q-1.71-6.25-3.45-12.51a7.22,7.22,0,0,0-.4-1Z"/><path d="M272,164.5c-3.77,0-7.55.09-11.32-.05a9.4,9.4,0,0,1-4-1,4.92,4.92,0,0,1-2.36-4.58c0-6.24-.07-12.47,0-18.7,0-3.75,2.17-5.78,6.38-5.84,7.7-.12,15.4,0,23.1-.05.87,0,1.27.36,1.24,1.25s0,2.06,0,3.08c0,.87-.39,1.19-1.19,1.2h-2c-6.37,0-12.75,0-19.13.08-1.81,0-2.31.61-2.36,2.44,0,.91,0,1.83,0,2.75,0,1.6.1,1.69,1.67,1.7h19.47c1.94,0,1.94,0,1.95,1.92,0,.7,0,1.39,0,2.09,0,1-.38,1.44-1.43,1.43-3.34,0-6.67,0-10,0s-6.82,0-10.23,0c-1,0-1.48.37-1.43,1.41s0,1.91,0,2.86c.05,1.93.61,2.48,2.54,2.49h18.92c.77,0,1.53.07,2.3.07s.91.32.9.95c0,1.07-.05,2.13,0,3.19s-.31,1.37-1.32,1.35c-3.41,0-6.82,0-10.23,0Z"/><path d="M134.08,134.73a6.91,6.91,0,0,1,2.79,3.29q5.35,11.5,10.77,23c.38.83.76,1.66,1.15,2.49.29.62.16,1-.59,1-1.69,0-3.38.05-5.06,0a1.72,1.72,0,0,1-1.1-.86c-.66-1.22-1.23-2.5-1.8-3.77a1.69,1.69,0,0,0-1.72-1.08q-8.25,0-16.49,0a1.65,1.65,0,0,0-1.7,1.1c-.48,1.11-1,2.18-1.51,3.3a1.91,1.91,0,0,1-2.1,1.36c-1-.08-2.12,0-3.18,0-2.05,0-2.12-.12-1.23-2q2.09-4.47,4.2-8.95c2.44-5.21,5-10.38,7.3-15.63a5.55,5.55,0,0,1,5.59-3.61c1.56,0,3.12.3,4.68.46Zm-10.55,18.34c.52.05.87.12,1.21.12h11c1.26,0,1.36-.2.82-1.36-1.67-3.54-3.32-7.09-5-10.61-.22-.45-.79-1-1.2-1s-1,.58-1.19,1c-1.06,2.09-2,4.22-3,6.34C125.26,149.35,124.44,151.13,123.53,153.07Z"/><path d="M227.8,164c-1.19-1.29-2.36-2.6-3.58-3.86-2.62-2.72-5.27-5.4-7.9-8.11-.51-.53-.94-.71-1.57-.15-1.84,1.63-3.75,3.18-5.56,4.84a2.53,2.53,0,0,0-.67,1.62c-.1,1.61-.06,3.23,0,4.84,0,.91-.36,1.35-1.31,1.32-1.13,0-2.27-.05-3.41,0s-1.37-.37-1.37-1.41c0-8.35,0-16.71,0-25.07,0-.8.06-1.61,0-2.41-.09-1.09.39-1.43,1.41-1.38s2.13,0,3.19,0,1.51.4,1.5,1.49c0,4,0,8.06,0,12.09v1.77l1.72-1.44h0c4.84-4.15,9.71-8.27,14.5-12.46a4.92,4.92,0,0,1,3.83-1.48c1.53.12,3.08,0,4.62,0a11.51,11.51,0,0,1,1.15.12l.14.3c-.73.68-1.45,1.36-2.19,2l-4.88,4.41h0l-1.76,1.55h0l-2.42,2h0c-.84.7-1.7,1.39-2.52,2.12-.19.17-.23.49-.34.75h0c.64.75,1.26,1.52,1.94,2.23q6.62,6.78,13.26,13.55c.27.27.48.6.87,1.08a10.93,10.93,0,0,1-1.14.15c-1.9,0-3.8,0-5.7,0a7,7,0,0,1-1.75-.48Z"/><path d="M313.6,147.5c-1.31,1.41-2.66,2.79-3.91,4.27a2.57,2.57,0,0,0-.23,1.48c0,3.18,0,6.37,0,9.56,0,1.55-.14,1.68-1.7,1.69-1.06,0-2.13,0-3.19,0s-1.38-.36-1.37-1.36c0-3.26,0-6.52,0-9.78a3.46,3.46,0,0,0-1-2.57c-2.32-2.54-4.59-5.13-6.88-7.69h0l-7.4-8.4.19-.32a8.82,8.82,0,0,1,1.14-.12c1.47,0,2.94,0,4.4,0a3,3,0,0,1,2.59,1.13c3,3.43,6.11,6.81,9.11,10.27.7.8,1.15.81,1.81.05,1.68-2,3.4-3.93,5.1-5.89h0c1.39-1.5,2.82-3,4.17-4.51a2.72,2.72,0,0,1,2.28-1c1.54,0,3.08,0,4.61,0,.39,0,.78.08,1.41.15a10.59,10.59,0,0,1-.67,1c-2.84,3.21-5.69,6.4-8.53,9.61-.39.43-.72.92-1.07,1.38h0l-.88,1.11Z"/><path d="M241.11,152.19c-1.9,0-3.81,0-5.71,0-.92,0-1.36-.27-1.31-1.25s0-2,0-3.08c0-.7.27-1.1,1-1.1h12.19c.68,0,.91.36.92,1V151c0,.82-.38,1.19-1.22,1.18-2,0-3.95,0-5.93,0Z"/><path d="M266.52,182.7c0,2.08-.09,4.17-.14,6.25a3.37,3.37,0,0,1-.07,1.2,1.22,1.22,0,0,1-.84.64c-.28,0-.63-.35-.84-.63s-.08-.49-.08-.75c0-3,0-6,0-9,0-.49.4-1.35.66-1.36a2,2,0,0,1,1.53.67c1.48,2,2.85,4.18,4.26,6.28a2.25,2.25,0,0,0,.9.85c0-.39.06-.77.07-1.16,0-1.9,0-3.81,0-5.72,0-.54.07-1,.81-1.05s.93.37.93,1c0,3.37,0,6.74,0,10.12,0,.28-.4.83-.52.8a2.52,2.52,0,0,1-1.51-.6c-.92-1.13-1.68-2.39-2.51-3.6l-2.68-3.89,0,0Z"/><path d="M167.65,187v-6.35a2.6,2.6,0,0,1,.07-1.09,1.29,1.29,0,0,1,.85-.61c.21,0,.64.38.67.63a21.15,21.15,0,0,1,.07,2.52c0,2.38,0,4.77,0,7.15a1.91,1.91,0,0,1-.6,1.45c-.72.38-1.3-.16-1.71-.79-1.24-1.91-2.47-3.81-3.72-5.71a3.15,3.15,0,0,0-1.12-1.12c0,.49-.08,1-.09,1.47,0,1.65,0,3.3,0,5,0,.71-.11,1.37-1.05,1.33s-.79-.71-.79-1.29c0-3.11,0-6.23,0-9.34a1.61,1.61,0,0,1,.55-1.23,1.18,1.18,0,0,1,1.57.59c1.46,2.24,3,4.46,4.44,6.68.2.3.41.58.61.87Z"/><path d="M182.47,186.66c.65.23.4-.32.4-.52,0-1.75,0-3.51,0-5.27a2.55,2.55,0,0,1,.06-1.08c.19-.35.6-.57.91-.85.23.31.64.61.65.92.07,2,0,4.1,0,6.15,0,1.25,0,2.49,0,3.74,0,.35-.2.94-.41,1a1.8,1.8,0,0,1-1.31-.23,4.94,4.94,0,0,1-1-1.3l-4.28-6.49-.28.07c0,1.41,0,2.81,0,4.22v2.64c0,.58-.07,1.16-.84,1.15s-.8-.63-.81-1.19,0-1.32,0-2c0-2.42,0-4.83,0-7.25,0-.48.2-1.2.53-1.37.68-.35,1.2.18,1.6.78q1.77,2.72,3.58,5.4c.35.52.75,1,1.13,1.48Z"/><path d="M199.31,184.84a29.65,29.65,0,0,1-.3,3.27,3.3,3.3,0,0,1-3.25,2.75,14.6,14.6,0,0,1-1.75,0,3.32,3.32,0,0,1-3.32-3.07,34.78,34.78,0,0,1,0-5.59,4,4,0,0,1,4.26-3.45,4.07,4.07,0,0,1,4.18,3.46,21,21,0,0,1,0,2.63Zm-3.2,4.24c.39-.46,1.08-.9,1.11-1.38a31,31,0,0,0,0-5.53c-.13-1.16-1.46-1.78-2.75-1.62a2.19,2.19,0,0,0-2.05,2.19c-.06,1.43-.08,2.86,0,4.28a2.4,2.4,0,0,0,3.69,2Z"/><path d="M250.9,180.28a4.77,4.77,0,0,1,5.24-1.21,3.67,3.67,0,0,1,2.53,3.5c0,1.61,0,3.22,0,4.83a3.48,3.48,0,0,1-3.31,3.45,15,15,0,0,1-1.64,0c-1.93-.07-3.23-1-3.39-2.92-.22-2.56-.65-5.19.56-7.67Zm6.15,4.56a20.82,20.82,0,0,0-.22-2.43,2.17,2.17,0,0,0-2.21-1.89,2.2,2.2,0,0,0-2.52,1.79,24.53,24.53,0,0,0,0,5.21,2.24,2.24,0,0,0,2.43,1.93,2.39,2.39,0,0,0,2.4-2.14A21.8,21.8,0,0,0,257.05,184.84Z"/><path d="M224.53,191c-.35-.44-.88-.84-1-1.34a1.7,1.7,0,0,0-2.09-1.41,4.82,4.82,0,0,1-1.2,0c-1.32-.18-2.18.21-2.46,1.64a1.55,1.55,0,0,1-.81.9,1.24,1.24,0,0,1-1-.15c-.14-.1-.1-.62,0-.89,1.23-3.37,2.46-6.73,3.74-10.08a1.3,1.3,0,0,1,.89-.74,1.4,1.4,0,0,1,1.09.66c1.32,3.4,2.56,6.84,3.82,10.27C225.71,190.55,225.46,190.87,224.53,191Zm-3.33-7.45h0l-.52-1.75c-.58,1.58-1.05,2.85-1.52,4.11-.2.56,0,.87.57.85.8,0,1.59-.1,2.38-.16-.17-.76-.31-1.53-.51-2.28A4,4,0,0,0,221.2,183.58Z"/><path d="M285.88,186.87a8.59,8.59,0,0,0-1.51-.94c-.65-.23-1.37-.22-2-.39-2-.53-2.78-1.55-2.69-3.65a3.2,3.2,0,0,1,2.93-3,5.15,5.15,0,0,1,4,.76c.26.17.29.69.42,1.06-.43.12-1,.48-1.28.34a4,4,0,0,0-2.95-.48,1.73,1.73,0,0,0-1.36,1.66,1.55,1.55,0,0,0,1.32,1.65c.85.21,1.73.32,2.58.52a3.23,3.23,0,0,1,2.5,3.5,3,3,0,0,1-3,3,19,19,0,0,1-3.29-.09,3,3,0,0,1-1.55-.73,1.32,1.32,0,0,1-.26-1.18c.24-.57.76-.6,1.28-.2a3.55,3.55,0,0,0,3.4.65h0c1.43-.4,1.8-1,1.54-2.42Z"/><path d="M208.43,187.19c.75-2.25,1.49-4.51,2.23-6.76.11-.32.14-.74.36-.91a5.19,5.19,0,0,1,1.27-.55c.12.36.42.79.33,1.09-.75,2.45-1.57,4.88-2.38,7.31a17.58,17.58,0,0,1-.82,2.38c-.21.43-.7,1-1.07,1a1.59,1.59,0,0,1-1.11-.93q-1.68-4.81-3.2-9.7c-.1-.32.22-.77.34-1.15.45.22,1.15.33,1.29.67.58,1.38,1,2.83,1.44,4.26.36,1.11.72,2.22,1.07,3.32Z"/><path d="M231.93,185.66c0-1.28,0-2.56,0-3.84,0-.93-.39-1.35-1.31-1.32a3.29,3.29,0,0,1-1.3-.1,1.1,1.1,0,0,1-.64-.81c0-.23.46-.66.72-.67,2.27,0,4.54,0,6.81,0,.3,0,.59.45.89.69-.3.29-.56.77-.89.82-2.41.35-2.42.32-2.42,2.77,0,2.09,0,4.17,0,6.26,0,.64,0,1.32-.9,1.33s-.94-.66-.94-1.31c0-1.28,0-2.56,0-3.84Z"/><path d="M154.12,185c0,1.57,0,3.15,0,4.72,0,.56,0,1.15-.82,1.16s-1-.43-1-1.12c0-3.29,0-6.59,0-9.88a1.29,1.29,0,0,1,.79-.89c.58-.17,1,.22,1,.85,0,1.72,0,3.44,0,5.16Z"/><path d="M242.54,184.79c0-1.54,0-3.08,0-4.62,0-.6,0-1.23.89-1.22s.87.65.87,1.25c0,3.11,0,6.23,0,9.34,0,.65-.08,1.32-1,1.28s-.78-.75-.79-1.31C242.52,187.94,242.54,186.36,242.54,184.79Z"/><path d="M284.34,189.29h0Z"/><polygon points="182.48 186.66 182.5 186.62 182.47 186.66 182.48 186.66"/><path d="M314.48,146.4h0Z"/><path d="M223.18,144.64h0Z"/><path d="M220.32,147.5h0Z"/><path d="M313.6,147.5Z"/><path d="M210.2,148.15h0Z"/><path d="M217.24,153.43h0Z"/><path d="M217.24,153.44h0Z"/><path d="M228.46,155.63h0Z"/><path d="M228.46,155.64l.22.22h0l-.22-.22Z"/><path d="M228.9,156.07l-.22-.22h0l.22.22Z"/><path d="M229.12,156.29l-.22-.22h0l.22.22Z"/><path d="M229.12,156.3h0Z"/><path d="M232,159.15h0Z"/><path class="cls-1" d="M312.28,139.79h0Z"/><path d="M232.2,159.37l-.22-.22h0l.22.22Z"/><path d="M232.2,159.38l.22.22h0l-.22-.22Z"/><path d="M232.42,159.6l.22.22h0l-.22-.23Z"/><path d="M232.64,159.82Z"/><path d="M227.8,164h0Z"/><path d="M295.34,143.1Z"/><path class="cls-1" d="M288.3,135.84h0Z"/><path class="cls-1" d="M294.68,142.88h0Z"/><path d="M250.9,180.27h0Z"/><path class="cls-1" d="M288.3,135.83h0Z"/><path class="cls-1" d="M225.6,142.88Z"/><path class="cls-1" d="M294.68,142.87h0Z"/><path class="cls-1" d="M225.6,142.66v.22h0v-.23Z"/><path class="cls-1" d="M134.08,134.74h0Z"/><path d="M208.66,185.34h0Z"/><path d="M208.66,185.33h0Z"/><path class="cls-1" d="M227.36,141.12h0Z"/><path d="M285.88,186.88h0Z"/><polygon points="266.52 182.7 266.5 182.65 266.52 182.7 266.52 182.7"/><path d="M196.12,181.16Z"/><path d="M196.12,181.16Z"/><path d="M196.12,189.07h0Z"/><path d="M256,181.6Z"/><path d="M256,181.6Z"/><path d="M221.2,183.58Z"/></svg>