<svg id="Layer_1" data-name="Layer 1" xmlns="http://www.w3.org/2000/svg" viewBox="0 0 434.04 244.15"><title>client logos</title><path d="M389.8,115.36c-.92,1.36-1.77,2.77-2.78,4a7.28,7.28,0,0,0-1.45,4.87c.06,11.7,0,23.41,0,35.12v1.1H334.92v-1q0-18.47,0-36.91a2.9,2.9,0,0,0-.53-1.73c-1.1-1.62-2.18-3.27-3.23-4.93a2.34,2.34,0,0,1-.36-1.2c0-2.07,0-4.15,0-6.23a1.06,1.06,0,0,1,.8-1.19c.68-.25,1.33-.58,2.13-.93v6l1.05-.45c0-1.83,0-3.64,0-5.44a1,1,0,0,1,.76-1.12c.72-.26,1.42-.59,2.26-1v5.77c1.05-.22,1.09-.27,1.09-1.2,0-1.54,0-3.08,0-4.61,0-.44.11-.73.54-.87.17-.06.33-.18.5-.26,1.92-1,1.91-1,3.8.08a.77.77,0,0,1,.41.79c0,1.54,0,3.08,0,4.61,0,1,0,1,1.07,1.29v-5.83c1.05.45,2,.83,2.84,1.26.13.07.19.41.2.63,0,1.59,0,3.18,0,4.77v.88l1,.42v-6a17,17,0,0,0,1.85.8,1.43,1.43,0,0,1,1.13,1.7c-.09,1.91,0,3.83,0,5.74a2.52,2.52,0,0,1-.44,1.51c-1,1.47-1.94,3-3,4.45a3.17,3.17,0,0,0-.69,2.32,6,6,0,0,1,0,.86l.79-.16v4.92a19.71,19.71,0,0,0,1.87-1,1,1,0,0,0,.25-.7c0-1.24,0-2.48,0-3.72a1,1,0,0,1,.59-1c.57-.31,1.1-.68,1.66-1a.87.87,0,0,0,.49-.84c0-5.21,0-10.42,0-15.62a1.91,1.91,0,0,0-.33-1c-1.1-1.72-2.23-3.43-3.37-5.14a2.28,2.28,0,0,1-.43-1.34c0-2.11,0-4.21,0-6.32a.89.89,0,0,1,.62-1c.75-.29,1.47-.64,2.32-1v5.8c.92,0,1-.12,1-.87,0-1.65,0-3.3,0-4.94a.84.84,0,0,1,.64-.94c.76-.28,1.48-.63,2.37-1v5.81c1.09-.3,1.09-.3,1.09-1.2,0-1.56,0-3.13,0-4.69a.77.77,0,0,1,.5-.82c.78-.35,1.55-.74,2.23-1.08a18.08,18.08,0,0,0,1.78.93,1.1,1.1,0,0,1,.79,1.21c-.06,1.46,0,2.91,0,4.37,0,.95,0,.95,1.05,1.29V86.6c1.05.46,2,.82,2.83,1.27.15.07.2.46.21.7,0,1.62,0,3.24,0,4.86,0,.81,0,.81,1,1V88.55c1,.47,1.94.86,2.81,1.31.13.06.19.37.19.56,0,2.24,0,4.48,0,6.72a2,2,0,0,1-.34,1q-1.67,2.58-3.38,5.13a2.29,2.29,0,0,0-.41,1.36q0,7.57,0,15.13a1.16,1.16,0,0,0,.68,1.23c.49.23.91.58,1.39.82a1.09,1.09,0,0,1,.67,1.15c-.05,1.21,0,2.43,0,3.64a.81.81,0,0,0,.53.88c.51.23,1,.52,1.6.84v-4.9l.76.12a4.1,4.1,0,0,0-.73-3.3c-1.08-1.45-2-3-3-4.52a2.05,2.05,0,0,1-.32-1.05c0-2.15,0-4.31,0-6.47a.93.93,0,0,1,.7-1c.72-.28,1.41-.62,2.24-1V112c1-.14,1-.16,1-1,0-1.62,0-3.24,0-4.86a.82.82,0,0,1,.6-.9c.78-.3,1.53-.65,2.44-1V110c1.07-.31,1.07-.31,1.07-1.2,0-1.54,0-3.08,0-4.62a.85.85,0,0,1,.57-.93c.62-.26,1.21-.8,1.81-.81s1.22.51,1.83.8a2.42,2.42,0,0,0,.36.18c.58.16.68.56.67,1.1,0,1.49,0,3,0,4.45,0,.92.05,1,1.1,1.23v-5.8c1,.44,1.9.8,2.75,1.23.16.08.24.45.24.68,0,1.62,0,3.24,0,4.86,0,.81,0,.81,1,1.11v-5.94l3.07,1.41Zm-29.1-14a3.63,3.63,0,0,0-.07.45q0,10.72,0,21.45a.79.79,0,0,0,.53.8l4.06,2a2.89,2.89,0,0,0,.52.14V104.72a1.54,1.54,0,0,0,0-.48.92.92,0,0,0-.31-.5C363.88,103,362.34,102.2,360.7,101.39Zm-1.17.24c-.35.14-.58.22-.79.32-1.11.55-2.21,1.13-3.33,1.64a1.05,1.05,0,0,0-.7,1.11q0,10.38,0,20.77c0,.23,0,.46.06.76l.5-.19c1.19-.59,2.36-1.2,3.56-1.74a1.11,1.11,0,0,0,.69-1.19c0-6.85,0-13.69,0-20.53Zm1.17,38.56V159.4h5V149.33c0-2,0-4,0-6.06a.88.88,0,0,0-.56-.93c-1.32-.62-2.61-1.29-3.92-1.93C361.1,140.33,360.93,140.28,360.7,140.19Zm-1.21,0c-1.44.71-2.75,1.39-4.09,2a1.05,1.05,0,0,0-.69,1.12q0,7.6,0,15.22v.82h4.76Zm-5.85,6.64c-.26.11-.41.16-.54.23-2.33,1.3-4.65,2.61-7,3.9a.91.91,0,0,0-.54.95c0,2.27,0,4.53,0,6.79,0,.21,0,.42.05.65h8Zm13.24,0V159.4h8c0-.19.05-.32.05-.45,0-2.34,0-4.69,0-7a.9.9,0,0,0-.59-.86c-1.46-.8-2.91-1.63-4.37-2.44C369,148.05,368,147.5,366.88,146.88Zm-19.84-26c1.31-2,2.59-3.93,3.85-5.87a1.28,1.28,0,0,0,.13-.62c0-1.91,0-3.83,0-5.74,0-.47-.17-.71-.76-.67v5.85c-.9-.39-1.64-.77-2.41-1a1,1,0,0,1-.8-1.19c.06-1.58,0-3.18,0-4.77,0-.55-.15-.87-.83-.85V112c-1-.5-1.82-1-2.69-1.37a1,1,0,0,1-.61-1c0-1.51,0-3,0-4.53,0-.94,0-.94-1.09-1.2,0,.27,0,.53,0,.79,0,1.48,0,3,0,4.45v8.57c0,.34-.07.68.36.88C343.8,119.29,345.36,120.08,347,120.91ZM370.2,108c-.68,0-.76.37-.75.83,0,1.75,0,3.5,0,5.25a2.26,2.26,0,0,0,.4,1.36c1,1.54,2.05,3.11,3.07,4.66a6,6,0,0,0,.42.48c1.57-.77,3.08-1.54,4.62-2.26a1,1,0,0,0,.7-1.09c0-4.26,0-8.52,0-12.78,0-.2,0-.4-.07-.69l-1.05.51c0,1.44-.11,2.88,0,4.29a2.09,2.09,0,0,1-1.57,2.54,15.15,15.15,0,0,0-1.73.85V106c-.59,0-.85.22-.84.79,0,1.32-.11,2.66,0,4a1.94,1.94,0,0,1-1.63,2.44,11.84,11.84,0,0,0-1.61.67Zm-9.53-21.73a3.53,3.53,0,0,0,0,.38q0,6.47,0,12.94a.82.82,0,0,0,.58.84c1.29.62,2.56,1.26,3.84,1.89.36.18.72.34,1.08.51a2.77,2.77,0,0,0,.26-.29c1.08-1.64,2.17-3.28,3.24-4.93a1.44,1.44,0,0,0,.23-.75c0-1.91,0-3.82,0-5.74,0-.47-.22-.69-.81-.65v5.84c-.94-.42-1.74-.81-2.57-1.13a.85.85,0,0,1-.63-1c0-1.67,0-3.34,0-5,0-.55-.21-.77-.84-.73v5.91c-1-.5-1.82-1-2.69-1.38a.92.92,0,0,1-.58-1c0-1.48,0-3,0-4.45C361.78,86.54,361.76,86.52,360.67,86.25Zm-25,34.52c.27-.12.49-.2.71-.31,1.23-.61,2.44-1.26,3.7-1.81a1,1,0,0,0,.68-1.11c0-4.2,0-8.41,0-12.62,0-.23,0-.47,0-.71-.62,0-.78.31-.78.83,0,1.59,0,3.18,0,4.77,0,.27-.08.66-.26.77-.92.54-1.89,1-3,1.57v-6c-.62,0-.87.26-.86.81,0,1.68,0,3.35,0,5,0,.26-.11.66-.29.75-.9.46-1.85.84-2.92,1.32v-5.87c-.66,0-.74.34-.74.8,0,1.64,0,3.29,0,4.93a2.94,2.94,0,0,0,.57,2c.49.64.9,1.34,1.34,2Zm52.17-12.58v5.88c-.85-.37-1.56-.76-2.32-1s-.94-.68-.91-1.42c.06-1.54,0-3.08,0-4.61,0-.58-.19-.84-.84-.82v5.92c-.78-.39-1.42-.79-2.12-1.06a1.62,1.62,0,0,1-1.17-1.88c.11-1.4,0-2.8,0-4.21,0-.52-.19-.8-.81-.78v2.44c0,3.63,0,7.27,0,10.91a1,1,0,0,0,.63,1.06c.72.3,1.4.69,2.1,1l2.29,1.1a1.68,1.68,0,0,0,.23-.22c1.14-1.73,2.29-3.46,3.42-5.2a1.43,1.43,0,0,0,.22-.75c0-1.89,0-3.78,0-5.66C388.64,108.46,388.46,108.22,387.85,108.19Zm-33.49-5.31c1.55-.76,3-1.51,4.5-2.2a1,1,0,0,0,.68-1.12c0-4.12,0-8.25,0-12.37,0-.26,0-.51-.06-.78-.65,0-.77.38-.76.88,0,1.59,0,3.18,0,4.77,0,.24-.06.61-.22.71-1,.55-1.93,1-3.05,1.61v-6c-.61,0-.84.28-.84.82,0,1.67,0,3.34,0,5a1,1,0,0,1-.3.74c-.9.46-1.85.84-2.89,1.31V90.44c-.63,0-.76.29-.76.76,0,1.86,0,3.72,0,5.58a1.5,1.5,0,0,0,.18.76C352,99.3,353.15,101.05,354.36,102.88Zm11.28,38.44a2.83,2.83,0,0,0,.08-.38c0-4.29,0-8.57,0-12.85a.78.78,0,0,0-.55-.78c-1.26-.61-2.51-1.24-3.76-1.86-.23-.11-.47-.19-.81-.33v1.27q0,5.13,0,10.26c0,.7-.22,1.55.1,2.06s1.18.76,1.82,1.08C363.55,140.31,364.56,140.79,365.64,141.32Zm1.22,4.26,8,4.5c0-.36.05-.59.05-.82,0-4,0-8,0-12a1,1,0,0,0-.59-1c-2.36-1.3-4.7-2.63-7.05-3.95a3.2,3.2,0,0,0-.47-.16Zm-21.28,4.35c.19-.05.27-.05.34-.08,2.44-1.37,4.88-2.75,7.34-4.1.42-.23.43-.56.43-.94,0-4,0-8.09,0-12.13,0-.2,0-.4-.07-.68l-.78.39c-2.21,1.24-4.41,2.49-6.64,3.7a1,1,0,0,0-.63,1.07c0,4,0,8.08,0,12.13Zm9.14-8.59c1.61-.79,3-1.5,4.45-2.19.38-.18.36-.48.36-.81q0-6.22,0-12.44c0-.2,0-.39-.07-.68-1.41.7-2.72,1.38-4.06,2a1,1,0,0,0-.68,1.11c0,4,0,8,0,12Zm25-21.79v1.07c0,3.48.08,6.95,0,10.42a2.22,2.22,0,0,0,1.63,2.57c1,.38,2,1,3.11,1.49V121.87Zm-39,.08c-.27.11-.5.18-.7.28-1.12.54-2.22,1.12-3.34,1.63a1,1,0,0,0-.68,1.11c0,3.86,0,7.71,0,11.56,0,.24,0,.47.05.77a5.93,5.93,0,0,0,.59-.22c1.16-.57,2.31-1.17,3.48-1.7a1,1,0,0,0,.64-1.06c0-3.88,0-7.76,0-11.64C340.76,120.14,340.74,119.93,340.72,119.63Zm26.22,2.28a1.48,1.48,0,0,0-.1.34q0,4,0,8a.75.75,0,0,0,.49.74l7.06,3.94a3.76,3.76,0,0,0,.57.19c0-2.92,0-5.75,0-8.57a.65.65,0,0,0-.21-.48c-.6-.34-1.22-.63-2-1v5.09c-1.34-.72-2.56-1.41-3.8-2a.9.9,0,0,1-.55-.94c0-1.27,0-2.54,0-3.8,0-.23,0-.54-.19-.65A11.58,11.58,0,0,0,366.94,121.91Zm-21.31,13.15A2.46,2.46,0,0,0,346,135l7.27-4.06a.83.83,0,0,0,.44-.86c0-2.51,0-5,0-7.52a4,4,0,0,0-.09-.58c-.28.15-.49.28-.7.37a1.29,1.29,0,0,0-.86,1.45c.08,1.16,0,2.32,0,3.48a.82.82,0,0,1-.53.88c-.77.39-1.52.82-2.28,1.23-.46.25-.93.48-1.55.8v-5.06c-.62.31-1.08.58-1.57.78a.82.82,0,0,0-.56.93c0,2.53,0,5.07,0,7.61C345.58,134.6,345.61,134.81,345.63,135.06Zm30.42-.41.19.08c.63-.54,1.24-1.1,1.89-1.61a1.25,1.25,0,0,0,.52-1.09c0-4,0-8,0-12,0-.23,0-.45-.05-.68a1.41,1.41,0,0,0-.23,0l-3.05,1.49c-1.8.9-1.8.9-1.71,2.88,0,0,0,.06,0,.08.13.21.21.49.39.61a10.74,10.74,0,0,0,1.43.74,1,1,0,0,1,.65,1c0,2.54,0,5.07,0,7.6ZM342,119.73a.83.83,0,0,0-.08.26q0,6.18,0,12.35c0,.16,0,.37.1.46.76.69,1.54,1.36,2.46,2.16,0-.5.05-.76.05-1,0-2.37.06-4.75,0-7.11a1.78,1.78,0,0,1,1.22-2c1.4-.62,1.36-.69,1.29-2.24a.71.71,0,0,0-.42-.7l-4.27-2.11A1.54,1.54,0,0,0,342,119.73ZM340.71,149c-1.53.75-3,1.44-4.36,2.18a.92.92,0,0,0-.32.72c0,2.3,0,4.59,0,6.88,0,.18,0,.36.05.59h4.64Zm43.66,10.4c.06-.12.1-.17.1-.21,0-2.48,0-4.95,0-7.43a.87.87,0,0,0-.42-.58c-1.27-.66-2.55-1.28-3.83-1.91a1.93,1.93,0,0,0-.43-.1v10.23Zm-40.09-9.75.19-.1v-.88c0-3.69,0-7.38,0-11.06a2.09,2.09,0,0,0-.92-2c-.55-.38-1.05-.86-1.6-1.32a1.31,1.31,0,0,0-.1.29q0,6.26,0,12.52a.88.88,0,0,0,.17.59C342.77,148.41,343.53,149,344.28,149.68Zm34.3-15.47c-.74.63-1.35,1.18-2,1.68a1.26,1.26,0,0,0-.53,1.16c0,4,0,7.93,0,11.9,0,.2,0,.39.06.73.72-.61,1.31-1.16,1.95-1.64a1.35,1.35,0,0,0,.59-1.22c0-3.91,0-7.82,0-11.74C378.63,134.85,378.61,134.62,378.58,134.21Zm0,14.83c-.89.76-1.64,1.37-2.34,2a.94.94,0,0,0-.2.65c0,2.4,0,4.79,0,7.19,0,.15,0,.31.06.49h2.49Zm-34.24,10.37a1.19,1.19,0,0,0,.09-.27c0-2.48,0-4.95,0-7.43a.66.66,0,0,0-.11-.45c-.77-.69-1.55-1.36-2.43-2.12v10.27Zm35.45-25.29a2,2,0,0,0-.06.35c0,4.28,0,8.57,0,12.85a.71.71,0,0,0,.48.73c1.21.58,2.41,1.19,3.62,1.79.18.09.38.14.57.22a.82.82,0,0,0,.07-.21c0-4.34,0-8.68,0-13,0-.41-.22-.56-.53-.71-1.23-.6-2.46-1.22-3.69-1.83C380.15,134.23,380,134.19,379.81,134.12Zm-39.1,0c-.27.1-.47.15-.66.24-1.13.56-2.26,1.15-3.41,1.67a1,1,0,0,0-.64,1.05c0,4.08,0,8.15,0,12.22,0,.23,0,.46.06.77l1-.47c1-.49,2-1,3-1.46a1,1,0,0,0,.69-1.1c0-4,0-8.1,0-12.14C340.76,134.63,340.73,134.4,340.71,134.09Z"/><path d="M85.3,130.43c-1.57-2.62-3.15-5.13-4.61-7.71a43.47,43.47,0,0,1-3.29-7.64,48.63,48.63,0,0,0-2.46-5.71,87.21,87.21,0,0,0-5.21-10.13c-1.36-2.07-2.81-4.08-4.21-6.12l-.2.1.33,1.65c.4,1.9.85,3.79,1.18,5.7a59.11,59.11,0,0,1,.61,10.8l-.18,10.68c0,1,0,1.94-.11,2.9a3.58,3.58,0,0,0,1,2.81c.34.38.74.71,1.08,1.09s.47.64.72,1a1.38,1.38,0,0,0,.51.46c.4.15.59.39.44.8a.62.62,0,0,1-.93.33,7.37,7.37,0,0,0-3.88-.49c-1.5.18-3,.42-4.5.54a5.53,5.53,0,0,1-2-.2c-.88-.24-1.13-.85-.67-1.6.57-.95,1.29-1.82,1.92-2.73a1.4,1.4,0,0,0,.17-.68c0-1.21,0-2.43,0-3.64a47.86,47.86,0,0,1,.74-8.77,42.44,42.44,0,0,0,.73-8.12.86.86,0,0,1,0-.32c.47-2.13,0-4.24-.22-6.35-.21-1.9-.5-3.79-.73-5.69a6.34,6.34,0,0,1,.05-1.12,1.67,1.67,0,0,0-.53-.2,1.3,1.3,0,0,1-1.08-2c.22-.42.42-.85.64-1.27a1.21,1.21,0,0,1,.31-.36,2.9,2.9,0,0,1,2.74.3A3.44,3.44,0,0,1,64.37,90a4.66,4.66,0,0,0,1.24,2.14,52.9,52.9,0,0,1,7,10c2.42,4.66,4.68,9.42,7,14.14a40.87,40.87,0,0,0,5.06,8.45c.51.61,1.09,1.18,1.67,1.75a6.11,6.11,0,0,0,.9.6,6,6,0,0,0,.31-.64,25.81,25.81,0,0,0,1.65-9c-.08-5.34,0-10.68-.1-16a37.64,37.64,0,0,0-1.21-8.3,15.92,15.92,0,0,0-.61-1.76,3.25,3.25,0,0,0-2.22-2.07c-.62-.17-1.24-.37-1.88-.48a4.52,4.52,0,0,0-1.27,0c-.61.08-1.21.24-1.82.3a1.24,1.24,0,0,1-1.41-1,5.58,5.58,0,0,1-.14-1.35.87.87,0,0,1,.95-.89h3.76c.89,0,1.78-.05,2.67,0a7.69,7.69,0,0,0,4.09-1,5.83,5.83,0,0,1,3.2-1,3.6,3.6,0,0,1,1.31.32,1.16,1.16,0,0,1,.41,2,26.78,26.78,0,0,1-2.39,2.07c0-.09,0,0,0,.11a25.64,25.64,0,0,1,2.58,10.52c.14,3.4.16,6.79.21,10.19,0,3.61.11,7.23.07,10.84a17.56,17.56,0,0,1-1,5.54c-.18.53-.31,1.08-.46,1.63a6.84,6.84,0,0,1-2.87,4,4.57,4.57,0,0,1-3.09,1.2c-.19,0-.39.14-.6.18a1.85,1.85,0,0,1-.62,0c-.36-.06-.7-.19-1-.25A1,1,0,0,1,85,131,3.66,3.66,0,0,1,85.3,130.43Z"/><path d="M141.58,104.17l-.75.12a1.51,1.51,0,0,1-1.39-.47.93.93,0,0,1,0-1.49,2.48,2.48,0,0,1,1.8-.93c1.81-.1,3.61-.27,5.41-.4a3.83,3.83,0,0,1,.89,0,1.25,1.25,0,0,1,1.23,1.26,1.38,1.38,0,0,1-1,1.57,10.26,10.26,0,0,0-1.15.35,4.05,4.05,0,0,0-1.19.79c-.7.74-.67.87-.15,1.75a7,7,0,0,1,.44.86c1.11,2.84,2.2,5.68,3.31,8.52q1,2.52,2,5c.16.39.4.75.66,1.23a4.17,4.17,0,0,0,.22-.45q2.78-7.73,5.54-15.45c.15-.41.23-.84.39-1.24a.82.82,0,0,0-.34-1.11c-.34-.26-.71-.49-1-.76a5.37,5.37,0,0,1-.84-.74,1,1,0,0,1-.14-1.34,1.28,1.28,0,0,1,1.37-.48c1.83.9,3.79.67,5.72.76.43,0,.87,0,1.3.06s1.16.12,1.38.77a2,2,0,0,1-.75,1.92c-.48.3-1,.51-1.48.83a1.66,1.66,0,0,0-.68.84c-1.14,5.08-3.46,9.75-5.08,14.66-.58,1.76-1.09,3.55-1.65,5.33-.31,1-.68,2-1,3a2.28,2.28,0,0,1-1.88,1.47,1.7,1.7,0,0,1-1.7-1.09c-.88-2.32-1.8-4.62-2.56-7a64,64,0,0,0-2.4-6.86c-.64-1.42-1-3-1.57-4.41-.22-.61-.5-1.19-.75-1.78l-.21,0a18.72,18.72,0,0,0-.77,2c-.72,2.9-1.4,5.82-2.09,8.73-.27,1.12-.45,2.27-.78,3.38-.39,1.33-.86,2.65-1.37,3.94a6.38,6.38,0,0,1-1,1.74,1.41,1.41,0,0,1-1.05.37c-.5,0-.6-.57-.54-.95a3,3,0,0,0-.82-2.28,37.27,37.27,0,0,1-3.48-7.19c-1-2.38-2-4.78-2.95-7.18-.27-.7-.43-1.44-.65-2.16-.15-.52-.29-1-.48-1.55-.55-1.5-.55-1.5-2.13-1.55a1,1,0,0,1-.48,0c-.18-.11-.45-.31-.45-.46a.84.84,0,0,1,.37-.61c1.87-.78,3.76-1.53,5.64-2.27.82-.32,1.14-.2,1.43.5a1.24,1.24,0,0,1-.51,1.73c-.92.49-1.05.65-.71,1.54a86.64,86.64,0,0,0,5.65,12.78,5.67,5.67,0,0,0,.72,1c.41.44.75.41,1-.14a9.45,9.45,0,0,0,.51-1.69c1-4,1.65-8.08,3.06-12A3.32,3.32,0,0,0,141.58,104.17Z"/><path d="M166.51,118.72a5.13,5.13,0,0,0-.72.41,5,5,0,0,0-2.15,2.81,1,1,0,0,1-1.41.76.77.77,0,0,1-.45-1.27,76.71,76.71,0,0,1,12.89-14.22,33.48,33.48,0,0,1,7.1-4.15c1.37-.65,2.73-1.31,4.1-1.94a5.87,5.87,0,0,1,1.31-.41,1.78,1.78,0,0,1,2.06,1.17,4,4,0,0,1,.09,2.46c-.1.45-.22.89-.36,1.33a.83.83,0,0,0,.22,1,1.39,1.39,0,0,1,.25,1.71,1.21,1.21,0,0,1-1.85.39,4.13,4.13,0,0,1-1.72-3.39c0-.36-.06-.73-.1-1.18a4.74,4.74,0,0,0-.69.22c-2.05,1-4.14,2-6.14,3.1a21.23,21.23,0,0,0-7.71,8,13.51,13.51,0,0,0-2.28,6.73,11.67,11.67,0,0,0,.19,2.57,2,2,0,0,0,2.47,1.74,36.15,36.15,0,0,0,4.3-1.1c3.52-1.1,6.67-3,9.92-4.71,2.4-1.27,4.89-2.38,7.35-3.55a4.79,4.79,0,0,1,1.07-.35,1.47,1.47,0,0,0,1.27-.8c.29-.58,1.31-.52,1.75.07a2.7,2.7,0,0,1,.79,2,2.76,2.76,0,0,0,.08.8,2.86,2.86,0,0,1-1.93,3.52c-3.65,1.38-7.33,2.7-11,4.07-3.23,1.22-6.44,2.49-9.66,3.72a16.64,16.64,0,0,1-6.45.91,3.09,3.09,0,0,1-2-.8,5,5,0,0,1-1.92-4.09c0-.72-.09-1.45-.07-2.17a11.22,11.22,0,0,1,1.22-4.74c.09-.18.18-.37.26-.55Z"/><path d="M276.83,129.09c0,.16,0,.27,0,.38A2.35,2.35,0,0,1,274.7,132a25.17,25.17,0,0,1-3.12.43,20.09,20.09,0,0,1-7.88-1,9.86,9.86,0,0,1-6.69-10c.06-1.4,0-2.82.1-4.21.22-2.33.52-4.65.86-7a65.28,65.28,0,0,1,3.19-12.85c0-.12.07-.25.1-.36-1.08.18-2.13.38-3.18.53-.9.12-1.81.21-2.72.28a1,1,0,0,1-.67-.2,1.82,1.82,0,0,1-.45-.87c-.07-.39.27-.56.6-.63,1.22-.24,2.43-.51,3.65-.69a22.12,22.12,0,0,1,2.82-.17.84.84,0,0,0,.9-.61,73.71,73.71,0,0,0,3.14-8.4,7.31,7.31,0,0,1,.48-1.28c.09-.17.34-.26.52-.39a1.93,1.93,0,0,1,.36.63,2.78,2.78,0,0,1-.16.78q-.94,3.9-1.88,7.78c-.06.25-.07.51-.11.77a1.51,1.51,0,0,0,.33,0c5.59-.68,11.18-1.37,16.77-2a2.45,2.45,0,0,1,1.23.18,1.14,1.14,0,0,1,.65,1.28,1.11,1.11,0,0,1-1,1,27.4,27.4,0,0,1-3.36.46,30.26,30.26,0,0,1-3.29-.13,45,45,0,0,0-8.2.72c-.91.12-1.81.28-2.73.37a.83.83,0,0,0-.87.83c-.5,3.47-1.07,6.93-1.57,10.4-.36,2.53-.72,5.07-.91,7.62a51,51,0,0,0-.08,6.3,4.35,4.35,0,0,0,2.94,4,18.09,18.09,0,0,0,4.06,1c1.55.2,3.12.17,4.69.22a5.14,5.14,0,0,0,2.43-.68,2.88,2.88,0,0,1,1.51-.33,1.69,1.69,0,0,1,1.37,1.67C278.51,128.41,277.92,128.94,276.83,129.09Z"/><path d="M217.72,121.26c-.24.29-.45.59-.71.87a41.14,41.14,0,0,1-9.06,7.51,6.18,6.18,0,0,1-4,.84,3.6,3.6,0,0,1-2.39-1.68A13.77,13.77,0,0,1,199,118.69a19.93,19.93,0,0,1,5-10.19,28.61,28.61,0,0,1,7.68-6.26,10.17,10.17,0,0,1,8.43-.9c.55.18.69.09.83-.49a1.32,1.32,0,0,1,1.39-1.16c.84,0,1.26.23,1.37,1.15a15.81,15.81,0,0,1,.08,3.7c-.5,3.87-.47,7.75-.62,11.63a48.2,48.2,0,0,1-.6,6.68,13.92,13.92,0,0,0-.16,4.51c0,.18,0,.38,0,.56.24,2.14-2,2.65-3.19,2a1.43,1.43,0,0,0-1-.16,1.74,1.74,0,0,1-1.77-.91,1.45,1.45,0,0,1,.19-1.79c.29-.35.68-.6,1-.93.16-.18.38-.42.38-.63,0-1.21,0-2.42-.05-3.64,0-.15,0-.3,0-.45Zm-17-.12a19.15,19.15,0,0,0,.34,2.12,10.18,10.18,0,0,0,1.58,3.78c.91,1.2,1.91,1.3,3,.24,1.78-1.73,3.57-3.44,5.27-5.24,2.24-2.4,4.4-4.88,6.59-7.33a3.1,3.1,0,0,0,1-2.48,3.35,3.35,0,0,1,.1-.88c.44-2.38.86-4.77,1.33-7.15a1.12,1.12,0,0,0-.54-1.3,4.15,4.15,0,0,0-2.45-.68,9.86,9.86,0,0,0-4.26,1.13,21.86,21.86,0,0,0-9.84,9.71A18.66,18.66,0,0,0,200.74,121.14Z"/><path d="M289.28,127.53c.31.19.61.41.94.57a3.21,3.21,0,0,0,.85.26,4.27,4.27,0,0,1,3.06,2,1.73,1.73,0,0,1,.31,1.87,1.45,1.45,0,0,1-1.7.78c-1.08-.22-2.15-.5-3.22-.77-.79-.19-1.58-.37-2.35-.62a2.79,2.79,0,0,0-1.89.07,2,2,0,0,1-2.56-1.52,1.31,1.31,0,0,1,.27-.89c.36-.47.84-.84,1.22-1.3a1.52,1.52,0,0,0,.4-.8c.43-5,.3-10.08.29-15.12,0-4.2-.06-8.41-.19-12.61-.06-2.18-.34-4.36-.49-6.54-.07-1.1-.06-2.2-.08-3.31,0-.29,0-.58,0-.88-1.12.09-1.13.1-1.35,1a1,1,0,0,1-.88.82,1.47,1.47,0,0,1-1.67-.69,1.85,1.85,0,0,1,.32-2.5,7.84,7.84,0,0,1,1.82-1.3c1.13-.57,2.33-1,3.45-1.57a4.27,4.27,0,0,1,2.6-.35,1.59,1.59,0,0,1,1.1,1.34,4.46,4.46,0,0,1-.28,2.21A7.08,7.08,0,0,0,289,91c0,1.21,0,2.43.12,3.64.07.92.27,1.84.41,2.76a4.57,4.57,0,0,1,0,.64q0,14,0,28.08a10.39,10.39,0,0,1-.14,1.25Z"/><path d="M320.16,120.07a1.73,1.73,0,0,1,.27-1.87c.48-.52,1-.53,1.34,0a2.23,2.23,0,0,1,.42,1.8,6.84,6.84,0,0,0-.17,2.68,2.58,2.58,0,0,1-1.21,2.65,21.41,21.41,0,0,1-6.4,3.22,22.89,22.89,0,0,1-9,.92,12.31,12.31,0,0,1-7.41-3.1,14.81,14.81,0,0,1-4.72-7.38,2.79,2.79,0,0,1-.1-.39c-.48-5.1.6-9.67,4.61-13.19a31.67,31.67,0,0,1,3.24-2.53,10.75,10.75,0,0,1,8.29-1.57,34.87,34.87,0,0,1,4.5,1.25,6.61,6.61,0,0,1,2.82,2,1.59,1.59,0,0,0,.83.41,1.71,1.71,0,0,1,1.43,1.24,5.44,5.44,0,0,0,.9,1.43,2.37,2.37,0,0,1,.2,2.23.87.87,0,0,1-.62.48c-.8.07-1.61,0-2.41.05a4.27,4.27,0,0,0-.87.14c-1.75.46-3.51.88-5.23,1.41-2.88.87-5.89,1-8.82,1.6a6.43,6.43,0,0,0-2.64,1,.83.83,0,0,1-.61.12,2,2,0,0,1-.94-.45c-.12-.14,0-.59.1-.8a.8.8,0,0,1,1-.24,1.35,1.35,0,0,0,.69,0c1-.25,2-.55,3-.79,3.33-.77,6.67-1.52,10-2.28.6-.14,1.22-.24,1.81-.4a12.19,12.19,0,0,0,2-.65c.81-.36.92-.94.29-1.59a11.06,11.06,0,0,0-2-1.65,14.89,14.89,0,0,0-7.34-2.27,9.66,9.66,0,0,0-6.63,2.35,12,12,0,0,0-4.83,8.81,7.46,7.46,0,0,0,1.44,5.34c.54.71,1.07,1.42,1.6,2.14a8.89,8.89,0,0,0,6.45,3.42,15.83,15.83,0,0,0,11-3.07C317.7,121.72,318.88,120.92,320.16,120.07Z"/><path d="M123.49,120.26a5.83,5.83,0,0,1,.15-1.55,1.47,1.47,0,0,1,.84-.76c.44-.15.7.28.93.62.53.84.2,1.73.13,2.6a8.29,8.29,0,0,0,0,1.41,3,3,0,0,1-1.23,2.83,19.4,19.4,0,0,1-7.59,3.62,25.27,25.27,0,0,1-7.79.52,12.34,12.34,0,0,1-8.93-4.66c-.62-.77-1.22-1.57-1.79-2.39A10.15,10.15,0,0,1,96.71,116c0-.35.05-.7.06-1.05a13,13,0,0,1,4.2-9,24.45,24.45,0,0,1,3.75-3.06,11.74,11.74,0,0,1,9.28-1.25,27,27,0,0,1,2.79.81,5.49,5.49,0,0,1,2.88,1.84,1.75,1.75,0,0,0,1.27.77,1.58,1.58,0,0,1,1.49,1.36,2.06,2.06,0,0,0,.59.94,2.68,2.68,0,0,1,.63,2.4.73.73,0,0,1-.87.74c-2-.23-3.81.42-5.69.93a68,68,0,0,1-10.69,2.1,6.57,6.57,0,0,0-3.33,1.13,1.24,1.24,0,0,1-1.37-.07.93.93,0,0,1-.34-.8.78.78,0,0,1,.59-.51c1.78.19,3.32-.75,5-1s3.37-.71,5.05-1.1,3.35-.81,5-1.21c.49-.12,1-.16,1.5-.3a8,8,0,0,0,1.5-.58.89.89,0,0,0,.18-1.57,9.86,9.86,0,0,0-4.09-2.68,38.2,38.2,0,0,0-4.93-1.23,7.81,7.81,0,0,0-4.64,1,13.65,13.65,0,0,0-5.68,5.46,10.52,10.52,0,0,0-1.29,7,7.42,7.42,0,0,0,1.53,3.35c.25.35.53.68.77,1,2.13,3.13,5.21,4.28,8.84,4.28a14.58,14.58,0,0,0,8.9-3c.78-.58,1.58-1.12,2.39-1.66C122.51,120.86,123,120.56,123.49,120.26Z"/><path d="M246.78,102.1a12.15,12.15,0,0,0-1.32-.2,12.72,12.72,0,0,0-6.59,1.91c-.81.48-1.58,1-2.37,1.55-.54.35-1,.79-.88,1.5a1.61,1.61,0,0,0,1.31,1.28c2.22.44,4.43.9,6.65,1.32a18.3,18.3,0,0,1,8.9,4,2.6,2.6,0,0,1,.68,1.14,5.72,5.72,0,0,1-.23,3.65,15.62,15.62,0,0,1-3.65,5.58,22.49,22.49,0,0,1-6.38,4.77,14.58,14.58,0,0,1-6.37,1.57,11.61,11.61,0,0,1-5-.91c-1.65-.73-3.32-1.43-5-2.14a2.09,2.09,0,0,1-1.21-1.94,2,2,0,0,0-.28-.87,1.64,1.64,0,0,1,.7-2.59,1.66,1.66,0,0,0,.52-.47c.53-.67,1.18-.84,1.81-.29a3.51,3.51,0,0,1,1,1.41,1.52,1.52,0,0,0,.94,1c1.64.62,3.27,1.25,4.91,1.85a5.16,5.16,0,0,0,2.78.29c1-.18,2.08-.24,3.13-.36a3.54,3.54,0,0,0,.79-.14c3.91-1.33,7-3.58,8.82-7.43l.13-.3c.67-1.57.49-2.38-1.06-3.11a37,37,0,0,0-4.9-1.83c-2.17-.66-4.37-1.18-6.55-1.78a19.43,19.43,0,0,1-2-.68,3.78,3.78,0,0,1-2.26-3.54,2.3,2.3,0,0,1,1.25-2.13,35,35,0,0,1,6.92-3.47,2.23,2.23,0,0,1,.71-.17,24.36,24.36,0,0,1,7.46.63,5.35,5.35,0,0,1,2.62,1.52,1.32,1.32,0,0,1,.37,1,5.71,5.71,0,0,1-.93,1.9,1.22,1.22,0,0,1-2-.39c-.33-.93-1.08-1-1.84-1.14a2.61,2.61,0,0,0-.56,0C246.59,104,246.23,103.43,246.78,102.1Z"/><path d="M185.67,148.34l-2.73.65c-.11-.23-.2-.42-.28-.61a3.83,3.83,0,0,0-3.57-2.59,4.27,4.27,0,0,0-4.39,2.27,8.19,8.19,0,0,0-.75,2.37,10.48,10.48,0,0,0,.34,5,4.46,4.46,0,0,0,4.36,3.1,4.16,4.16,0,0,0,4.13-3c.1-.27.19-.56.32-.95l2.74.78a6.67,6.67,0,0,1-3.62,4.85,8.39,8.39,0,0,1-6.68.17,6.66,6.66,0,0,1-3.91-4.08,11.31,11.31,0,0,1-.16-7.84,7.84,7.84,0,0,1,10.82-4.41A6.49,6.49,0,0,1,185.67,148.34Z"/><path d="M244.65,148.34l-2.74.65c-.1-.22-.18-.39-.25-.56a3.87,3.87,0,0,0-3.7-2.65,4.34,4.34,0,0,0-4.42,2.51,9.42,9.42,0,0,0-.69,5.06,6.66,6.66,0,0,0,1.13,3.49c1.65,2.22,6.17,2.73,7.67-1,.15-.37.28-.75.45-1.2l1.32.34c.44.12.87.26,1.37.42a6.91,6.91,0,0,1-2.28,4,8.06,8.06,0,0,1-10.59-.85,8.91,8.91,0,0,1-2-4.88,11,11,0,0,1,.91-6.23,7.71,7.71,0,0,1,8.22-4,6.27,6.27,0,0,1,5.25,4C244.45,147.7,244.53,148,244.65,148.34Z"/><path d="M248.56,154.55c.08-.61.12-1.23.25-1.83.66-3.05,3-4.74,6.27-4.64a5.75,5.75,0,0,1,5.53,5,7.91,7.91,0,0,1-.4,4.28,5.76,5.76,0,0,1-6.31,3.6C250.46,160.47,248.55,158.13,248.56,154.55Zm2.67-.14a6.25,6.25,0,0,0,.82,3,3.1,3.1,0,0,0,5.38-.28,5.72,5.72,0,0,0,.11-4.93,3.12,3.12,0,0,0-5.75,0A13.85,13.85,0,0,0,251.23,154.41Z"/><path d="M215.29,148.4h2.64c-.08.28-.13.5-.21.72-1.56,4.22-3.11,8.45-4.69,12.66a13.16,13.16,0,0,1-1.1,2.34,3.85,3.85,0,0,1-4.51,1.4.61.61,0,0,1-.32-.4c-.09-.58-.13-1.16-.2-1.81l1.17.07a2,2,0,0,0,2.05-1.15,2.89,2.89,0,0,0,.21-2.66c-1.41-3.47-2.69-7-4-10.49-.07-.2-.13-.41-.24-.72.87,0,1.67,0,2.47,0,.47,0,.47.37.57.66.88,2.49,1.74,5,2.61,7.48a2.17,2.17,0,0,0,.46.83Z"/><path d="M281,148.4h2.35l.11,1.48.59-.52a4.84,4.84,0,0,1,5.28-.9c1.67.64,2.2,2,2.22,3.69,0,2.37,0,4.75,0,7.12v1.36h-2.61v-.88c0-2,0-4.05,0-6.07a10.29,10.29,0,0,0-.26-2.07,1.73,1.73,0,0,0-1.46-1.34,2.78,2.78,0,0,0-3.39,2.1,8.63,8.63,0,0,0-.2,1.76c0,1.89,0,3.78,0,5.66v.85H281Z"/><path d="M265.09,148.4h2.65v1l0,6.56a4.58,4.58,0,0,0,0,.64c.16,1.37.82,2.1,2,2.2A2.6,2.6,0,0,0,272.7,157a14,14,0,0,0,.33-3c.05-1.57,0-3.13,0-4.7v-.94h2.57v12.21h-2.3l-.09-1.67c-.25.26-.4.44-.57.6a4.67,4.67,0,0,1-5.15,1.08c-1.74-.6-2.33-2-2.36-3.68-.05-2.29,0-4.58-.05-6.87Z"/><path d="M307.14,152.24l-2.49.41c-.1-.26-.18-.45-.25-.65a2.33,2.33,0,0,0-1.95-1.71,2.61,2.61,0,0,0-2.82,1.15,6.52,6.52,0,0,0-.75,2.1,6.24,6.24,0,0,0,.41,3.49,2.71,2.71,0,0,0,2.81,1.76,2.51,2.51,0,0,0,2.42-2c.07-.2.12-.4.2-.68l2.53.37a5.16,5.16,0,0,1-1.73,3.26c-1.95,1.77-6.21,1.79-8-.58a8.14,8.14,0,0,1-1.17-2.45,8,8,0,0,1,.18-5.08,5.08,5.08,0,0,1,4.53-3.5,6.21,6.21,0,0,1,3.32.44A4.58,4.58,0,0,1,307.14,152.24Z"/><path d="M201.14,148.36h2.09v2l-2,.11c0,.26-.06.49-.06.72,0,2,0,3.93,0,5.9a3.85,3.85,0,0,0,0,.48c.07.84.35,1.08,1.2,1,.27,0,.53-.08.88-.13l.28,2.11a5.38,5.38,0,0,1-3.69,0,2,2,0,0,1-1.22-1.6,8.72,8.72,0,0,1-.15-1.53c0-2,0-4,0-6.06v-.91l-1.46-.11v-2l1.46-.09a8.29,8.29,0,0,0,0-1.41,1.68,1.68,0,0,1,1.18-2,10.62,10.62,0,0,0,1.27-.72s.1,0,.23,0Z"/><path d="M321.72,160.64h-2.59v-16.9h2.59Z"/><path d="M193,160.64h-2.51V148.43H193Z"/><path d="M311.32,148.4h2.52v12.23h-2.52Z"/><path d="M193,146.29h-2.5v-2.56H193Z"/><path d="M311.3,143.71h2.53v2.57H311.3Z"/><path d="M372.19,147.68c-1.18-.62-2.23-1.15-3.26-1.73a.83.83,0,0,1-.37-.63c0-2.69,0-5.39.05-8.09a5.56,5.56,0,0,1,.5-2,1,1,0,0,1,1.83-.3,3.86,3.86,0,0,1,.85,1.53,12.8,12.8,0,0,1,.45,2.87c.06,2.59,0,5.18,0,7.77C372.26,147.23,372.22,147.38,372.19,147.68Zm-1.93-12-.24,0a5.18,5.18,0,0,0-.28,1.21c-.06,2.58-.08,5.16-.09,7.74a.76.76,0,0,0,.27.53c.35.23.75.39,1.19.62a4.21,4.21,0,0,0,.05-.49c0-2,0-4,0-6.05a14.77,14.77,0,0,0-.41-2.54A4.94,4.94,0,0,0,370.26,135.72Z"/><path d="M348.26,147.65c0-3.48,0-6.84.11-10.19a4.78,4.78,0,0,1,.45-1.63,3,3,0,0,1,.68-1,1,1,0,0,1,1.73.3,8.06,8.06,0,0,1,.61,2.64c.08,2.48,0,5,0,7.44,0,.21-.07.55-.22.63C350.54,146.47,349.42,147,348.26,147.65Zm1.94-12a4.79,4.79,0,0,0-.5,1,12.21,12.21,0,0,0-.4,2.38c-.05,2.07,0,4.14,0,6.22,0,.17.05.34.08.59a9.9,9.9,0,0,1,.93-.46c.4-.15.48-.43.48-.82,0-2.24,0-4.47,0-6.7A3.71,3.71,0,0,0,350.2,135.64Z"/><path d="M383.78,148.84c-1.19-.61-2.26-1.16-3.32-1.75a.68.68,0,0,1-.3-.5c0-2.88,0-5.76.11-8.64a4,4,0,0,1,.39-1.47,1.12,1.12,0,0,1,2-.29,2.84,2.84,0,0,1,.63,1.12,12.52,12.52,0,0,1,.5,2.76c.07,2.78,0,5.55,0,8.33C383.83,148.5,383.8,148.61,383.78,148.84Zm-2-12.06a4.61,4.61,0,0,0-.54,2.39c0,2.05,0,4.09,0,6.13,0,1.09.25,1.37,1.43,1.55a1.76,1.76,0,0,0,0-.31c0-2.18,0-4.36,0-6.54a10.59,10.59,0,0,0-.4-2.21A5.14,5.14,0,0,0,381.79,136.78Z"/><path d="M336.59,148.85c0-.34,0-.53,0-.71,0-2.56-.05-5.12,0-7.68a19.88,19.88,0,0,1,.44-2.94,3,3,0,0,1,.29-.75c.33-.58.71-1.11,1.48-1s1,.67,1.15,1.28a9.74,9.74,0,0,1,.28,2c0,2.43,0,4.85,0,7.27a1,1,0,0,1-.6,1C338.65,147.75,337.69,148.28,336.59,148.85Zm2.22-11.91-.37-.05a6.89,6.89,0,0,0-.57,1.79c-.11,2.71-.13,5.42-.17,8.13,0,0,0,0,.1.14.29-.14.58-.3.89-.43a.73.73,0,0,0,.45-.77c0-2.32,0-4.63,0-6.95A12,12,0,0,0,338.81,136.94Z"/></svg>