<svg id="Layer_1" data-name="Layer 1" xmlns="http://www.w3.org/2000/svg" viewBox="0 0 434.04 244.15"><defs><style>.cls-1{fill:#159553;}.cls-2{fill:#e12033;}</style></defs><title>client logos</title><path class="cls-1" d="M153.31,118.73q0-31.8,0-63.61c0-3.55,1.41-6.14,4.63-7.71a10.55,10.55,0,0,1,4.77-.78h102c2.53,0,5.06,0,7.59,0a8.13,8.13,0,0,1,8.46,8.16c0,.45,0,.9,0,1.34V182a9.58,9.58,0,0,1-.92,5,7.68,7.68,0,0,1-4.48,3.77,16.26,16.26,0,0,1-4.82.77q-53.77,0-107.57,0a16.86,16.86,0,0,1-4-.52c-3.37-.83-5.3-4.26-5.66-7.3a16.66,16.66,0,0,1,0-2Zm124.25,37.09a5.49,5.49,0,0,0,.31-2.69q0-48.09,0-96.18c0-.52,0-1,0-1.56-.3-3.32-1.62-5.8-6.07-5.82-28.26-.08-56.52.29-84.78-.18-7.44-.12-14.88,0-22.32,0a28,28,0,0,0-2.89.15c-4.17.43-5.61,2-5.62,6.17V83.15q0,34.92,0,69.85c0,.92-.32,1.94.45,2.82Zm-90.21,25.41V162.72c-2.26-.39-2.7-.37-4.42.19v10.92a6.56,6.56,0,0,1-2.07-2c-2.1-2.7-4.19-5.39-6.28-8.1-.36-.47-.67-1.13-1.28-1.16-1.52-.08-3.07-.41-4.61.31v8.07c0,3,0,5.94,0,8.92,0,.88.07,1.77,1.13,1.83s2.38.42,3.43-.63c0-1.75,0-3.53,0-5.31a39.32,39.32,0,0,1,.13-5.51,2.25,2.25,0,0,1,1.59,1.11q3.39,4.28,6.76,8.56C183.36,182,184.64,182.26,187.35,181.23Zm4.55-18.61v18.67a2.64,2.64,0,0,0,.85.35c4.31.05,8.62.1,12.93.06,1.18,0,1.41-.48,1.38-2s-.29-1.86-1.54-1.9c-2-.06-4,0-6,0-.87,0-1.79.26-2.67-.36a7.63,7.63,0,0,1,0-3.93h8.64c-.05-1.42.28-2.53-.42-3.81h-8a3.69,3.69,0,0,1-.13-3.3H206c-.21-1.41.11-2.51-.3-3.7Zm50.15.07a7.64,7.64,0,0,0-.21,2.66c0,3,0,6.09,0,9.13,0,2.17-1.06,3.13-3.16,3.1-2.29,0-3.18-.86-3.24-3.28-.08-3.19,0-6.39,0-9.58a2.62,2.62,0,0,0-.45-2.1,9.86,9.86,0,0,0-4.25.2c0,4.48-.08,8.91,0,13.34a5.24,5.24,0,0,0,2.06,3.57c2.22,2,4.87,2,7.56,1.75a6.67,6.67,0,0,0,6.21-5.91c.51-3.77.11-7.56.22-11.34a1.73,1.73,0,0,0-.42-1.58A12.32,12.32,0,0,0,242.05,162.69Zm23.34,3.24a10.66,10.66,0,0,0-12.26-2.5,5.84,5.84,0,0,0-2.85,6.41,5,5,0,0,0,3.86,3.6,28.12,28.12,0,0,0,5.24,1,1.64,1.64,0,0,1,1.59,1.34c.16.88-.44,1.35-1.14,1.7a3.71,3.71,0,0,1-2.56.43,10.32,10.32,0,0,1-4.75-2.2l-3.15,2a1.25,1.25,0,0,0,.5,1.15c2.72,2.71,8.79,3.77,12.28,2.15a6.48,6.48,0,0,0,3.76-6c-.3-2.71-1.6-4-4.87-4.62-1.38-.27-2.77-.5-4.16-.68-1-.14-1.68-.54-1.85-1.54.32-1.49,1.33-1.84,2.67-1.84a6.06,6.06,0,0,1,3.45,1.38c.67.46,1.34.78,2,.3S265,167.07,265.39,165.93Zm-49.12,5.7-5.85,9.73a19.87,19.87,0,0,0,5.32.08c1.2-1.69,1.72-3.77,3.26-5.48,1.46,1.69,2.08,3.71,3.31,5.53,1.61,0,3.27.33,5-.17a2.47,2.47,0,0,0-.12-.75c-1.55-2.54-3.08-5.08-4.68-7.57a2,2,0,0,1,0-2.62,41.19,41.19,0,0,0,2.95-4.44,13.71,13.71,0,0,0,1.88-3.3,19.43,19.43,0,0,0-5-.1c-1.17,1.63-1.82,3.56-3.34,5-1.63-1.45-2-3.6-3.44-5-1.6.06-3.2-.32-5,.29Z"/><path class="cls-1" d="M217.12,99.29c1.18-1.62,3.07-2.25,4.64-3.3,3.05-2,6.2-3.92,9.32-5.85a4,4,0,0,1,2-.81,108.13,108.13,0,0,1,9.61,6.38c2.07,1.45,3.83,3.33,4.23,6a8.43,8.43,0,0,1-4.12,8.9c-3,1.93-5.95,3.85-8.74,6a25.13,25.13,0,0,0-5.07,3.12c-3.52,2.4-7.19,4.58-10.51,7.27-2.93,1.57-5.57,3.61-8.32,5.45-6.22,4.14-12.41,8.31-18.62,12.45a7.65,7.65,0,0,1-1.21.53,14.14,14.14,0,0,0,1.46-6.17c.07-3.46-3.17-7-5.89-7.84-1.83-.6-3.67-.22-5.5-.46,1.62-1.66,3.73-2.61,5.64-3.85,5.13-3.32,10.35-6.5,15.52-9.75a11.64,11.64,0,0,0,1-.85c2.49-1,4.56-2.71,6.82-4.07s4.4-2.7,6.57-4.09a23.91,23.91,0,0,0,2.45-1.9c1.74-.49,3-1.68,4.7-2.86C221.3,101.73,219.09,100.67,217.12,99.29Z"/><path class="cls-1" d="M216.85,78.52c-.44,1.07-1.57,1.3-2.38,1.87-3.86,2.7-7.81,5.28-11.73,7.87a8.18,8.18,0,0,1-1.42.6L184.78,78c-2.73-1.79-5.41-3.64-8.19-5.35-4.27-2.63-4.48-7.8-3.13-11a8.73,8.73,0,0,1,10.35-4.79c2.93.87,5.21,2.81,7.68,4.43q10,6.62,19.94,13.41C213.25,75.93,215.27,76.92,216.85,78.52Z"/><path class="cls-2" d="M255.3,74.52c-1.57,1.74-3.72,2.64-5.64,3.88-5.16,3.33-10.39,6.55-15.6,9.81-.44.28-.93.49-1,1.12a4,4,0,0,0-2,.81C228,92.07,224.81,94,221.76,96c-1.57,1.05-3.46,1.68-4.64,3.3-1.89.34-3.15,1.65-4.69,2.88,1.92,1.79,4.2,2.74,6,4.33a23.91,23.91,0,0,1-2.45,1.9c-2.17,1.39-4.37,2.75-6.57,4.09s-4.33,3.08-6.82,4.07c-3.43-1.94-6.56-4.34-9.84-6.5a10.06,10.06,0,0,1-4.17-5.6c-1.15-3.69,1-7.59,4.06-9.5,2.63-1.65,5.21-3.4,7.81-5.11a2.45,2.45,0,0,0,.87-1,8.18,8.18,0,0,0,1.42-.6c3.92-2.59,7.87-5.17,11.73-7.87.81-.57,1.94-.8,2.38-1.87,1.7-.42,3-1.65,4.34-2.58,8.14-5.42,16.22-10.92,24.33-16.38.1-.07.28,0,.43,0-1.91,2.81-2.78,5.78-1.72,9.18,1,3.23,4.45,6.06,7.53,5.76A34.85,34.85,0,0,1,255.3,74.52Z"/><path class="cls-2" d="M218.5,127.05c3.32-2.69,7-4.87,10.51-7.27a25.13,25.13,0,0,1,5.07-3.12c8.21,5.45,16.43,10.87,24.62,16.35,3.74,2.5,4.83,5.34,3.9,9.76-1,4.68-6.92,7.8-11.38,6-2.52-1-4.58-2.73-6.79-4.19-7.92-5.22-15.79-10.52-23.67-15.8A7.58,7.58,0,0,1,218.5,127.05Z"/><path class="cls-2" d="M180.42,131c1.83.24,3.67-.14,5.5.46,2.72.88,6,4.38,5.89,7.84a14.14,14.14,0,0,1-1.46,6.17,11.12,11.12,0,0,1-4.2,2.83,9,9,0,0,1-10.83-3.18,8.93,8.93,0,0,1,.68-11.25A9.83,9.83,0,0,1,180.42,131Z"/><path class="cls-1" d="M255.3,74.52a34.85,34.85,0,0,0-3.54,0c-3.08.3-6.53-2.53-7.53-5.76-1.06-3.4-.19-6.37,1.72-9.18,2.63-2.37,5.61-3.61,9.16-2.5a8.86,8.86,0,0,1,6.4,6.75,8.7,8.7,0,0,1-2.84,8.66A7.25,7.25,0,0,1,255.3,74.52Z"/></svg>