<svg id="Layer_1" data-name="Layer 1" xmlns="http://www.w3.org/2000/svg" viewBox="0 0 115 54"><defs><style>.cls-1{fill:#565555;}</style></defs><title>grey</title><path class="cls-1" d="M28.41,14.06a3.37,3.37,0,0,0-2.85-1.38H21.81l1-4.36H18.45L14.19,26.17h4.37l2.33-9.77H24a.69.69,0,0,1,.57.26.83.83,0,0,1,.15.6l-2.16,8.91h4.38l2.14-8.91A3.7,3.7,0,0,0,28.41,14.06Z"/><polygon class="cls-1" points="31.67 12.65 28.33 26.17 32.75 26.17 36.03 12.65 31.67 12.65"/><polygon class="cls-1" points="16.79 8.36 0.99 8.36 0 12.42 5.9 12.42 2.41 26.2 6.63 26.2 10.07 12.42 15.78 12.42 16.79 8.36"/><polygon class="cls-1" points="37.12 8.32 32.76 8.32 31.94 11.49 36.3 11.49 37.12 8.32"/><polygon class="cls-1" points="53.22 26.17 54.44 20.09 56.75 26.18 60.69 26.18 58.05 19.33 63.98 12.69 59.25 12.69 55.23 17.2 57.54 8.32 53.2 8.32 48.94 26.17 53.22 26.17"/><path class="cls-1" d="M55.31,27.83H44.66c-1.74,0-3,1-3.67,3l-3.64,14.9h4.19l1.19-4.91H50.3l-1.21,4.91h4.22L57.09,30.1A1.83,1.83,0,0,0,55.31,27.83Zm-4,8.84H43.72l1.05-4.31A.64.64,0,0,1,45,32a.46.46,0,0,1,.29-.12h7.17Z"/><polygon class="cls-1" points="87.26 27.83 82.9 27.83 82.08 31 86.44 31 87.26 27.83"/><path class="cls-1" d="M41.07,16.42H44.3a.64.64,0,0,1,.57.27.81.81,0,0,1,.14.59l-2.23,8.89h4.34l2.23-8.89a3.63,3.63,0,0,0-.63-3.18,3.31,3.31,0,0,0-2.81-1.38H37.63L34.35,26.17h4.34Z"/><path class="cls-1" d="M96.46,32.3l-4.28,9.54H89.54L92,32.23H87.69L84.4,45.68h8.19l.7-.14a5.13,5.13,0,0,0,1.49-.66,4.88,4.88,0,0,0,1.55-1.63l4.75-11Z"/><path class="cls-1" d="M75.34,41.7a.78.78,0,0,1-.16-.59c0-.12.11-.44.22-.94s.27-1.07.41-1.69.3-1.18.4-1.64.17-.72.17-.72h3.15l1-3.9H77.32c0-.09.23-.85.58-2.26s.55-2.13.55-2.13H74.16L70.89,41.11a3.82,3.82,0,0,0,.65,3.2,3.31,3.31,0,0,0,2.79,1.37h2.89l.9-3.71H75.89A.62.62,0,0,1,75.34,41.7Z"/><polygon class="cls-1" points="81.81 32.17 78.47 45.68 82.89 45.68 86.17 32.17 81.81 32.17"/><path class="cls-1" d="M62.4,41.85q-2.71,0-1.82-3.12a3.74,3.74,0,0,1,1.28-1.91,4.1,4.1,0,0,1,2.57-.88h6.46l.89-3.68H64.11a7.93,7.93,0,0,0-7.38,10.5,4.44,4.44,0,0,0,1.49,2,5.28,5.28,0,0,0,2.9.86l7.42,0,.92-3.83H62.4Z"/><path class="cls-1" d="M107,44.37h.42l.16-.68h0l0-.21h-.31a.62.62,0,0,0-.4.13.55.55,0,0,0-.19.29C106.65,44.21,106.74,44.37,107,44.37Z"/><path class="cls-1" d="M114.78,33.44a3.14,3.14,0,0,0-2.67-1.18h-4.38a7.95,7.95,0,0,0-7.38,10.5,4.39,4.39,0,0,0,1.5,2,5.21,5.21,0,0,0,2.89.86l8,0,.92-3.83H106c-1.72-.05-2.33-1.1-1.83-3.12a3.8,3.8,0,0,1,1.28-1.91,4.1,4.1,0,0,1,2.57-.88h2.74l-.28,1.11h-3a2.05,2.05,0,0,0-1.65,1,3.16,3.16,0,0,0-.55,1.75c0,.59.23.92.67,1h7.85l1.18-4.81,0-.14A3,3,0,0,0,114.78,33.44Zm-3.12,10.74h-.29a.62.62,0,0,1-.47-.19.65.65,0,0,1-.1-.53.77.77,0,0,1,.89-.54h1.11l-.13.53h-1.08c-.08,0-.13,0-.14.09s0,.08,0,.1l.17,0h.26a.56.56,0,0,1,.49.21.72.72,0,0,1,.06.52.69.69,0,0,1-.81.57h-1.19l.13-.55h1c.11,0,.18,0,.2-.1S111.79,44.17,111.66,44.18Zm-2.18-1.92-.15.67h.46a.85.85,0,0,1,.44.13.7.7,0,0,1,.22.31A1.19,1.19,0,0,1,109.34,45h-1.16l.13-.55h1a.62.62,0,0,0,.39-.14.49.49,0,0,0,.19-.28q.13-.46-.27-.48h-.41l-.19.71h-.64l.48-2Zm-3.25,1.31a1.18,1.18,0,0,1,1-.65h1.16l-.49,2h-1.12a.74.74,0,0,1-.44-.13.64.64,0,0,1-.23-.3A1.17,1.17,0,0,1,106.23,43.57Zm-2-1.19a.61.61,0,0,1,.37-.12h.19l-.48,2a.14.14,0,0,0,0,.06.09.09,0,0,0,.06,0H106a.31.31,0,0,1,0,.08c0,.06,0,.13,0,.2s0,.15-.06.21a.63.63,0,0,1,0,.13h-1.6a.57.57,0,0,1-.46-.21.53.53,0,0,1-.12-.48l.38-1.56A.53.53,0,0,1,104.24,42.38Z"/></svg>