<svg id="Layer_1" data-name="Layer 1" xmlns="http://www.w3.org/2000/svg" viewBox="0 0 434.04 244.15"><defs><style>.cls-1{fill:#737373;}</style></defs><title>client logos</title><path class="cls-1" d="M262.36,92.65a4.92,4.92,0,1,1-4.92-4.92,4.92,4.92,0,0,1,4.92,4.92Z"/><path class="cls-1" d="M149,152l-20.29-62h-9.66L98.62,152.79h7.81l5.51-18h21.93l6.19,18h9.22Zm-34.52-24.23,8.65-26.86,8.66,26.86Z"/><path class="cls-1" d="M191.29,152.8H181.6l-11.22-18-11.52,18h-8.45l15.77-24.34-14.27-22.53h9.7l9.33,15,9.63-15h8.35l-13.66,21Z"/><path class="cls-1" d="M262,105.93V152.8h-8.37V105.93Z"/><path class="cls-1" d="M195.41,152.8V105.93h7.73v0h.64V152.8Z"/><path class="cls-1" d="M249.19,105.93,233,152.8h-8.22L208,105.93h9.23l12.23,35.71,12.09-35.71Z"/><path class="cls-1" d="M277.65,150.41c-2.35-2.47-3.48-6.11-3.48-10.81V112.77H266.1v-6.84h8.25V98.39h8v7.54h8.79v6.84h-8.79v28c.1,4.45,2,6.31,6.67,6.4h2.12v6.88H288c-4.51,0-8-1.19-10.39-3.65Z"/><path class="cls-1" d="M303.9,169.14a23.28,23.28,0,0,1-6.27-1l-.47-.14v-6.84l.79.18a20.74,20.74,0,0,0,4.59.62,7.81,7.81,0,0,0,5.25-1.79c1.3-1.08,2.82-4.1,4.29-9l-16-45.31h8.56l11.8,33,12-33h6.43v0h.91L317.2,157.71c-2.66,7.45-7.15,11.43-13.25,11.43Z"/><path class="cls-1" d="M204.52,92.72a4.92,4.92,0,1,1-4.92-4.92,4.92,4.92,0,0,1,4.92,4.92Z"/><path class="cls-1" d="M199.6,83.68A9.31,9.31,0,0,0,190.3,93h1.28a8,8,0,1,1,16,0h1.28a9.32,9.32,0,0,0-9.31-9.32Z"/><path class="cls-1" d="M199.61,79.3A13.69,13.69,0,0,0,185.91,93h1.29A12.41,12.41,0,1,1,212,93h1.28a13.69,13.69,0,0,0-13.69-13.7Z"/><path class="cls-1" d="M199.61,75.55A17.44,17.44,0,0,0,182.17,93h1.28a16.16,16.16,0,1,1,32.31,0H217a17.44,17.44,0,0,0-17.43-17.45Z"/></svg>