<svg id="Layer_1" data-name="Layer 1" xmlns="http://www.w3.org/2000/svg" viewBox="0 0 434.04 244.15"><defs><style>.cls-1{fill:#737373;}</style></defs><title>client logos</title><path class="cls-1" d="M182.53,175.08l-.68-.47.08-.25a20.36,20.36,0,0,0,3.58-1.31,31.56,31.56,0,0,1,3.36-1.42,19.06,19.06,0,0,1,4.38-1.55c.84-.15,1.36-.88,2.27-.82a4.81,4.81,0,0,0,2-.43,6.17,6.17,0,0,0,1.87-.72,6.84,6.84,0,0,1,2.18-.59c.21-.05.38-.25.57-.37a.76.76,0,0,1,.25-.16c1-.17,2-.31,2.93-.51.23,0,.4-.33.76-.63.83-.17,2-.34,3.08-.65a11.55,11.55,0,0,0,3.75-1.4c.73-.55,1.42-.05,2-.49.21-.15.8,0,.42-.56a.41.41,0,0,1,.19-.18,6.77,6.77,0,0,1,1.56-.36c.31,0,.59.36,1,.17a11.23,11.23,0,0,1,1.4-.39l-.43-.18c.63-.57,2.1-.84,2.3-.42.22-.41.39-.7,1-.42.27.12.82-.12,1.12-.35a3.35,3.35,0,0,1,2.37-.74l-.43.36a1.67,1.67,0,0,0,.39,0l3.95-1.14c.09,0,.26,0,.27-.07.26-1,1-.61,1.64-.58s1-.12,1.55-.21c.09,0,.15-.2.23-.31.67-.29,1.34-.6,2-.87.1,0,.27.15.41.19s.62.2.7.1c.31-.37.61-.26,1-.18s.9.09,1-.6c0-.17.49-.34.78-.42,1.08-.3,2.17-.57,3.26-.84a.63.63,0,0,1,.53.16l-2,.56.05.18c1.82-.06,3.44-1.05,5.24-1.3l-.9-.22,4.81-1.21.06.22-1.91.6.08.27,4.87-1.25,0-.18-1.87.29,0-.21,3.2-.66.05.21-.45.23,0,.12a19.11,19.11,0,0,0,2-.22c1.11-.26,2.2-.61,3.31-.9a4,4,0,0,1,1-.11c1,0,1.87-.63,2.94-.45.51.09,1.1-.27,1.67-.41a50.2,50.2,0,0,1,5.23-1.23c1.66-.22,3.3-.53,4.94-.87,1-.21,2-.29,3-.44,1.36-.2,2.72-.39,4.07-.61q2.89-.49,5.78-1c1-.17,1.91-.4,2.87-.56s1.76-.22,2.65-.3,1.83-.11,2.73-.24c1.45-.2,2.89-.47,4.34-.69.59-.09,1.2-.09,1.8-.2.83-.15,1.65-.39,2.49-.52.57-.09,1.16,0,1.74-.1,1.24-.15,2.47-.36,3.7-.52s2.7-.32,4-.51a4.26,4.26,0,0,0,.85-.29h.19a5.07,5.07,0,0,0,2.65-.05,40.13,40.13,0,0,1,5.25-.57,22.15,22.15,0,0,0,2.9-.38c.49-.05,1.07.14,1.49-.06.88-.41,1.77-.14,2.65-.25,1.31-.17,2.64-.19,3.95-.32,1.12-.11,2.22-.3,3.34-.43.4,0,.82,0,1.23,0,1.37-.11,2.74-.24,4.11-.37a11.64,11.64,0,0,0,3.59-.43c1.18-.53,2.23.31,3.31-.15a8.84,8.84,0,0,1,4.06-.53c1.75.12,3.46-.44,5.22-.13a23.58,23.58,0,0,0,3.47,0,19.19,19.19,0,0,1,3.57.27,12.79,12.79,0,0,1,2.86,1.28c.19.09.24.44.35.67v.43a19,19,0,0,1-2.36,1.15c-1.4.49-2.85.88-4.29,1.24-.66.16-1.37.12-2,.24s-1.29.4-2,.49c-1,.13-2,.16-3,.24a10.15,10.15,0,0,0-1.34.14,11.72,11.72,0,0,0-1.54.43c-.14.05-.24.25-.35.38l.13.23c-1.11.09-2.22.26-3.33.24a6.3,6.3,0,0,1-1.54-.57,7.36,7.36,0,0,0-1.83-.39c.43,1.11,1.48,1.14,2.32,1.49-.57.61-1.06.54-1.93-.38-.33.3-.62.74-1,.89a5.14,5.14,0,0,1-1.67.18c-.68,0-1.36-.13-2-.09-.32,0-.54.32-1,.25a31.85,31.85,0,0,0-3.53-.15c-.33,0-.66-.09-1-.13l-.1.2.51.43s0,.09-.07.09l-2.91.25c-.71,0-1.42.11-2.13.13a5.34,5.34,0,0,1-1.26-.13c-.37-.07-.72-.28-1.06.1-.07.08-.28,0-.43,0a6.35,6.35,0,0,0-1.14-.1,17.34,17.34,0,0,0-1.75.39l.15.45c-1,.06-2,.86-3.13.11a3.12,3.12,0,0,0-1-.26h-.1a1.11,1.11,0,0,0-1.12-.3A3.54,3.54,0,0,1,319,149c-.25-.07-.41-.45-.61-.69l.13-.18-1.54.09.5-.62c-.23-.11-.46-.31-.66-.28-1.07.12-2.13.33-3.2.45-.76.09-1.53.06-2.3.11-.45,0-.92-.06-1.27.44a1,1,0,0,1-.87.28,5.11,5.11,0,0,0-2.57.24,13.68,13.68,0,0,1-2.56.2c-.69,0-1.37,0-2.05,0a5.07,5.07,0,0,1-.79-.15l-.91.3-.14.14c-.48.1-1,.17-1.44.31a5.85,5.85,0,0,0-.88.41h-1l-.59.21a3,3,0,0,1,.55.5,1.32,1.32,0,0,1,.1.51l-1.44.18.08-.41c-.27.31-.78-.12-.84.56a4.45,4.45,0,0,1-1.41.19q-1.44.1-2.88.15a.68.68,0,0,1-.53-.35l1.94-.36,0-.24-3.64.22.15.68.76.11v.12l-1.32.26a1.78,1.78,0,0,0-.11-.52c-.08-.14-.26-.34-.37-.33-1,.12-1.94.28-2.92.43l-.07,0a5.53,5.53,0,0,0-2.42.21l-3.73.74c-.61.12-1.23.23-1.85.32-1.08.17-2.17.32-3.25.48a9.3,9.3,0,0,1-1.63.24c-1.29,0-2.53.77-3.84.22-.09,0-.26.14-.4.17s-.19-.07-.29-.1l.41-.37-1.36-.43-.16.36.74.44.61.84c-.8,0-1.48,0-2.16,0a.89.89,0,0,0-.57.24c-.49.5-.75.52-1.17.09L262,156l.3.42c-.55.05-1,.28-1.57-.09a2.4,2.4,0,0,0-1.64,0,6.86,6.86,0,0,0-2.34.82,2.68,2.68,0,0,1-1.64.3c-.3,0-.59.18-.89.2a7.74,7.74,0,0,1-1.11-.09c.42-1,.77-1.11,1.61-1a3.12,3.12,0,0,0,1.09-.34l-.08-.27a11.41,11.41,0,0,0-2.43.52c-.46.19-.74.8-1.1,1.21-.12.13-.29.37-.37.34-.6-.19-1,.26-1.43.46a7.07,7.07,0,0,1-1.22.33l-.14-.3.94-.65c-1-1-2.55-1-2.8-.2-.55.15-1.06.46-1.48.38-.82-.18-1.48.28-2.22.35-1.14.09-2.29.2-3.47.31l.26.83h-1.86a.57.57,0,0,0,.82.46,7.76,7.76,0,0,1,.82-.25c.64-.12,1.29-.2,1.94-.3s1.53-.2,2.28-.37c.51-.12,1-.4,1.48-.56.11,0,.28.1.42.15l.08.32.54-.38-.09-.16,1.13-.11,0,.13-.3.18c.2.12.39.25.79.52-.73.14-1.25.29-1.78.34a2.69,2.69,0,0,0-1.67.44c-.33.26-.95.15-1.43.25-1.07.2-2.13.46-3.2.62-.69.1-1.4,0-2.09.09-1.24.18-2.46.45-3.69.67-.45.09-.9.14-1.44.23l.12-.61-1.18-.34L232,161l.79.52-.68.39.34.2-.92.27-.33-.92.69-.25c-.47-.1-.78-.43-1,.19,0,.17-.4.24-.74.43l.89.18c-.06.31-.14.67-.81.64a9.69,9.69,0,0,0-1.66.26,1.86,1.86,0,0,1-.52-.07l0-.21,1.6-.39v-.14l-1.09-.24v-.14l.65-.11c-.76,0-1.59-.56-2.16.26l.85,1.42-1.83.46a7.11,7.11,0,0,1-.9.26,1.86,1.86,0,0,1-1.5-.21.89.89,0,0,0-.76-.13,2.74,2.74,0,0,1-2,.23l2.62-.88,0-.19c-.18-.05-.37-.17-.53-.14a7.65,7.65,0,0,0-1.77.51c-.25.11-1,0-.67.71-.18.77-1,.28-1.35.64-.09.08-.26.07-.45.11l.54.61-.69.08-.72-.13a.63.63,0,0,0-.92.15c-.25.29-.8.32-1.2.59h.61c-.18.46-.34.59-.67.32a1.34,1.34,0,0,0-1.61-.05,2.5,2.5,0,0,1-1.81.36c-.55-.11-1.19.29-1.79.43-.31.07-.64.07-1,.11l1.35-.71c-1.07-.41-1.85-.16-2,.62l.62.07a4.6,4.6,0,0,1-1.08.69c-1.15.35-2.34.61-3.5.91l-2.5.68-.07-.16.36-.38c-.51.05-.89.31-1.37-.07s-.81.21-1.11.57c-.08.1-.26.24-.32.21a1.9,1.9,0,0,0-2,.28c-.13.09-.38,0-.57,0l-2,.5.06.18,1.89-.28.05.18a4.21,4.21,0,0,1-.55.3c-1.26.44-2.51.89-3.78,1.3a27.39,27.39,0,0,0-3.4,1.06,9.93,9.93,0,0,1-3,.84h0l.23-.4-.08-.15-1.75.82-.89.32A1.64,1.64,0,0,0,182.53,175.08Zm80.22-21.35c.59-.34.74,1.07,1.33.34.67.39,1.07-.19,1.59-.39l-.85-.17.55-.45-.05-.2c-.7.09-1.41.14-2.1.29C263,153.2,262.9,153.53,262.75,153.73Zm-59.49,14.39c.34.71.83.5,1.34.25.14-.07.33-.05.45-.14a3.12,3.12,0,0,0,.44-.45c-.19-.08-.41-.25-.58-.21A16.79,16.79,0,0,0,203.26,168.12Zm9.35-2.05c.74-.22,1.59.22,2.07-.82C213.93,165.52,213.11,165.19,212.61,166.07Zm54.95-12.83-.06.32c.61.1,1.2.47,1.85-.08Zm-50.1,10.93-1.8.63.1.25A1.79,1.79,0,0,0,217.46,164.17ZM236,159.52c.53.62,1,.42,1.54.21C237.26,159.42,237.26,159.42,236,159.52ZM194.87,171l-.06-.29-1.68.38.06.28Zm98.89-20.12-.8-.09-.35.62C293.06,151.32,293.61,151.63,293.76,150.83Zm-2.24-1.52-.21-.13-.89.17.55.76Z"/><path class="cls-1" d="M126.1,154.68c-1-1.08-2-2.08-2.93-3.12a1.21,1.21,0,0,1-.19-.74c0-1.52,0-3,0-4.63h-5.19c0,1.45,0,2.89,0,4.33a1.72,1.72,0,0,1-.57,1.4c-.9.84-1.74,1.75-2.72,2.75-1-1.07-2-2.06-2.92-3.08a1.15,1.15,0,0,1-.19-.72c0-1.55,0-3.09,0-4.69h-5.22c0,1.42,0,2.84,0,4.26a1.86,1.86,0,0,1-.7,1.63c-.87.75-1.64,1.62-2.5,2.5-1.06-1.06-2.06-2-3-3.06a1.23,1.23,0,0,1-.19-.73c0-1.52,0-3,0-4.6H94.57c0,1.43,0,2.86,0,4.28a2,2,0,0,1-.68,1.64c-.83.77-1.59,1.63-2.41,2.48-1.13-1.11-2.19-2.13-3.21-3.17a1,1,0,0,1-.11-.62c0-1.52,0-3,0-4.61H83c0,1.41,0,2.8,0,4.2a1.94,1.94,0,0,1-.67,1.64c-.85.82-1.62,1.73-2.48,2.65-1.14-1.15-2.15-2.14-3.14-3.17a.92.92,0,0,1-.16-.6q0-16.93,0-33.88c0-.12,0-.24,0-.41h52.71c0,.23,0,.48,0,.74q0,16.68,0,33.37a1.75,1.75,0,0,1-.43,1.06C128.06,152.73,127.14,153.63,126.1,154.68Zm-14.76-12.05v-5.15h-5.11v5.15Zm-16.73,0h5.12v-5.12H94.61Zm23.22,0h5.08v-5.11h-5.08Zm-11.62-8.69h5.12v-5.09h-5.12Zm-11.59-5.09v5.1h5.11v-5.1Zm-6.49,13.82V137.5h-5v5.13Zm23.22-22.5h-5.14v5h5.14Zm-11.62,5.05v-5.05H94.61v5.05ZM83.08,128.8v5.11h5V128.8Zm34.74,5.09h5.1v-5.07h-5.1Zm5.1-8.7v-5h-5.09v5Zm-34.81,0v-5h-5v5Z"/><path class="cls-1" d="M129.36,115.42l-10.16-1.2a61.11,61.11,0,0,0-13.84-.47,31.13,31.13,0,0,1-5.38-.09,64.84,64.84,0,0,0-11.82.41q-5.62.65-11.25,1.33a1.19,1.19,0,0,1-.3-.05c.21-.74.39-1.45.62-2.16,1.3-3.93,1-7.91.39-11.92A19.36,19.36,0,0,1,78,92.35a12.45,12.45,0,0,1,9.17-8.86C90.43,82.63,93.7,81.85,97,81a17.26,17.26,0,0,0,2.7-1,8.6,8.6,0,0,0,3.29-2.43c2.42,2.59,5.62,3.42,8.85,4.21,2.61.64,5.24,1.22,7.79,2,5.21,1.65,7.94,5.46,8.83,10.69a25.05,25.05,0,0,1-.31,8.59,23,23,0,0,0,1,11.31C129.17,114.67,129.24,115,129.36,115.42Zm-9.59-17.71c0-.79,0-1.51,0-2.23s-.22-1-.92-1.1c-4.59-.84-9.17-1.75-13.76-2.58a9.46,9.46,0,0,0-3-.21c-2.44.35-4.86.87-7.28,1.33-2.71.52-5.41,1-8.12,1.57-.19,0-.5.22-.51.35,0,.93,0,1.87,0,2.81a1.26,1.26,0,0,0,.29,0l12.39-1.49a28.89,28.89,0,0,1,4.33-.44c1.73,0,3.46.39,5.19.59Z"/><path class="cls-1" d="M159.41,102.67h-4.57l.9-4.89h10.39c-.21,1.16-.41,2.28-.62,3.39-.66,3.62-1.32,7.24-2,10.85a1.5,1.5,0,0,1-.6.88,20,20,0,0,1-9.7,3.13,16.12,16.12,0,0,1-6.48-.52,11.5,11.5,0,0,1-8.31-10A22.42,22.42,0,0,1,141.18,91a17.54,17.54,0,0,1,13.25-8.68,18.55,18.55,0,0,1,7.71.17A19.27,19.27,0,0,1,165.41,84a.66.66,0,0,1,.26.57c-.52,1.53-1.08,3-1.63,4.58-.88-.4-1.69-.84-2.54-1.16a11.92,11.92,0,0,0-13.77,3.82,16,16,0,0,0-3.18,12.8c.59,3.79,3.23,6,7.07,6.32a9.43,9.43,0,0,0,6.1-1.41,1.18,1.18,0,0,0,.51-.56C158.64,106.89,159,104.82,159.41,102.67Z"/><path class="cls-1" d="M361.78,115.54h-5.62l.33-2a6.75,6.75,0,0,1-3.3,2.09,10.82,10.82,0,0,1-6.77-.37,7.36,7.36,0,0,1-4.74-5.9c-.81-5,.06-9.66,3.33-13.67a12.54,12.54,0,0,1,14-4c.44.17.86.4,1.36.64.69-3.61,1.37-7.19,2.05-10.79h5.48Q364.84,98.59,361.78,115.54Zm-14.35-9.83c0,.41,0,.83,0,1.23.19,1.68.65,3.25,2.36,4a4.92,4.92,0,0,0,5.2-.62,7.28,7.28,0,0,0,2.58-4.19c.63-2.51,1.07-5.06,1.63-7.58A1.57,1.57,0,0,0,358.8,97a3.36,3.36,0,0,0-2.2-1.17,7.5,7.5,0,0,0-7,2.88A10.79,10.79,0,0,0,347.43,105.71Z"/><path class="cls-1" d="M277.15,115.54c.33-1.78.65-3.49,1-5.2.63-3.35,1.28-6.7,1.89-10.06a6.58,6.58,0,0,0,.05-1.88,2.74,2.74,0,0,0-2.74-2.59,7.06,7.06,0,0,0-5.74,2.28,1.69,1.69,0,0,0-.36.84q-1.53,8.16-3.05,16.33c0,.07,0,.14-.07.26h-5.74c2-11.31,4.07-22.59,6.11-33.91h5.63c-.6,3.72-1.2,7.41-1.82,11.24a12.43,12.43,0,0,1,4.8-1.75,8.92,8.92,0,0,1,5.32.71,6.42,6.42,0,0,1,3.51,6.71c-.19,2.49-.72,5-1.16,7.44-.55,3.1-1.16,6.19-1.74,9.28,0,.09-.05.18-.08.3Z"/><path class="cls-1" d="M190.26,115.57c-1.24,0-2.38,0-3.52,0a2.15,2.15,0,0,1-1.86-1.32c-.16-.31-.31-.64-.49-1a9.83,9.83,0,0,1-5,2.59,11,11,0,0,1-5.25-.24,6.77,6.77,0,0,1-5-6.1,17.15,17.15,0,0,1,5.42-15A12.38,12.38,0,0,1,183,91a29,29,0,0,1,8.36.74c1.3.35,1.1.24.89,1.38-.87,4.59-1.8,9.16-2.58,13.77a21.13,21.13,0,0,0,.4,8.07C190.15,115.15,190.19,115.31,190.26,115.57Zm-4.09-19.45c-3.29-1.05-6.18-.45-8.08,1.89A14.29,14.29,0,0,0,175,108.46a2.85,2.85,0,0,0,1.85,2.59,4.17,4.17,0,0,0,4.6-.8,8.74,8.74,0,0,0,2.24-3.43A55.27,55.27,0,0,0,186.17,96.12Z"/><path class="cls-1" d="M337.71,92.12l-1.12,6c-.57,3-1.23,6-1.66,9a20.3,20.3,0,0,0,.48,8.13c0,.09,0,.18.08.34-1.27,0-2.49,0-3.71,0a2.12,2.12,0,0,1-1.73-1.38c-.14-.28-.26-.57-.42-.92-.25.21-.45.41-.68.58a10.08,10.08,0,0,1-10.54,1.36c-2.68-1.11-3.88-3.45-4.06-6.23-.41-6.31,1.63-11.62,6.76-15.53A11.94,11.94,0,0,1,328.22,91a30,30,0,0,1,8.29.71C336.91,91.83,337.28,92,337.71,92.12Zm-6.32,4a6.93,6.93,0,0,0-7.12.95c-3.4,3.16-4.4,7.22-4,11.7a2.72,2.72,0,0,0,2.1,2.37,4.05,4.05,0,0,0,4.4-1.06,9.61,9.61,0,0,0,1.71-2.41C330.2,104,330.71,100.06,331.39,96.15Z"/><path class="cls-1" d="M222.7,105.19c-.67,3.67,1.79,6.29,5.69,6.08a10.52,10.52,0,0,0,5.31-2c.19-.13.37-.28.69-.51-.22,2-.41,3.78-.63,5.6a.69.69,0,0,1-.37.46c-3.6,1.27-7.26,1.76-10.92.32a8.25,8.25,0,0,1-5.12-5.67,14.51,14.51,0,0,1,2-12.63c3-4.26,7.2-6,12.28-5.85a14.09,14.09,0,0,1,4,.7c4.71,1.59,4.76,5.72,3.52,8.64a8.37,8.37,0,0,1-5,4.34,16.69,16.69,0,0,1-10.74.65l-.56-.16A.32.32,0,0,0,222.7,105.19Zm1.1-4.31a13.54,13.54,0,0,0,8.31-.62,3.93,3.93,0,0,0,1.53-1.18,1.77,1.77,0,0,0-.94-3C228.5,94.67,225.34,97.27,223.8,100.88Z"/><path class="cls-1" d="M295.08,105.17c-.57,3.79,1.8,6.29,5.69,6.1a10.48,10.48,0,0,0,5.25-1.92c.2-.13.39-.27.74-.52-.07.67-.12,1.2-.18,1.73-.13,1.22-.25,2.45-.42,3.68a.88.88,0,0,1-.43.63,15.36,15.36,0,0,1-10,.63,8.74,8.74,0,0,1-6.41-7.6c-.74-5,.4-9.43,4.06-13.05A13.67,13.67,0,0,1,304,91a14.15,14.15,0,0,1,3.77.61c4.07,1.32,5.18,4.52,3.91,8.31A7.85,7.85,0,0,1,307,104.5a16.64,16.64,0,0,1-11.21.87Zm1-4.29c3.16.57,6.09.59,8.86-.85a3.41,3.41,0,0,0,1.28-1.22,1.64,1.64,0,0,0-1-2.67,8.83,8.83,0,0,0-3.56-.31C298.89,96.34,297.39,98.4,296.06,100.88Z"/><path class="cls-1" d="M240.53,113.73l3-5.1a9.23,9.23,0,0,0,4.33,2.52,4.78,4.78,0,0,0,3.71-.53c1.8-1.14,1.86-3.15.08-4.28-1.21-.77-2.5-1.38-3.75-2.06-.26-.14-.51-.29-.77-.42-4.9-2.62-3.76-8.39-.75-10.61a11.67,11.67,0,0,1,10.42-1.74c1.33.35,2.61.86,4,1.32l-2.58,5.11c-1.12-.65-2.15-1.34-3.26-1.85a4.31,4.31,0,0,0-4,.2,1.81,1.81,0,0,0-.38,3.16,14.14,14.14,0,0,0,2.31,1.47c.84.48,1.71.91,2.57,1.35,3.64,1.83,4.26,5.1,2.81,8.56a8.25,8.25,0,0,1-5.47,4.53A14.67,14.67,0,0,1,240.53,113.73Z"/><path class="cls-1" d="M201.29,96h-2.71l1-4.51h2.77c.24-1.22.55-2.38.68-3.57A1.93,1.93,0,0,1,204.57,86c1.71-.51,3.37-1.2,5.17-1.85-.29,1.27-.57,2.46-.84,3.64s-.54,2.36-.83,3.62h6.57c-.31,1.45-.58,2.82-.9,4.17-.05.17-.42.36-.64.37-1.77,0-3.54,0-5.3,0-.55,0-.8.11-.93.7-.79,3.69-1.68,7.36-2.44,11.06-.54,2.62.91,4,3.52,3.39,1.08-.25,2.12-.64,3.22-1,0,1.56,0,3.11,0,4.66a.64.64,0,0,1-.39.47,18.09,18.09,0,0,1-7.84.55,5.66,5.66,0,0,1-4.42-6.56c.3-2.29.91-4.55,1.41-6.82.42-2,.88-3.91,1.32-5.87C201.26,96.42,201.26,96.25,201.29,96Z"/><path class="cls-1" d="M153,146.47c-.09,1.16-.15,2.15-.26,3.13a1,1,0,0,1-.41.62,15.35,15.35,0,0,1-2.85,1.19,10.66,10.66,0,0,1-5.74-.12,6.94,6.94,0,0,1-4.91-6,16.94,16.94,0,0,1,3.32-13.43c3.38-4.33,8.25-5.08,12.86-3.86.18,0,.35.14.6.24l-.86,3.11a7.27,7.27,0,0,0-6-.62,7.52,7.52,0,0,0-3.8,2.91,13.71,13.71,0,0,0-2.74,10.8c.62,3.63,3.3,4.75,6.47,4.25A9.17,9.17,0,0,0,153,146.47Z"/><path class="cls-1" d="M173,140.69c-.26,3.51-1.16,6.74-4.05,9.06a8.44,8.44,0,0,1-8,1.5,4.94,4.94,0,0,1-3.63-4.15c-.76-4.47.36-8.39,3.88-11.39a8.21,8.21,0,0,1,8-1.48c2.38.69,3.72,2.76,3.8,5.59C173,140.11,173,140.4,173,140.69Zm-3.23,0c0-.42,0-.81,0-1.2a3.16,3.16,0,0,0-2.76-3.09,4.6,4.6,0,0,0-4.36,1.61,10.23,10.23,0,0,0-2.11,8.45A2.86,2.86,0,0,0,162.8,149a4.38,4.38,0,0,0,4.34-1.2A10.24,10.24,0,0,0,169.76,140.7Z"/><path class="cls-1" d="M185,151.3l.33-2a21.33,21.33,0,0,1-1.75,1.33,8,8,0,0,1-4,1c-3.08.13-5-1.88-4.58-5,.2-1.8.56-3.58.87-5.37q.54-3.14,1.1-6.29c.05-.25.11-.51.17-.77h3.2l-.67,3.72c-.45,2.47-.92,5-1.35,7.42a6.23,6.23,0,0,0,0,1.67,2.09,2.09,0,0,0,1.69,1.93,5.41,5.41,0,0,0,6.15-4.15c.64-3.32,1.25-6.65,1.85-10,.08-.46.23-.66.73-.64.84,0,1.69,0,2.62,0-.31,1.7-.59,3.32-.89,4.93-.7,3.85-1.42,7.7-2.11,11.56-.08.5-.23.71-.77.68C186.74,151.27,185.9,151.3,185,151.3Z"/><path class="cls-1" d="M196,151.26h-3.07c.25-1.41.48-2.76.72-4.11.51-2.86,1.09-5.71,1.49-8.58a30.69,30.69,0,0,0,0-4.19l2.75-.54.47,2.41a7.1,7.1,0,0,1,6.5-2.35,3.68,3.68,0,0,1,3.64,3.86,42.08,42.08,0,0,1-.6,5.69c-.37,2.41-.85,4.81-1.24,7.22-.08.49-.24.66-.73.64-.85,0-1.7,0-2.65,0,.23-1.29.44-2.51.66-3.74.44-2.52.92-5,1.3-7.58.42-2.75-1.27-4.16-3.94-3.36a7.26,7.26,0,0,0-.88.34,3.85,3.85,0,0,0-2.54,3.27c-.45,3.48-1.16,6.92-1.76,10.38C196.11,150.82,196,151,196,151.26Z"/><path class="cls-1" d="M222.47,147.73c-.09.83-.15,1.72-.29,2.61a.85.85,0,0,1-.47.53,10.22,10.22,0,0,1-6.48.45,5.44,5.44,0,0,1-4.14-5,11.79,11.79,0,0,1,3-9.82c2.52-2.7,7.39-3.56,10.34-1.77l-.55,2.58a5.64,5.64,0,0,0-3.59-.88,5.81,5.81,0,0,0-4.52,2.69,8.83,8.83,0,0,0-1.48,6.15,4,4,0,0,0,5.23,3.54A27.31,27.31,0,0,0,222.47,147.73Z"/><path class="cls-1" d="M240.85,127.2H244c-.42,2.07-.83,4.07-1.22,6.09q-1.25,6.38-2.47,12.75c0,.21-.06.43-.08.64-.16,1.92.26,2.45,2.21,2.73l-.34,2.22a7,7,0,0,1-3.61-.78,3.17,3.17,0,0,1-1.52-3.37c.4-2.7.9-5.39,1.41-8.07.74-3.9,1.53-7.79,2.3-11.68C240.74,127.57,240.79,127.41,240.85,127.2Z"/><path class="cls-1" d="M229.37,136.76h-2.25l.54-2.5h5.27c-1,5.68-2,11.32-3,17H226.8C227.66,146.44,228.51,141.65,229.37,136.76Z"/><path class="cls-1" d="M233.85,129.59a2.08,2.08,0,0,1-2.17,2.13,2.14,2.14,0,1,1,.08-4.27A2.09,2.09,0,0,1,233.85,129.59Z"/><path class="cls-1" d="M312.14,150.57a2.26,2.26,0,0,1-3.18-.77c.77-.06,1.42-.14,2.08-.16s1.37,0,2.16,0c.48-.73,1.42-.53,2.24-.64.48-.07,1,0,1.46-.08.61-.16,1.12-.22,1.41.51,0,0,0,0-.08.05l-.72.07s0,.23,0,.24a6.84,6.84,0,0,0,1,.35,3.69,3.69,0,0,0,.76,0c-.87.62-1.92.74-3.22-.42l.18.83C314.91,150.9,313.57,151.46,312.14,150.57Z"/><path class="cls-1" d="M306.1,150.2c.65-.15,1.38.34,2-.23.06-.06.36.06.47.17a.47.47,0,0,1,0,.43.55.55,0,0,1-.4.13c-.59,0-1.23-.28-1.68.45,1,.37,1.94,0,3-.05-.25.19-.47.48-.75.54a4.8,4.8,0,0,1-3.4.08,4.06,4.06,0,0,0-2.86-.36,3,3,0,0,0-.85.12l1.07.7c-.57.41-1,.31-2.82-.83l3.92-1,0-.17-1.51.16c.9-1.1,2.1-.44,3.25-.66l-.26.5c-.4.07-.87-.17-1.23.07l.06.29Z"/><path class="cls-1" d="M295.23,152.55l-.51.44-.22,0c0,.35.17.49.61.39a2.66,2.66,0,0,1,.69,0l0,.34c-.74.09-1.48.18-2.22.29s-1.56.28-2.35.38c-.13,0-.3-.23-.43-.21a2.9,2.9,0,0,0-1.06.31.75.75,0,0,1-.94.06,3.79,3.79,0,0,0-1.38-.39c-.92-.13-1.86-.19-2.79-.27v-.26l1.23-.07a6.74,6.74,0,0,1,.77,0,21.86,21.86,0,0,0,2.79.16,11,11,0,0,0,1.78-.66c1-.27,2-.49,3-.69a3.73,3.73,0,0,1,1,.09Z"/><path class="cls-1" d="M295.23,152.55v-.15c.2-.12.41-.37.59-.35.78.1,1.54.29,2.32.4a11.61,11.61,0,0,0,1.32,0l1.43.08,0,.26-3.28.65C297,152.5,296,152.88,295.23,152.55Z"/><path class="cls-1" d="M277,154.56c-1.33-.12-2.61.59-3.93.18l0-.24,2.82-.43a4.64,4.64,0,0,0,.51-.11C276.82,153.85,277.14,153.88,277,154.56Z"/><path class="cls-1" d="M296.83,150.06h1l1.84.25v.55c-.42.43-1-1.17-1.27.18C297.87,150.71,297,150.94,296.83,150.06Z"/><path class="cls-1" d="M287,152.83l-3.43.22a4.1,4.1,0,0,1,3.45-.43Z"/><path class="cls-1" d="M321.88,149.48h.1l.06.56c-.79,0-1.57.56-2.39.17l0-.23c.69-.1,1.37-.21,2.05-.33C321.75,149.64,321.81,149.54,321.88,149.48Z"/><path class="cls-1" d="M184.11,174.51l.89-.32,1.6-.27h0c-.44.7-1.23.65-1.89.87a6.38,6.38,0,0,1-1,.15Z"/><path class="cls-1" d="M315.63,148.63c-.49,0-1,.07-1.49.06-.16,0-.31-.17-.47-.26a2.5,2.5,0,0,1,.45-.12c.49,0,1,0,1.48,0Z"/><path class="cls-1" d="M300.17,149.33l.14-.14c-.06.91.88.79,1.24,1.35l-1.73-.46Z"/><path class="cls-1" d="M312.11,148.82V148l1.37.61-.09.24a3,3,0,0,0-.69-.21A1.73,1.73,0,0,0,312.11,148.82Z"/><path class="cls-1" d="M217.86,165.19l.72.13-1.64.66-.11-.27a7.92,7.92,0,0,0,.82-.28C217.74,165.4,217.79,165.27,217.86,165.19Z"/><path class="cls-1" d="M315.67,142.94h-1.61l0-.21,2-.21Z"/><path class="cls-1" d="M182.51,175.07h.87l-1.69.78-.12-.22Z"/><path class="cls-1" d="M282.37,155h1.4C283.17,155.53,282.79,155.49,282.37,155Z"/></svg>