<svg id="Layer_1" data-name="Layer 1" xmlns="http://www.w3.org/2000/svg" viewBox="0 0 434.04 244.15"><defs><style>.cls-1{fill:#737373;}</style></defs><title>client logos</title><path class="cls-1" d="M86.29,143.8H28.86V112.55H86.29Zm-56.49-1H85.33V113.51H29.8Z"/><path class="cls-1" d="M238.74,137.86c1,.39,1.13,1.38,1.14,2.42,0,.42,0,.84.06,1.26,0,.65-.06,1.35.65,1.79l-.08.15c-.6,0-1.2,0-1.8,0-.08,0-.19-.28-.2-.45-.08-.81-.15-1.63-.17-2.45,0-1.41-.63-2-2-2h-3.85v4.95h-1.53V131.86h.68c1.83,0,3.66,0,5.48.06a3,3,0,0,1,2.84,4.13A8.07,8.07,0,0,1,238.74,137.86Zm-6.27-4.62c0,1.23,0,2.43,0,3.63a.41.41,0,0,0,.29.28c1.42,0,2.85,0,4.26-.1,1-.1,1.47-.89,1.42-2.1a1.57,1.57,0,0,0-1.53-1.69C235.46,133.19,234,133.24,232.47,133.24Z"/><path class="cls-1" d="M115.48,143.48H113.9V131.93c.06,0,.11-.06.17-.05,2,0,3.93,0,5.9,0,2.28.09,3.43,1.62,3,3.86a3,3,0,0,1-1.49,2c1.32.54,1.33,1.66,1.36,2.77,0,.34,0,.68,0,1,0,.65,0,1.32.65,1.78l-.08.14c-.58,0-1.17,0-1.75,0-.1,0-.23-.3-.25-.47-.08-.78-.14-1.56-.16-2.34,0-1.56-.6-2.13-2.17-2.14h-3.68Zm0-10.25c0,1.24,0,2.42,0,3.6,0,.11.2.32.31.32,1.4,0,2.81,0,4.2-.09,1-.1,1.54-.94,1.46-2.13a1.63,1.63,0,0,0-1.67-1.69C118.37,133.2,117,133.23,115.46,133.23Z"/><path class="cls-1" d="M346.86,135.24h-1.42a1.67,1.67,0,0,0-.11-.44,5,5,0,0,0-.87-1.32,3.67,3.67,0,0,0-3.77-.13,1.78,1.78,0,0,0-.79,1.88,1.4,1.4,0,0,0,1.24,1.15c1.17.28,2.34.54,3.51.83a2.93,2.93,0,0,1,2.54,2.92,3.09,3.09,0,0,1-2.15,3.26,6.74,6.74,0,0,1-4.54.12,3.52,3.52,0,0,1-2.5-3.72h1.4a2.45,2.45,0,0,0,1.54,2.34,4.55,4.55,0,0,0,3.85-.15,1.61,1.61,0,0,0,.89-1.59,1.44,1.44,0,0,0-1-1.47c-1.25-.38-2.51-.69-3.78-1-1.66-.4-2.51-1.29-2.52-2.69a3.43,3.43,0,0,1,3.49-3.65,7.9,7.9,0,0,1,2.27.19A3.28,3.28,0,0,1,346.86,135.24Z"/><path class="cls-1" d="M275.85,135.37a8.72,8.72,0,0,1-1.16,0,.6.6,0,0,1-.42-.3,3,3,0,0,0-3-2.08,3.31,3.31,0,0,0-3.34,1.93,6.41,6.41,0,0,0,.12,5.86,3.24,3.24,0,0,0,3.48,1.62,3.12,3.12,0,0,0,2.71-2.25c.39-1,.57-1.09,1.71-.83a4.69,4.69,0,0,1-3.9,4.41c-3.51.6-6.06-1.51-6.31-5.25a7.22,7.22,0,0,1,1-4.73,5.51,5.51,0,0,1,7.6-1.17A4,4,0,0,1,275.85,135.37Z"/><path class="cls-1" d="M158.89,139.3a4.68,4.68,0,0,1-3.89,4.41c-3.43.62-6-1.47-6.31-5.13a7.85,7.85,0,0,1,.74-4.39c1.79-3.4,6.38-3.13,8.11-1.44a4,4,0,0,1,1.29,2.61c-.45,0-.87,0-1.27,0-.11,0-.26-.17-.31-.3a2.91,2.91,0,0,0-2.86-2.07,3.31,3.31,0,0,0-3.39,1.71,6.29,6.29,0,0,0,0,6.12,3.23,3.23,0,0,0,3.52,1.56,3.12,3.12,0,0,0,2.65-2.24C157.58,139.12,157.75,139,158.89,139.3Z"/><path class="cls-1" d="M141.85,143.47h-1.3l-.07-.88c-.07,0-.14,0-.16.07-.92,1.56-4,1.51-5.13-.44a6,6,0,0,1-.44-5.32,3.25,3.25,0,0,1,5.65-.8v-4.18h1.45Zm-1.29-3.93a19.76,19.76,0,0,0-.63-2.38,1.79,1.79,0,0,0-2-1.07,1.85,1.85,0,0,0-1.79,1.19,5.16,5.16,0,0,0,.1,4,1.89,1.89,0,0,0,1.74,1.19,2,2,0,0,0,2-1.06A11.85,11.85,0,0,0,140.56,139.54Z"/><path class="cls-1" d="M257.49,136.16V131.9h1.37v11.57H257.6l-.07-1.07a2.8,2.8,0,0,1-2.8,1.33,3,3,0,0,1-2.49-1.47,5.86,5.86,0,0,1-.33-5.64c1-2.18,4.11-2.45,5.3-.72A2,2,0,0,0,257.49,136.16Zm-4.67,3.07a13,13,0,0,0,.24,1.55,2.12,2.12,0,0,0,2.16,1.73,2.19,2.19,0,0,0,2.12-2,9.64,9.64,0,0,0-.13-2.68,1.93,1.93,0,0,0-2.12-1.72,2,2,0,0,0-2.09,1.77A12.7,12.7,0,0,0,252.82,139.23Z"/><path class="cls-1" d="M217.73,117.1v-4.32h1.39V124.4h-1.26l0-.81a9.12,9.12,0,0,1-1.85,1,3.14,3.14,0,0,1-3.58-1.59,6,6,0,0,1-.42-5A3.24,3.24,0,0,1,217.73,117.1Zm-4.66,3.05a15,15,0,0,0,.3,1.64,2.09,2.09,0,0,0,2.06,1.63,2.27,2.27,0,0,0,2.16-1.85,5.6,5.6,0,0,0-.2-3.14,2,2,0,0,0-2.1-1.46,2,2,0,0,0-2,1.62A15.71,15.71,0,0,0,213.07,120.15Z"/><path class="cls-1" d="M223.35,143.48h-1.28l0-.9c-.08,0-.16,0-.18.07-.92,1.58-3.94,1.45-5-.26a5.85,5.85,0,0,1-.4-5.8,3.15,3.15,0,0,1,3.9-1.66,9.25,9.25,0,0,1,1.62,1v-4h1.4ZM222,139.62c-.07-.6-.11-1-.19-1.47a2.73,2.73,0,0,0-.2-.69,1.92,1.92,0,0,0-2-1.37,1.9,1.9,0,0,0-2,1.43,5.3,5.3,0,0,0,.1,3.6,2,2,0,0,0,1.92,1.39,2.12,2.12,0,0,0,2-1.4A10.48,10.48,0,0,0,222,139.62Z"/><path class="cls-1" d="M200.67,117.69v1.42H195v5.27h-1.56V112.8h8v1.35H195v3.54Z"/><path class="cls-1" d="M205.23,142.55c-.12.39.3.89-.37,1.07-.92.24-1.56-.1-2-1.14a3.92,3.92,0,0,1-2.88,1.27,2.55,2.55,0,1,1-.34-5.09c.75-.11,1.51-.19,2.27-.28.44,0,.85-.14.94-.67a1.27,1.27,0,0,0-.47-1.39,2.26,2.26,0,0,0-3.37,1,.57.57,0,0,1-.37.27,5.18,5.18,0,0,1-.88,0,2.18,2.18,0,0,1,1.24-2.4,4.76,4.76,0,0,1,4.09,0,2,2,0,0,1,1.2,2v4.45C204.31,142.46,204.34,142.48,205.23,142.55Zm-2.39-3.23-1.76.32a10.24,10.24,0,0,0-1.46.31,1.16,1.16,0,0,0-.87,1.43,1.22,1.22,0,0,0,1.24,1.15C202,142.7,203.13,141.44,202.84,139.32Z"/><path class="cls-1" d="M396.47,139.73h-6.2a2.3,2.3,0,0,0,1.52,2.66c1.36.41,2.4-.1,3.11-1.54h1.31a3.32,3.32,0,0,1-2.92,2.85c-2.8.31-4.56-1.22-4.62-4a4.93,4.93,0,0,1,1.31-3.87,3.64,3.64,0,0,1,6,1.49A21.73,21.73,0,0,1,396.47,139.73Zm-1.63-1.2a2.19,2.19,0,0,0-2.37-2.44,2.34,2.34,0,0,0-2.21,2.44Z"/><path class="cls-1" d="M237.56,118.49h-1.24a2.41,2.41,0,0,1,1.6-2.51,5,5,0,0,1,3.53,0,2,2,0,0,1,1.46,2.11v4.4c0,.88.06.94,1,.91-.14.37.32.9-.34,1.11a1.5,1.5,0,0,1-1.82-.65c-.07-.15-.1-.31-.17-.51a3.77,3.77,0,0,1-2.41,1.25,4.43,4.43,0,0,1-1.31,0,2.25,2.25,0,0,1-1.94-2.2,2.34,2.34,0,0,1,1.69-2.6,22.27,22.27,0,0,1,3-.48c.5-.06.89-.17,1-.75a1.25,1.25,0,0,0-.66-1.41A2.21,2.21,0,0,0,237.56,118.49Zm3.86,1.74c-1,.19-2,.33-3,.58a1.21,1.21,0,0,0-1,1.51,1.31,1.31,0,0,0,1.4,1.14C240.7,123.54,241.78,122.24,241.42,120.23Z"/><path class="cls-1" d="M176.23,118.49H175a2.39,2.39,0,0,1,1.49-2.46,4.91,4.91,0,0,1,3.69,0,2,2,0,0,1,1.41,2.09c0,1.48,0,3,0,4.45,0,.81.08.88.9.86,0,0,0,.08,0,.11-.07.36.29.87-.38,1a1.53,1.53,0,0,1-1.75-.61c-.07-.16-.11-.34-.18-.56a3.81,3.81,0,0,1-2.41,1.25,4.42,4.42,0,0,1-1.31,0,2.25,2.25,0,0,1-1.94-2.2,2.33,2.33,0,0,1,1.68-2.6,22.54,22.54,0,0,1,3-.48c.5-.06.9-.17,1-.75a1.25,1.25,0,0,0-.67-1.41A2.2,2.2,0,0,0,176.23,118.49Zm3.86,1.74c-1,.19-2,.33-3,.58a1.2,1.2,0,0,0-1,1.51,1.31,1.31,0,0,0,1.39,1.14C179.37,123.54,180.43,122.27,180.09,120.23Z"/><path class="cls-1" d="M317.15,139.73h-6a2.32,2.32,0,0,0,1.51,2.66,2.42,2.42,0,0,0,3.11-1.54H317a3.29,3.29,0,0,1-2.95,2.86c-2.89.26-4.68-1.42-4.57-4.35a7.48,7.48,0,0,1,.17-1.49,3.78,3.78,0,0,1,4.89-2.94,3.88,3.88,0,0,1,1.58,1A5.14,5.14,0,0,1,317.15,139.73Zm-1.47-1.2a2.18,2.18,0,0,0-2.37-2.44,2.34,2.34,0,0,0-2.21,2.44Z"/><path class="cls-1" d="M250,139.73h-6.24a2.34,2.34,0,0,0,1.51,2.65,2.38,2.38,0,0,0,3-1.28.62.62,0,0,1,.39-.26,8.66,8.66,0,0,1,1,0,3.26,3.26,0,0,1-2.87,2.87c-2.8.33-4.6-1.24-4.64-4.08a5.33,5.33,0,0,1,.89-3.36,3.75,3.75,0,0,1,3.79-1.43,3,3,0,0,1,2.6,2.29C249.67,137.93,249.77,138.79,250,139.73Zm-1.65-1.2a2.19,2.19,0,0,0-2.31-2.44,2.34,2.34,0,0,0-2.28,2.44Z"/><path class="cls-1" d="M378.39,139.72h-6.18a2.34,2.34,0,0,0,1.43,2.66,2.45,2.45,0,0,0,3.18-1.53h1.3a3.29,3.29,0,0,1-2.95,2.86c-2.76.25-4.41-1.14-4.57-3.92a5.72,5.72,0,0,1,.56-3,3.72,3.72,0,0,1,3.91-2,3.2,3.2,0,0,1,2.89,2.51A23.1,23.1,0,0,1,378.39,139.72Zm-6.22-1.2h4.58a2.16,2.16,0,0,0-2.09-2.43A2.36,2.36,0,0,0,372.17,138.52Z"/><path class="cls-1" d="M291.16,139.74h-6.24a2.34,2.34,0,0,0,1.58,2.66,2.37,2.37,0,0,0,2.93-1.25.64.64,0,0,1,.41-.31,8.68,8.68,0,0,1,1,0A3.31,3.31,0,0,1,288,143.7c-2.8.34-4.6-1.26-4.63-4.08a5.72,5.72,0,0,1,.63-3,3.66,3.66,0,0,1,3.82-1.85,3.06,3.06,0,0,1,2.83,2.32A22.67,22.67,0,0,1,291.16,139.74Zm-6.28-1.22h4.63a2.18,2.18,0,0,0-2-2.43A2.41,2.41,0,0,0,284.88,138.52Z"/><path class="cls-1" d="M132.66,140.83a3.36,3.36,0,0,1-3,2.88c-3.5.39-4.68-2.18-4.53-4.42a7.61,7.61,0,0,1,.44-2.22,3.6,3.6,0,0,1,3.85-2.28,3.19,3.19,0,0,1,3,2.53,21.38,21.38,0,0,1,.43,2.39h-6.22a2.38,2.38,0,0,0,4.54,1.36.52.52,0,0,1,.35-.23C131.94,140.81,132.3,140.83,132.66,140.83Zm-6-2.31h4.64a2.19,2.19,0,0,0-2.08-2.43A2.41,2.41,0,0,0,126.66,138.52Z"/><path class="cls-1" d="M145.81,123.42c-.14.42.29,1-.43,1.12a1.51,1.51,0,0,1-1.92-1.16,3.86,3.86,0,0,1-2.39,1.23,4.75,4.75,0,0,1-1.25,0,2.29,2.29,0,0,1-2-2.16,2.36,2.36,0,0,1,1.74-2.68,21.6,21.6,0,0,1,2.9-.45c.51-.06.89-.2,1-.76a1.24,1.24,0,0,0-.63-1.37,2.5,2.5,0,0,0-2.43,0c-.43.25-.68.82-1.09,1.35h-1.05a2.44,2.44,0,0,1,2-2.62,5.14,5.14,0,0,1,3,0,2.14,2.14,0,0,1,1.67,2.27v4.34C144.86,123.35,144.93,123.42,145.81,123.42Zm-2.42-3.18c-1,.17-2,.3-2.93.51a1.28,1.28,0,0,0-1.17,1.48,1.33,1.33,0,0,0,1.51,1.23C142.7,123.48,143.69,122.27,143.39,120.24Z"/><path class="cls-1" d="M210.22,120.63H204a2.34,2.34,0,0,0,1.54,2.67,2.39,2.39,0,0,0,3-1.27.52.52,0,0,1,.32-.27,10.79,10.79,0,0,1,1.14,0,3.37,3.37,0,0,1-2.69,2.82c-2.88.51-4.84-1.12-4.87-4a5,5,0,0,1,1.26-3.77,3.65,3.65,0,0,1,6.08,1.42A21.25,21.25,0,0,1,210.22,120.63ZM204,119.46h4.59c-.06-1.63-.94-2.54-2.36-2.49A2.38,2.38,0,0,0,204,119.46Z"/><path class="cls-1" d="M120.91,120.63h-6.22a2.35,2.35,0,0,0,1.54,2.67,2.4,2.4,0,0,0,3-1.27.57.57,0,0,1,.39-.27,8.47,8.47,0,0,1,1,0,3.23,3.23,0,0,1-2.45,2.8c-2.91.64-5-1.05-5-4a6,6,0,0,1,.56-2.8,3.72,3.72,0,0,1,3.67-2,3.24,3.24,0,0,1,3.12,2.55A23.13,23.13,0,0,1,120.91,120.63Zm-6.23-1.17h4.59A2.21,2.21,0,0,0,117,117,2.41,2.41,0,0,0,114.68,119.46Z"/><path class="cls-1" d="M228.87,120.63h-6.21a2.32,2.32,0,0,0,1.52,2.67,2.36,2.36,0,0,0,2.91-1.16.55.55,0,0,1,.62-.4c.28,0,.56,0,.83,0a3.21,3.21,0,0,1-2.45,2.8c-2.82.62-4.87-.91-5-3.79a4.94,4.94,0,0,1,1.29-4,3.65,3.65,0,0,1,6,1.4A21.47,21.47,0,0,1,228.87,120.63Zm-1.64-1.16a2.23,2.23,0,0,0-2.35-2.5,2.38,2.38,0,0,0-2.23,2.5Z"/><path class="cls-1" d="M261.81,120.1c-.09,1.68-.5,3.14-2,4a3.84,3.84,0,0,1-5.8-3,6.74,6.74,0,0,1,.09-2.37,3.68,3.68,0,0,1,3.84-3.12,3.84,3.84,0,0,1,3.74,3.42C261.75,119.45,261.78,119.81,261.81,120.1Zm-1.4,0a16.67,16.67,0,0,0-.58-2,2,2,0,0,0-2-1.22,2.08,2.08,0,0,0-2,1.22,4.43,4.43,0,0,0,0,3.95,2.07,2.07,0,0,0,2.06,1.28,2,2,0,0,0,2-1.34A15.09,15.09,0,0,0,260.41,120.13Z"/><path class="cls-1" d="M155.77,120.31a17.15,17.15,0,0,1,.38-1.92,3.68,3.68,0,0,1,3.68-2.72,3.74,3.74,0,0,1,3.66,2.83,5.39,5.39,0,0,1-.37,4.2,3.57,3.57,0,0,1-3.47,1.94,3.44,3.44,0,0,1-3.24-2.11A14,14,0,0,1,155.77,120.31Zm1.45-.16a17.58,17.58,0,0,0,.59,2,2.23,2.23,0,0,0,4,0,4.48,4.48,0,0,0,0-3.9,2.08,2.08,0,0,0-2-1.3,2,2,0,0,0-2.05,1.3A14.89,14.89,0,0,0,157.22,120.15Z"/><path class="cls-1" d="M352.41,143.72a3.48,3.48,0,0,1-3.2-2.46,5.35,5.35,0,0,1,.25-4.54,3.78,3.78,0,0,1,6.51-.21,5.15,5.15,0,0,1-.09,5.64A3.61,3.61,0,0,1,352.41,143.72Zm2.94-4.44a15.69,15.69,0,0,0-.56-2,2,2,0,0,0-2-1.26,2.07,2.07,0,0,0-2,1.22,4.4,4.4,0,0,0,0,4,2.07,2.07,0,0,0,2,1.22,2,2,0,0,0,2-1.23A14.72,14.72,0,0,0,355.35,139.28Z"/><path class="cls-1" d="M166.15,139.37a16.94,16.94,0,0,1,.38-1.91,3.83,3.83,0,0,1,7.3,0,5.41,5.41,0,0,1-.2,4.05,3.53,3.53,0,0,1-3.44,2.19,3.46,3.46,0,0,1-3.44-2.16A15.7,15.7,0,0,1,166.15,139.37Zm1.4-.09a12.47,12.47,0,0,0,.83,2.27,2.18,2.18,0,0,0,3.58.06,4.48,4.48,0,0,0,0-4.67,2.19,2.19,0,0,0-3.68.12A13.4,13.4,0,0,0,167.55,139.28Z"/><path class="cls-1" d="M94,139.13a15.69,15.69,0,0,1,.33-1.6A3.62,3.62,0,0,1,98,134.79a3.65,3.65,0,0,1,3.67,2.71,5.53,5.53,0,0,1,0,3.55,3.83,3.83,0,0,1-7.4-.33C94.11,140.22,94.07,139.69,94,139.13Zm1.41.15a15.34,15.34,0,0,0,.61,2,2,2,0,0,0,2,1.19,2,2,0,0,0,2-1.23,4.47,4.47,0,0,0,0-4A2.06,2.06,0,0,0,98,136a2,2,0,0,0-2,1.24A17,17,0,0,0,95.4,139.28Z"/><path class="cls-1" d="M299.25,137.42h-1.31a2.14,2.14,0,0,0-3.24-1.06,1.25,1.25,0,0,0-.45.95,1.06,1.06,0,0,0,.62.75c.74.28,1.54.44,2.31.65a7.08,7.08,0,0,1,.75.22c.8.3,1.49.73,1.59,1.69a2.57,2.57,0,0,1-1.07,2.48,4.88,4.88,0,0,1-4.86,0,2.73,2.73,0,0,1-1-2.33,7.16,7.16,0,0,1,1,0,.45.45,0,0,1,.35.3,1.66,1.66,0,0,0,1.73,1.37,4.86,4.86,0,0,0,1.65-.21,1.08,1.08,0,0,0,.78-1.1c0-.54-.37-.79-.81-.93-.72-.22-1.46-.4-2.2-.6-.19,0-.39-.09-.58-.15a2.07,2.07,0,0,1-1.7-1.73,2.47,2.47,0,0,1,1.24-2.49,4.1,4.1,0,0,1,3.88,0A2.43,2.43,0,0,1,299.25,137.42Z"/><path class="cls-1" d="M404.57,137.42h-1.3a2.15,2.15,0,0,0-3.21-1.09,1.32,1.32,0,0,0-.49,1,1.09,1.09,0,0,0,.64.74c.74.28,1.54.44,2.31.65.25.07.5.13.75.22.78.3,1.46.72,1.56,1.65a2.57,2.57,0,0,1-1.06,2.53,4.88,4.88,0,0,1-4.81,0,2.46,2.46,0,0,1-1-2.35,6.52,6.52,0,0,1,1,0,.47.47,0,0,1,.35.3,1.58,1.58,0,0,0,1.62,1.35,5.29,5.29,0,0,0,1.81-.22,1,1,0,0,0,.71-1.14,1,1,0,0,0-.79-.86c-.75-.23-1.51-.41-2.27-.61-.19-.06-.39-.09-.58-.16a2,2,0,0,1-1.62-1.65,2.46,2.46,0,0,1,1-2.39,4.23,4.23,0,0,1,4.39-.06A2.49,2.49,0,0,1,404.57,137.42Z"/><path class="cls-1" d="M182.23,137.41h-1.32a2.18,2.18,0,0,0-3.31-1,.94.94,0,0,0,.21,1.68c.7.25,1.43.4,2.14.59.33.09.66.17,1,.29a2.27,2.27,0,0,1,.77,3.95,4.72,4.72,0,0,1-5.23.13,2.56,2.56,0,0,1-.91-2.18h1.27a2.39,2.39,0,0,0,3.39,1.47,1.19,1.19,0,0,0,.86-1.17c0-.56-.41-.8-.88-.93-.84-.25-1.7-.46-2.55-.69-1.21-.33-1.79-.91-1.86-1.85a2.47,2.47,0,0,1,1.64-2.6,4.3,4.3,0,0,1,3-.07A2.5,2.5,0,0,1,182.23,137.41Z"/><path class="cls-1" d="M190.64,137.41h-1.31a2.17,2.17,0,0,0-3.32-1,.93.93,0,0,0,.23,1.67c.7.25,1.43.4,2.14.6.35.1.7.18,1,.31a2.27,2.27,0,0,1,.65,4,4.66,4.66,0,0,1-5.24,0,2.55,2.55,0,0,1-.86-2.14h1.25a2.35,2.35,0,0,0,3.15,1.57c.72-.19,1.15-.64,1.14-1.22s-.51-.87-1-1c-.67-.19-1.36-.35-2-.53l-.52-.13c-.87-.27-1.6-.71-1.7-1.72a2.37,2.37,0,0,1,1.27-2.53,4.1,4.1,0,0,1,3.82,0A2.4,2.4,0,0,1,190.64,137.41Z"/><path class="cls-1" d="M319.25,135.05h1.32l.05,1,.33-.31a3.22,3.22,0,0,1,3.76-.68,2.43,2.43,0,0,1,1.41,2.28c0,2,0,3.93,0,5.9a1,1,0,0,1-.07.2h-1.35c0-1.07,0-2.1,0-3.14,0-.86,0-1.73,0-2.59a1.49,1.49,0,0,0-1-1.55,2.16,2.16,0,0,0-2.24.49,2.85,2.85,0,0,0-.76,2.15c0,1.52,0,3,0,4.63h-1.42Z"/><path class="cls-1" d="M135.79,124.4h-1.35c0-.82,0-1.62,0-2.41,0-1.09,0-2.17-.05-3.25s-.44-1.55-1.27-1.72a2,2,0,0,0-2.3,1,4.86,4.86,0,0,0-.43,1.84c-.07,1.48,0,3,0,4.5H129V116h1.25l.07,1.05a2.92,2.92,0,0,0,.29-.25,3.09,3.09,0,0,1,3.33-1,2.19,2.19,0,0,1,1.83,2.06C135.85,120,135.79,122.19,135.79,124.4Z"/><path class="cls-1" d="M213.87,143.48h-1.34v-4.92a4.86,4.86,0,0,0,0-.66c-.1-1.1-.46-1.63-1.21-1.78a2.09,2.09,0,0,0-2.46,1.16,5.74,5.74,0,0,0-.36,1.93c-.06,1.4,0,2.8,0,4.25h-1.38v-8.39h1.31l.05,1a3.73,3.73,0,0,0,.33-.3,3.25,3.25,0,0,1,3.72-.71,2.47,2.47,0,0,1,1.45,2.38c0,1.95,0,3.89,0,5.84A.8.8,0,0,1,213.87,143.48Z"/><path class="cls-1" d="M270.6,124.4h-1.4v-.64c0-1.63,0-3.25,0-4.88,0-1.11-.37-1.64-1.19-1.85a2.05,2.05,0,0,0-2.4,1,5,5,0,0,0-.4,1.79c-.06,1.31,0,2.61,0,3.92v.62h-1.38V116H265v1.12c.17-.16.25-.22.32-.3a3.2,3.2,0,0,1,3.62-.88,2.32,2.32,0,0,1,1.61,2.2C270.65,120.17,270.6,122.26,270.6,124.4Z"/><path class="cls-1" d="M106.21,124.41h-1.39v-.66c0-1.58,0-3.17,0-4.75,0-1.23-.41-1.81-1.33-2a2.1,2.1,0,0,0-2.42,1.32,4.24,4.24,0,0,0-.26,1.46c0,1.52,0,3,0,4.6H99.4V116h1.28l0,1.08a3.53,3.53,0,0,1,2.19-1.34,2.72,2.72,0,0,1,3.33,2.84c0,1.79,0,3.57,0,5.36C106.25,124.07,106.22,124.24,106.21,124.41Z"/><path class="cls-1" d="M172.55,124.39H171.2c0-.22,0-.45,0-.69,0-1.64,0-3.29,0-4.93,0-1.06-.39-1.53-1.18-1.73a2,2,0,0,0-2.34.91,4.86,4.86,0,0,0-.47,1.83c-.06,1.52,0,3,0,4.61h-1.38V116H167l.05,1.14a3.23,3.23,0,0,1,2.33-1.41c1.74-.1,3.15.69,3.19,2.6S172.55,122.33,172.55,124.39Z"/><path class="cls-1" d="M365.33,137.9a5.43,5.43,0,0,0-.7,0,.65.65,0,0,1-.84-.58,1.59,1.59,0,0,0-1.37-1.2,2.07,2.07,0,0,0-2.07.67,4.83,4.83,0,0,0-.1,5,2,2,0,0,0,3.4-.37c.49-1,.49-1,1.6-.84a3.18,3.18,0,0,1-2.75,3.18,3.62,3.62,0,0,1-4.31-3.2,5.76,5.76,0,0,1,.52-3.8,3.86,3.86,0,0,1,5-1.62A3.18,3.18,0,0,1,365.33,137.9Z"/><path class="cls-1" d="M306.83,140.53h1.24a3.18,3.18,0,0,1-3.46,3.21,3.55,3.55,0,0,1-3.58-3.1,6.21,6.21,0,0,1,.3-3.49,3.85,3.85,0,0,1,4.93-2.16,2.89,2.89,0,0,1,1.81,2.87h-1.26l-.13-.39a1.73,1.73,0,0,0-1.57-1.37,2,2,0,0,0-2.14,1,4.65,4.65,0,0,0-.06,4.35,2,2,0,0,0,3.49.06A8.56,8.56,0,0,0,306.83,140.53Z"/><path class="cls-1" d="M107.07,133c-1.22,0-1.58-.08-1.4,2l1.36.06v1.14h-1.4v7.28h-1.4v-7.24l-1.17-.05v-1.12l1.14-.08c0-.55,0-1.07,0-1.58a2,2,0,0,1,2.64-1.68.46.46,0,0,1,.21.31C107.08,132.33,107.07,132.63,107.07,133Z"/><path class="cls-1" d="M150.69,123.35v1c-.05,0-.08.06-.12.06-2.27.4-2.72-.38-2.64-2.32.06-1.62,0-3.24,0-4.91l-1.13-.1V116l1.12-.08v-2.25h1.42v2.28h1.33v1.19l-1.32.06v5c0,1,0,1,1,1.11Z"/><path class="cls-1" d="M109,117.17l-1.13-.09V116l1.13-.08v-2.26h1.42v2.27l1.32.06v1.15l-1.32.07v5c0,1,0,1,1,1.1l.31,0c0,.17,0,.33,0,.49s0,.35,0,.57a9.9,9.9,0,0,1-1.17.1,1.41,1.41,0,0,1-1.6-1.59c0-1.68,0-3.37,0-5Z"/><path class="cls-1" d="M383.36,143.57a10.53,10.53,0,0,1-1.59,0c-.75-.11-1.12-.67-1.13-1.62,0-1.66,0-3.33,0-5v-.68l-1.09-.07v-1.13l1.08-.05v-2.31h1.43V135h1.31v1.17h-1.3v4.87c0,1.27,0,1.27,1.29,1.36Z"/><path class="cls-1" d="M331.64,142.42v1.14a11.46,11.46,0,0,1-1.66,0c-.73-.11-1.07-.65-1.08-1.58,0-1.64,0-3.29,0-4.93v-.79l-1.12-.06v-1.12l1.09-.06v-2.3h1.41V135l1.36.06v1.14h-1.33v1.86c0,1.08,0,2.17,0,3.25,0,.93.1,1,1,1.08A2.14,2.14,0,0,1,331.64,142.42Z"/><path class="cls-1" d="M248.73,117l-.14.07c-.38,0-.93,0-1.11.19s-.07.76-.08,1.16v3.67c0,1,0,1.06,1.07,1.18l.27,0c0,.18,0,.36,0,.53s0,.32,0,.44l-.08.07c-2.15.41-2.77-.25-2.69-2.2.06-1.42,0-2.85,0-4.27,0-.6-.1-.93-.78-.81a1.44,1.44,0,0,1-.34,0v-1.16l1.11-.07v-2.26h1.38v2.26l1.35.07Z"/><path class="cls-1" d="M95,112.78h1.5v11.6H95Z"/><path class="cls-1" d="M185.73,124.41h-1.34V112.79h1.34Z"/><path class="cls-1" d="M232.41,124.41H231V116h1.26v1.13l.12.06.34-.42a2.54,2.54,0,0,1,1.82-1c.37,0,.57.06.55.48s0,.64,0,1l-.49,0a2.15,2.15,0,0,0-2.21,2.27C232.4,121.11,232.41,122.73,232.41,124.41Z"/><path class="cls-1" d="M123.06,115.94h1.27l.09,1.27a3.17,3.17,0,0,1,1.94-1.48c.73-.12.78-.09.78.66,0,.24,0,.48,0,.75a4.07,4.07,0,0,1-.42.07,2.15,2.15,0,0,0-2.26,2.28c0,1.5,0,3,0,4.51,0,.12,0,.24,0,.39h-1.36Z"/><path class="cls-1" d="M282.3,134.82v1.44a.82.82,0,0,1-.2.06c-1.79.13-2.45.83-2.45,2.62v4.54h-1.39v-8.4h1.27v1.15C280.28,135.39,281,134.64,282.3,134.82Z"/><path class="cls-1" d="M162.64,143.48h-1.4v-8.41h1.27v1.14c.76-.84,1.5-1.58,2.78-1.38v1.45l-.45.05a2.12,2.12,0,0,0-2.2,2.26v4.89Z"/><path class="cls-1" d="M250.55,115.94h1.36v8.45h-1.36Z"/><path class="cls-1" d="M153.85,124.39h-1.38V116h1.38Z"/><path class="cls-1" d="M385.21,135.05h1.36v8.43h-1.36Z"/><path class="cls-1" d="M368.51,143.48h-1.33v-8.41h1.33Z"/><path class="cls-1" d="M250.53,114.36V112.8h1.38v1.56Z"/><path class="cls-1" d="M152.5,112.78h1.35v1.57H152.5Z"/><path class="cls-1" d="M385.2,133.43v-1.52h1.38v1.52Z"/><path class="cls-1" d="M367.16,133.43v-1.52h1.35v1.52Z"/><path class="cls-1" d="M42.26,116.75h6.86v8h8v6.88h-8v8H42.28v-8h-8v-6.9h8Z"/><path class="cls-1" d="M80.77,137.27a11.6,11.6,0,1,1-.15-18.46c-4.85-1.19-8.83.07-11.44,4.38a8.94,8.94,0,0,0,.43,10.42C72.38,137.49,76.24,138.51,80.77,137.27Z"/></svg>