<svg id="Layer_1" data-name="Layer 1" xmlns="http://www.w3.org/2000/svg" viewBox="0 0 434.04 244.15"><defs><style>.cls-1{fill:#737373;}</style></defs><title>client logos</title><path class="cls-1" d="M60.89,89H92.47c0,.41.09.82.09,1.23v30.29c-.72.24-29.86.34-31.65.12,0-.38-.08-.79-.08-1.2q0-12.3,0-24.61c0-1.61,0-3.21,0-4.81C60.83,89.72,60.87,89.4,60.89,89Z"/><path class="cls-1" d="M96,120.68V89.16c.69-.2,30.35-.25,31.41-.07.24.7.27,30.65,0,31.59Z"/><path class="cls-1" d="M60.92,155.58V125.45c0-1.21,0-1.22,1.19-1.22H91.37c1.09,0,1.1,0,1.1,1.13V151c0,1.33,0,2.67,0,4a4.35,4.35,0,0,1-.06.57l-.1.11-.08.05a2.14,2.14,0,0,1-.35.06H61.7a3.4,3.4,0,0,1-.45,0A2.52,2.52,0,0,1,60.92,155.58Z"/><path class="cls-1" d="M96,155.67V125.39c0-1.2,0-1.21,1.2-1.21h29.36c1,0,1,0,1,1v29.62c0,.27,0,.54-.06.78C126.81,155.83,97.26,155.89,96,155.67Z"/><path class="cls-1" d="M147.83,142.26V102.47c.38,0,.7,0,1,0,2.51,0,5,0,7.54,0,1.41,0,1.17-.18,1.69,1.12q5.37,13.6,10.75,27.2a3.83,3.83,0,0,0,.67,1.17c.14-.31.29-.62.42-.93l8.94-22c.81-2,1.63-4,2.43-6,.16-.4.35-.65.85-.64,2.82,0,5.63,0,8.45,0a2.38,2.38,0,0,1,.37.07c0,.36.08.73.08,1.11q0,7.59,0,15.18v23.39a26.83,26.83,0,0,1-6.75.1c0-.41-.07-.85-.07-1.29q0-14,0-28c0-.41,0-.83,0-1.24l-.21,0c-.14.31-.3.62-.42.94l-11.4,28.7c-.06.17-.15.33-.2.51a.74.74,0,0,1-.82.55q-1.81,0-3.63,0a.81.81,0,0,1-.88-.6c-.32-.85-.68-1.69-1-2.53q-5.35-13.31-10.73-26.62a3.23,3.23,0,0,0-.53-.93,50.91,50.91,0,0,0-.18,6c0,2,0,4.06,0,6.09v18.31A23.43,23.43,0,0,1,147.83,142.26Z"/><path class="cls-1" d="M343.52,119.24H339a21.24,21.24,0,0,1-.09-5.34,8.36,8.36,0,0,1,.92-.1h2.63c.33,0,.65-.05,1.09-.08,0-.49,0-.91,0-1.33a42.33,42.33,0,0,1,.22-4.79,9.34,9.34,0,0,1,7.65-7.87,14.26,14.26,0,0,1,5.33,0c1,.17,1,.27,1,1.24v3.72c0,.3,0,.59-.07,1l-.94-.3a6.44,6.44,0,0,0-3.14-.27,3.53,3.53,0,0,0-2.83,2.28,7.7,7.7,0,0,0-.43,1.84,32.25,32.25,0,0,0-.07,4.39,72.68,72.68,0,0,0,10.13.05c0-.29.06-.61.06-.93v-4.64c0-.79,0-.81.72-1l5.21-1.59c.2,0,.41-.08.74-.14.1,2.8,0,5.54.07,8.38.41,0,.76.09,1.1.09H373c.32,0,.65,0,1,.06v5.32c-.32,0-.64.06-1,.06h-4.72c-.33,0-.65,0-1.05,0,0,.39-.06.72-.06,1q0,6,0,12.09a13.32,13.32,0,0,0,.14,2c.29,2,1.22,3.28,4,3.12a14.54,14.54,0,0,0,2.69-.68,2.46,2.46,0,0,1,.06.4c0,1.39,0,2.79,0,4.18a.87.87,0,0,1-.71,1,13.25,13.25,0,0,1-7.61.29,6.53,6.53,0,0,1-4.55-4.21,12.45,12.45,0,0,1-.72-4.37c0-4.51,0-9,0-13.53v-1.14a71.4,71.4,0,0,0-10.13-.11c0,.38-.08.78-.08,1.19q0,10.26,0,20.53v1.13a29.8,29.8,0,0,1-6.68.11c0-.35-.07-.73-.07-1.11v-22Z"/><path class="cls-1" d="M282.76,123.39c-1.19-5.18-4.32-8.58-9.54-9.84a18.52,18.52,0,0,0-9.35.17,12.72,12.72,0,0,0-9.23,8.81,18.61,18.61,0,0,0-.36,10.3,12.59,12.59,0,0,0,9.75,9.82,17.78,17.78,0,0,0,7.3.25A13.17,13.17,0,0,0,282.27,134a20.09,20.09,0,0,0,1.07-6.17A43,43,0,0,0,282.76,123.39Zm-7,8.93c-1.09,3.85-3.76,5.29-7.29,5.27a9.84,9.84,0,0,1-1.71-.19,6.79,6.79,0,0,1-5.21-4.45,9.83,9.83,0,0,1-.64-2.45,14.69,14.69,0,0,1,.53-6.9c1.2-3.39,4.06-5.26,7.95-4.95,3.37.27,6,2.38,6.7,6.74.14.89.17,1.8.26,2.71A17.18,17.18,0,0,1,275.76,132.32Z"/><path class="cls-1" d="M337.05,121.67a11.94,11.94,0,0,0-8.6-8,19.49,19.49,0,0,0-4.76-.63c-1.09.1-2.18.15-3.25.3a13.18,13.18,0,0,0-11.25,10,20.31,20.31,0,0,0-.33,8.64,12.9,12.9,0,0,0,10,10.74,18.48,18.48,0,0,0,7.22.22c5.24-.85,9-3.67,10.84-8.68A18.29,18.29,0,0,0,337.05,121.67Zm-6.54,10.77c-1.15,3.82-3.83,5.17-7.29,5.15a8.83,8.83,0,0,1-1.62-.18,6.83,6.83,0,0,1-5.19-4.23,12.89,12.89,0,0,1-.79-6.78,13,13,0,0,1,.8-3.24,7,7,0,0,1,7.33-4.53c3.7.17,6.05,2.21,6.92,5.81a11.1,11.1,0,0,1,.29,1.61c.07.69.08,1.39.11,2.08A15,15,0,0,1,330.51,132.44Z"/><path class="cls-1" d="M286.56,135.11c.33.19.52.28.69.4a14.68,14.68,0,0,0,6.27,2.26,7.93,7.93,0,0,0,3.32-.3,2.47,2.47,0,0,0,1.91-2.08,2.63,2.63,0,0,0-1-2.74,18.89,18.89,0,0,0-2.35-1.36c-1-.48-2-.86-3-1.33a21,21,0,0,1-2.24-1.21c-2.87-1.78-3.87-4.47-3.58-7.7s2.25-5.46,5.15-6.83a14,14,0,0,1,7.83-1,28.64,28.64,0,0,1,3.63.78c.86.23.85.28.86,1.13v5.26l-.88-.44a11.81,11.81,0,0,0-6-1.55,6.11,6.11,0,0,0-1.94.36,2.6,2.6,0,0,0-1.88,2.24,2.78,2.78,0,0,0,1.32,2.89c.91.53,1.88,1,2.83,1.43s1.79.75,2.65,1.19a20.89,20.89,0,0,1,2.18,1.3c4.35,2.93,4.05,9.4.69,12.39a11.22,11.22,0,0,1-5.77,2.67,19.36,19.36,0,0,1-9.83-1c-.91-.32-.91-.34-.91-1.3v-4.54C286.5,135.79,286.54,135.52,286.56,135.11Z"/><path class="cls-1" d="M231.44,135.15c0,.43.05.69.06,1,0,1.39-.05,2.78,0,4.17a1.21,1.21,0,0,1-.9,1.37,35.46,35.46,0,0,1-3.72,1.15,17.29,17.29,0,0,1-7.74-.17,13.15,13.15,0,0,1-9.92-11.2,18,18,0,0,1,.83-8.87c1.91-5.31,5.8-8.28,11.28-9.22a18,18,0,0,1,8.44.53c1.71.52,1.71.53,1.71,2.3v3.72c0,.3,0,.59-.05,1.06l-.92-.56a11.07,11.07,0,0,0-4.74-1.71,8.39,8.39,0,0,0-9.43,6.55,12.56,12.56,0,0,0,.09,6.47,7.82,7.82,0,0,0,7.09,5.83,11.27,11.27,0,0,0,6.91-1.78Z"/><path class="cls-1" d="M236.77,113.91a34,34,0,0,1,6.56.08v4.34l.21,0c.17-.33.36-.66.53-1a7.18,7.18,0,0,1,5-4,8.41,8.41,0,0,1,3.6.07.68.68,0,0,1,.61.76c0,1.9,0,3.81,0,5.72a.47.47,0,0,1-.07.2c-1-.26-2-.59-3-.76a5.05,5.05,0,0,0-5,2,9.15,9.15,0,0,0-1.84,5.6c-.06,2.3,0,4.6,0,6.9v7.36c0,.33,0,.65,0,.95a34.75,34.75,0,0,1-6.48.08C236.61,141.69,236.55,115.08,236.77,113.91Z"/><path class="cls-1" d="M204.27,142.36h-6.49c-.21-.79-.23-27.59,0-28.41a35,35,0,0,1,6.49,0,8.52,8.52,0,0,1,.08.92q0,13.26,0,26.51C204.33,141.65,204.29,142,204.27,142.36Z"/><path class="cls-1" d="M197,105.48a4,4,0,0,1,4.06-4,4,4,0,0,1,4.07,3.89,3.9,3.9,0,0,1-4.05,3.88A3.85,3.85,0,0,1,197,105.48Z"/></svg>