<svg id="Layer_1" data-name="Layer 1" xmlns="http://www.w3.org/2000/svg" viewBox="0 0 434.04 244.15"><defs><style>.cls-1{fill:#737373;}</style></defs><title>client logos</title><path class="cls-1" d="M159.42,77.06a60.27,60.27,0,0,1,3.87-17.13,76.53,76.53,0,0,1,8-16A7.71,7.71,0,0,1,174,41.44a227.45,227.45,0,0,1,31.41-14,154.23,154.23,0,0,1,17.73-5.16,15.69,15.69,0,0,1,8.11.29A74.7,74.7,0,0,1,245.08,28a30.87,30.87,0,0,1,8.15,6.14A5.63,5.63,0,0,1,254.57,40c-1.76,6.65-3.36,13.35-5,20-1.38,5.54-2.8,11.07-4.13,16.62a5.08,5.08,0,0,1-3.48,3.89c-6.43,2.46-12.86,5-19.18,7.68-5.65,2.44-11.17,5.19-16.72,7.85-2.17,1-4.25,2.27-6.43,3.27a5,5,0,0,1-4.68-.11c-4.84-2.83-9.6-5.77-14.44-8.58a117.7,117.7,0,0,0-17.2-8.73c-.57-.22-1.15-.44-1.74-.63-1.65-.52-2-1-2.13-2.74C159.4,78.07,159.42,77.56,159.42,77.06Z"/><path class="cls-1" d="M345.53,88.58a9.32,9.32,0,0,1,.92,1.71c.95,3.34,2.05,6.65,2.67,10,.8,4.34,1.28,8.73,1.74,13.12,1.05,10.16.73,20.34.29,30.52-.11,2.62-.4,5.24-.65,7.85a10.57,10.57,0,0,1-.4,1.54l-.42.11a5,5,0,0,1-.85-1.19c-1.77-5.19-3.44-10.41-5.24-15.58a66.78,66.78,0,0,0-5.93-12.95,1.82,1.82,0,0,1-.11-2,55.53,55.53,0,0,0,5-16.47c.61-3.91,1.25-7.83,1.84-11.75.13-.88.07-1.79.14-2.68A2.72,2.72,0,0,1,345.53,88.58Z"/><path class="cls-1" d="M291.2,171.53c-6.69.45-12.57-5.92-13.53-12.07a15.46,15.46,0,0,1,3.62-13.12,13.23,13.23,0,0,1,11.2-4.62c9.53.44,14.77,10.23,13,17.81a18.23,18.23,0,0,1-1.83,5C301,169.09,297,171.58,291.2,171.53Zm-10.41-13.84c-.12,1.85.94,4.48,2.86,6.7a10.25,10.25,0,0,0,13.34,2.2c5.15-3.12,7.28-11.07,3.21-16.85a10.38,10.38,0,0,0-14.53-2.67C282.39,149.38,280.88,152.57,280.79,157.69Z"/><path class="cls-1" d="M131.73,141.66c8.56,0,13.54,7.29,14,13.22a16,16,0,0,1-3.31,11.62,13.89,13.89,0,0,1-20.76.84,15.68,15.68,0,0,1,1.23-22.52A13.3,13.3,0,0,1,131.73,141.66Zm10.83,14.21a27.43,27.43,0,0,0-1.09-3.9c-2.51-6.07-9.46-8.84-15.32-5.2-6.78,4.21-7.11,14.42-.72,19.23a9.55,9.55,0,0,0,6.73,2.18C138.82,167.49,142.22,162.44,142.56,155.87Z"/><path class="cls-1" d="M327.66,164v-1.78q0-8.47,0-17a6.08,6.08,0,0,1,.15-1.66,1.7,1.7,0,0,1,1.82-1.19,1.54,1.54,0,0,1,1.36,1.48,10.16,10.16,0,0,1,.05,1.35v23.52c0,.34,0,.68,0,1,0,.78-.3,1.6-1.1,1.67a3,3,0,0,1-1.95-.64,8.8,8.8,0,0,1-1.42-1.86l-13.74-19.1c-.09-.12-.21-.23-.5-.53,0,.7-.09,1.22-.09,1.74q0,8.84,0,17.65c0,.51,0,1,0,1.51a1.32,1.32,0,0,1-1.44,1.32,1.45,1.45,0,0,1-1.61-1.17,5.08,5.08,0,0,1-.07-1.17c0-8.24,0-16.47,0-24.71,0-1.72.59-2.27,1.83-2.12a2.42,2.42,0,0,1,1.42,1c1.81,2.42,3.56,4.89,5.33,7.34l9.25,12.81c.15.21.33.4.49.6Z"/><path class="cls-1" d="M181,149.83v1.8c0,5.66,0,11.32,0,17a6.89,6.89,0,0,1-.09,1.51,1.65,1.65,0,0,1-1.79,1.43c-.8,0-1.31-.57-1.46-1.56a6.77,6.77,0,0,1,0-1q0-12.27,0-24.53c0-1.72.82-2.51,2.2-2A2.91,2.91,0,0,1,181,143.5q6,8.3,12,16.61a32.85,32.85,0,0,0,3.41,4.2v-1.6c0-6,0-12,0-18,0-1.61.47-2.31,1.5-2.34s1.65.72,1.65,2.39q0,12.18,0,24.36v.68c0,.65-.14,1.36-.82,1.49a3,3,0,0,1-1.88-.27,5.06,5.06,0,0,1-1.3-1.51q-7-9.67-13.93-19.36c-.1-.13-.22-.24-.33-.37Z"/><path class="cls-1" d="M203.51,156.91V145.33a10.77,10.77,0,0,1,.06-1.51c.19-1.24.63-1.71,1.87-1.71a59.37,59.37,0,0,1,7.19.23c5.92.74,9.87,4.24,11.72,9.73a14.6,14.6,0,0,1-10.86,19.23,24.09,24.09,0,0,1-4.51.25c-1.12,0-2.24,0-3.36-.05-1.53-.05-2-.47-2.09-2,0-.5,0-1,0-1.51ZM207,145.66v22.47a15.23,15.23,0,0,0,6.4-.4,10.89,10.89,0,0,0,8.29-9.35,10.66,10.66,0,0,0-4.1-10.25C214.52,145.57,210.94,145.21,207,145.66Z"/><path class="cls-1" d="M248,169.5a1.91,1.91,0,0,1-1.29,2,1.44,1.44,0,0,1-1.75-1c-.67-1.6-1.34-3.2-1.88-4.85a1.74,1.74,0,0,0-2-1.37c-3,.06-5.94.05-8.91,0-1,0-1.68.23-2,1.32-.37,1.29-.91,2.53-1.39,3.78a9,9,0,0,1-.66,1.36,1.34,1.34,0,0,1-1.57.69,1.4,1.4,0,0,1-1.23-1.4,9.24,9.24,0,0,1,.52-2.6c2.32-6.24,4.68-12.47,7-18.71.6-1.57,1.16-3.15,1.77-4.72a3.89,3.89,0,0,1,.72-1.31,1.79,1.79,0,0,1,2.86.72c1,2.39,1.88,4.8,2.79,7.21q3.15,8.42,6.28,16.84C247.59,168.26,247.82,169,248,169.5Zm-6.73-8.56-4.45-11.85-.34,0L232,160.82c.81.05,1.3.11,1.79.11Z"/><path class="cls-1" d="M148.23,152.61c0-2.69,0-5.38,0-8.07,0-1.7.56-2.43,1.67-2.44s1.69.82,1.7,2.43c0,4.82,0,9.64,0,14.46a8.86,8.86,0,0,0,8.17,9.24c3.33.41,7.58-2.47,8.67-6a11,11,0,0,0,.46-3.13c.05-4.65,0-9.3,0-13.95a9.55,9.55,0,0,1,.07-1.51,1.69,1.69,0,0,1,1.67-1.57c.89,0,1.45.57,1.6,1.62a8.44,8.44,0,0,1,0,1c0,4.93,0,9.86,0,14.79a11.89,11.89,0,0,1-8.74,11.62c-8.42,2.17-14.82-3.8-15.21-10.47-.16-2.68,0-5.37,0-8.06Z"/><path class="cls-1" d="M101.62,158.75c0,.75-.08,1.35-.08,1.95,0,2.69,0,5.38,0,8.07a5.79,5.79,0,0,1-.28,1.8,1.39,1.39,0,0,1-1.57,1,1.49,1.49,0,0,1-1.49-1.14,7.1,7.1,0,0,1-.19-1.66q0-12,0-24c0-2.09.53-2.62,2.56-2.63,4.25,0,8.51,0,12.77,0a5.54,5.54,0,0,1,1,0,1.53,1.53,0,0,1,1.45,1.73,1.58,1.58,0,0,1-1.55,1.65,12,12,0,0,1-1.34,0H101.67c-.25,3.24-.12,6.28-.08,9.52.63,0,1.16.12,1.7.12h8.06a11.94,11.94,0,0,1,1.34,0,1.7,1.7,0,0,1,1.52,1.57,1.65,1.65,0,0,1-1.27,1.75,5.78,5.78,0,0,1-1.5.12c-2.63,0-5.26,0-7.89,0C103,158.66,102.35,158.71,101.62,158.75Z"/><path class="cls-1" d="M253.25,145.52H247.5a19.22,19.22,0,0,1-2,0,1.67,1.67,0,0,1-1.58-1.65,1.72,1.72,0,0,1,1.37-1.68,6,6,0,0,1,1.34-.08c5.6,0,11.19,0,16.79,0a6.78,6.78,0,0,1,1,0,1.71,1.71,0,0,1,1.62,1.62,1.8,1.8,0,0,1-1.69,1.76c-1.79.07-3.58,0-5.37,0-.72,0-1.43.06-2.35.1V168.4a9.39,9.39,0,0,1-.13,1.84,1.37,1.37,0,0,1-1.49,1.28,1.64,1.64,0,0,1-1.68-1.35,6.89,6.89,0,0,1-.08-1.51V145.52Z"/><path class="cls-1" d="M203.35,194.72c1.38-1.5,1.35-3.06,1.47-4.52.14-1.66.07-3.33.05-5,0-1.39.49-2.17,1.6-2.37a1.93,1.93,0,0,1,2.45,1.68,17.33,17.33,0,0,1,.52,6.65,33.28,33.28,0,0,1-.73,3.94c-.62,2.51-2.73,3.05-4.85,3.49a4.19,4.19,0,0,1-4.47-2,11.78,11.78,0,0,1-2.31-5.51c-.2-1.72-.45-3.43-.53-5.16a1.72,1.72,0,0,1,2.35-1.74,1.74,1.74,0,0,1,.82,1.06c.71,2.29,1.29,4.61,2.06,6.88A14.34,14.34,0,0,0,203.35,194.72Z"/><path class="cls-1" d="M99.65,199.26c-.2-1.6-.32-2.92-.53-4.24-.4-2.53-.86-5.06-1.29-7.58-.09-.55-.19-1.1-.23-1.66a1.45,1.45,0,0,1,.93-1.61,55.57,55.57,0,0,1,5.54-1.88,2.91,2.91,0,0,1,3.23,1.26,3,3,0,0,1-.11,3.61c-.71.93-1.44,1.84-2.17,2.75-.34.42-.69.83-1.24,1.49,1.21.44,2.18.76,3.13,1.13a1.85,1.85,0,0,1,1.33,2.48,1.59,1.59,0,0,1-.35.74A11.26,11.26,0,0,1,99.65,199.26Zm2-5.29a17.23,17.23,0,0,0,0,2.42c.13.78.63,1,1.35.64a10.83,10.83,0,0,0,1.91-1.32c.27-.22.6-.73.5-.93a1.46,1.46,0,0,0-1-.77A23.38,23.38,0,0,0,101.63,194Zm-.16-4.37.42.07c.63-1,1.29-2.06,1.85-3.14a1.55,1.55,0,0,0-.08-1,5.49,5.49,0,0,0-1.9.08,1.21,1.21,0,0,0-.74.92A29.3,29.3,0,0,0,101.47,189.6Z"/><path class="cls-1" d="M269.46,156.74c0-4,0-8,0-11.92a5.09,5.09,0,0,1,.21-1.65,1.61,1.61,0,0,1,3,.08,4.12,4.12,0,0,1,.18,1.15q0,12.43,0,24.86a3.84,3.84,0,0,1-.24,1.3,1.35,1.35,0,0,1-1.44.93,1.42,1.42,0,0,1-1.56-1,6.56,6.56,0,0,1-.19-1.66C269.46,164.8,269.47,160.77,269.46,156.74Z"/><path class="cls-1" d="M273.83,191.22c1.14,0,2-.05,2.9,0a4.9,4.9,0,0,1,1.91.44,1.51,1.51,0,0,1,.58,1.22c0,.24-.62.65-1,.66-1.22.06-2.45,0-3.68-.06h-1c0,.58,0,1.06,0,1.54,0,.66.16,1.33.13,2a2.54,2.54,0,0,1-3.5,2.37c-.59-.19-.86-.54-.7-1.12.92-3.41.52-6.89.64-10.35a16.64,16.64,0,0,1,.26-2.32,4.05,4.05,0,0,1,4.75-3.43,29.11,29.11,0,0,1,4.55,1.64,1.46,1.46,0,0,1,.77.62,1.69,1.69,0,0,1,.13,1.22c-.09.25-.63.46-1,.45-.66,0-1.31-.24-2-.29-2.18-.19-3.1.47-3.54,2.6C274,189.33,273.94,190.25,273.83,191.22Z"/><path class="cls-1" d="M125.07,130.6l1.62-3.66c.27-.62.48-1.26.79-1.85.62-1.16,1.5-1.19,2.09,0,.72,1.45,1.31,3,2,4.45.13.3.28.59.52,1.09,1.09-2.55,2.08-4.91,3.09-7.27a7.76,7.76,0,0,1,.64-1.37c.31-.48.81-1,1.37-.52.29.22.28.85.38,1.3,0,.09-.07.21-.11.31-1.43,3.41-2.84,6.82-4.32,10.2a1.83,1.83,0,0,1-1.19,1c-.27,0-.78-.54-1-1-.78-1.67-1.48-3.37-2.37-5.46-.43.93-.73,1.55-1,2.18-.52,1.18-.95,2.4-1.54,3.54s-1.5,1.06-2,0c-1.52-3.49-3-7-4.43-10.52-.25-.6-.33-1.3.39-1.61s1.26.33,1.52.94c.92,2.11,1.77,4.24,2.66,6.35C124.41,129.19,124.67,129.72,125.07,130.6Z"/><path class="cls-1" d="M165.87,196a7.14,7.14,0,0,0-1.08.32,3.74,3.74,0,0,1-4.2-.77,2.75,2.75,0,0,1-.6-3.89,6.88,6.88,0,0,1,4.94-3.38c2.16-.31,3.18.53,3.2,2.69,0,1.85.09,3.7,0,5.53a12.46,12.46,0,0,1-.82,3.73,3.2,3.2,0,0,1-1.82,1.79,17.94,17.94,0,0,1-4.46.1c-.28,0-.74-.62-.73-.94s.52-.68.88-.79c.8-.24,1.66-.26,2.45-.5A3.19,3.19,0,0,0,165.87,196ZM164,194.43a2.28,2.28,0,0,0,2.14-2,1.45,1.45,0,0,0-1.55-1.59c-1.27,0-2.44.86-2.47,1.82A1.78,1.78,0,0,0,164,194.43Z"/><path class="cls-1" d="M263.09,127.63c0-1.46,0-2.92,0-4.37,0-1.73.66-2.29,2.38-2.3,3.75,0,6.25,1.65,7.33,5a6.63,6.63,0,0,1-5.83,8.43c-.62,0-1.23,0-1.85,0-1.55,0-2-.42-2-2s0-3.14,0-4.71Zm2.16,4.56c2.24.24,3.95-.29,5.11-2.08a4.64,4.64,0,0,0-.31-5.2,4.59,4.59,0,0,0-4.8-1.56Z"/><path class="cls-1" d="M226,126.08V132a2.19,2.19,0,0,1-1.13,2.29,1.41,1.41,0,0,1-1-1.56c0-3.25,0-6.49,0-9.74a2.86,2.86,0,0,1,.1-.83.91.91,0,0,1,1.54-.55,5.13,5.13,0,0,1,1,1.14c1.52,2.08,3,4.18,4.53,6.26.19.27.42.51.88,1,0-.82.1-1.34.1-1.85,0-1.63,0-3.25,0-4.88a3.81,3.81,0,0,1,.18-1.31,1,1,0,0,1,.72-.57,1,1,0,0,1,.73.55,2.68,2.68,0,0,1,.22,1.13q0,4.71,0,9.41a1.47,1.47,0,0,1-.05.67c-.21.37-.44.88-.77,1a1.29,1.29,0,0,1-1.1-.47c-1.1-1.41-2.12-2.88-3.17-4.34L226.3,126Z"/><path class="cls-1" d="M256.62,189.85c.22-1.35.4-2.73.68-4.08a8.24,8.24,0,0,1,.74-2c.12-.25.58-.54.79-.48a1.52,1.52,0,0,1,.77.75,2.31,2.31,0,0,1,.11,1v10.43a4.76,4.76,0,0,1-.06,1c-.14.65-.58,1.1-1.18.62s-1.31-.33-2-.15a7.51,7.51,0,0,1-2.47.3,2.89,2.89,0,0,1-2.51-3.65C252,191.19,253.71,189.93,256.62,189.85Zm-.37,2.2c-1.59,1.23-1.67,1.72-.61,2.86A3.11,3.11,0,0,0,256.25,192.05Z"/><path class="cls-1" d="M105.82,129.8c0-2.05,0-4.11,0-6.16a5,5,0,0,1,.13-1.5c.1-.31.47-.72.75-.74s.64.38.8.68a2.73,2.73,0,0,1,.17,1.15q0,4.53,0,9.08a1.19,1.19,0,0,1,0,.5c-.24.47-.52.92-.78,1.38-.45-.25-1-.41-1.32-.79-1.91-2.55-3.75-5.16-5.77-8a11.81,11.81,0,0,0-.17,1.21c0,1.9,0,3.81,0,5.71,0,.75,0,1.48-.89,1.88-.78-.21-.93-.85-.93-1.54,0-3.3,0-6.61,0-9.92a1.81,1.81,0,0,1,.66-1.38c.65-.34,1.11.28,1.48.79q2.55,3.54,5.11,7.09c.15.21.32.41.48.62Z"/><path class="cls-1" d="M167,134.33a6.24,6.24,0,0,1-4.06-1.25,1.81,1.81,0,0,1-.72-.87c-.33-.79.18-1.36,1-1.13a6.44,6.44,0,0,1,1.36.63,4.67,4.67,0,0,0,4,.31c.73-.29,1.29-.71,1.31-1.56a1.49,1.49,0,0,0-1.17-1.46c-.73-.26-1.5-.43-2.25-.65a12.7,12.7,0,0,1-2.06-.66,3.41,3.41,0,0,1-2.27-3.06,3.65,3.65,0,0,1,2.15-3.18,6.12,6.12,0,0,1,6.34.74c.46.42.77,1,.33,1.45-.24.27-.9.26-1.34.18a6.67,6.67,0,0,1-1.21-.58,3.75,3.75,0,0,0-3.39.16c-1.15.68-1.16,1.72,0,2.3a25.74,25.74,0,0,0,2.86.92,10.22,10.22,0,0,1,2.45,1,3.26,3.26,0,0,1,.44,5.32A4.6,4.6,0,0,1,167,134.33Z"/><path class="cls-1" d="M323.61,192.23c-.64,1.47-.47,2.18.72,2.68a7,7,0,0,0,1.95.37c.61.08,1.28,0,1.52.94-.28.18-.57.51-.89.55-1.56.15-3.12.27-4.69.3a1.76,1.76,0,0,1-1.67-1.44c-1-3.25-.35-6.16,3-7.78a8,8,0,0,1,5.28-.15,2.88,2.88,0,0,1,1.42,1.11,2,2,0,0,1-1,3.37,20.42,20.42,0,0,1-4.3.32A6.3,6.3,0,0,1,323.61,192.23Zm.58-2.36c1.79,1.13,2.63,1.1,3.38,0A3.82,3.82,0,0,0,324.19,189.87Z"/><path class="cls-1" d="M187.12,193.34c-.14,1-.22,2.31-.51,3.55s-.79,1.41-2,.85a3.7,3.7,0,0,0-1.42-.19,28.6,28.6,0,0,1-3.82-.07c-1.47-.23-2-1.48-1-2.58a9.15,9.15,0,0,1,2.9-1.87,9.41,9.41,0,0,1,2.29-.48,1,1,0,0,0,.89-1.32c-.32-1.64-1-2.28-2.48-1.91s-2.44-.1-2.58-1.07.58-1.48,2-1.84c2.83-.7,4.78.51,5.26,3.33C186.88,190.83,187,192,187.12,193.34Zm-3.06.62c-1.16.36-2.41.33-3,1.59,1,1.1,2.18,1.3,3.1.57S184.73,194.79,184.06,194Z"/><path class="cls-1" d="M293.78,191.72c0-.83.07-1.54.12-2.24.08-1.34.66-2,1.77-2s1.66.71,1.64,2.07c0,.66-.1,1.32-.17,2.16.63.08,1.22.12,1.79.24s1.43.14,1.56,1-.66,1.06-1.26,1.33a2.1,2.1,0,0,1-.63.2A1.72,1.72,0,0,0,297,196.3a17.53,17.53,0,0,1-.68,2.93c-.31,1.06-1,1.72-1.7,1.54-.93-.24-1.07-1.08-1.15-1.86a23.87,23.87,0,0,1-.06-2.68,1.09,1.09,0,0,0-1.05-1.24,5.88,5.88,0,0,1-1.43-.42,1.36,1.36,0,0,1-.87-1.63,1.27,1.27,0,0,1,1.3-1.07C292.11,191.8,292.87,191.77,293.78,191.72Z"/><path class="cls-1" d="M112,128.74v3.55h3.1c.5,0,1,0,1.51,0,.68.06,1.24.36,1.18,1.13s-.62.88-1.23.88h-5.22a1.33,1.33,0,0,1-1.4-1.18,5.37,5.37,0,0,1-.14-1.33c0-2.8,0-5.6,0-8.41,0-2,.5-2.44,2.51-2.46h3.2a2.6,2.6,0,0,1,1.16.08c.43.24,1,.64,1.07,1.06.12.67-.53.89-1.13.91-1,0-1.91,0-2.86,0-.55,0-1.09,0-1.74.09v3.37c.5.05,1,.12,1.46.14s1.23,0,1.85,0c1.18,0,1.79.4,1.79,1.08s-.61,1-1.84,1C114.17,128.76,113.12,128.74,112,128.74Z"/><path class="cls-1" d="M138.83,197.45l-1.34-1.26-2.25.74a3,3,0,0,1-3.59-1.07,3.55,3.55,0,0,1,.24-3.8c1.05-1.53,2.39-2.5,4.38-1.93,1-2.23.1-4.93,2-6.77,1,.19,1,.84,1,1.45,0,3.7,0,7.39,0,11.09A8,8,0,0,1,138.83,197.45ZM136.07,192a1.69,1.69,0,0,0-1.54,1.71c0,.58,0,1.23.82,1.43A3.75,3.75,0,0,0,136.07,192Z"/><path class="cls-1" d="M196.68,128.84v3.3c.59.06,1.07.14,1.55.15.84,0,1.68,0,2.52,0,1.21,0,1.83.4,1.74,1.09-.12,1-.94,1-1.67,1H197c-2.14,0-2.46-.3-2.48-2.39,0-2.79,0-5.59,0-8.38,0-.23,0-.45,0-.67.15-1.33.71-1.89,2.06-1.93s2.8,0,4.19,0c.28,0,.64,0,.82.11a7.14,7.14,0,0,1,.92,1c-.36.29-.68.78-1.07.84a24.6,24.6,0,0,1-2.85.06c-.59,0-1.19,0-1.9.09v3.38c.63,0,1.16.11,1.7.13s1.34,0,2,0,1.4.27,1.4,1.1-.66,1-1.32,1-1.23,0-1.84,0Z"/><path class="cls-1" d="M255,128.76v3.5c1.33,0,2.59,0,3.86,0,.82,0,1.79-.15,2,1,.15.71-.56,1.05-2.08,1.06-1.24,0-2.47,0-3.7,0-1.77,0-2.13-.36-2.16-2.19,0-2.29,0-4.58,0-6.88,0-.84,0-1.68,0-2.52.09-1.24.55-1.73,1.77-1.77,1.57-.06,3.14,0,4.7,0a2.07,2.07,0,0,1,.5.06c.58.18,1.12.55.93,1.17a1.5,1.5,0,0,1-1.08.77A27.05,27.05,0,0,1,257,123c-.6,0-1.2,0-1.9.08v3.4c.62,0,1.15.1,1.69.13s1,0,1.52,0c1.27,0,2,.42,2,1.09s-.69,1-2,1C257.2,128.77,256.19,128.76,255,128.76Z"/><path class="cls-1" d="M161,133.24l-.73,1c-.38-.28-1-.52-1.08-.86-.35-2.14-1.84-2.2-3.49-2.05a3,3,0,0,1-.67,0,1.59,1.59,0,0,0-2,1.29,3.23,3.23,0,0,1-.61,1.16c-.19.23-.64.48-.82.4a1.38,1.38,0,0,1-.67-.84,2,2,0,0,1,.13-1.13c1.21-3.3,2.42-6.6,3.7-9.87a1.84,1.84,0,0,1,1.15-1c.29-.06.9.47,1.05.86,1.33,3.37,2.58,6.77,3.85,10.17C160.94,132.59,161,132.81,161,133.24Zm-6.59-4.17h3.06l-1.36-3.6-.35,0Z"/><path class="cls-1" d="M232.34,191.91c0-.84.07-1.39.09-1.93.06-1.51.71-2.37,1.79-2.37s1.58.82,1.51,2.51c0,.55-.06,1.1-.1,1.84l1.44.23a7.21,7.21,0,0,1,1.47.28.67.67,0,0,1,.1,1.28,5.67,5.67,0,0,1-1.71.63,1.68,1.68,0,0,0-1.45,1.58c-.17,1-.44,2.08-.71,3.1a2.72,2.72,0,0,1-.5,1,1,1,0,0,1-1.93-.38,9.34,9.34,0,0,1-.23-2c0-.55,0-1.11,0-1.67a1,1,0,0,0-1-1.13,5.52,5.52,0,0,1-1.14-.25c-.71-.26-1.35-.65-1.22-1.56s.76-1.18,1.56-1.21C230.91,191.89,231.51,191.91,232.34,191.91Z"/><path class="cls-1" d="M220,121.26a1.7,1.7,0,0,1,1,1.71c0,2,.1,4,0,6a5.51,5.51,0,0,1-6.25,5.32,5.22,5.22,0,0,1-4.57-4.64c-.09-2.3,0-4.59,0-6.89a1.86,1.86,0,0,1,.12-.82c.15-.26.47-.65.67-.63a1.26,1.26,0,0,1,.86.6,4.22,4.22,0,0,1,.2,1.47c0,1.74,0,3.47,0,5.21a3.35,3.35,0,0,0,2.11,3.32,3.42,3.42,0,0,0,4.8-3c.07-1.9,0-3.81,0-5.71C218.94,122.39,219,121.63,220,121.26Z"/><path class="cls-1" d="M138.06,128a6.77,6.77,0,0,1,9.67-6.49,2.56,2.56,0,0,1,1.08.75,4,4,0,0,1,.36,1.32,5.64,5.64,0,0,1-1.37.31c-.3,0-.6-.28-.9-.42a4.84,4.84,0,0,0-5.91,1.34,4.51,4.51,0,0,0-.07,5.6,5.07,5.07,0,0,0,6.08,1.36,3.78,3.78,0,0,0,.43-.26c.64-.43,1.32-.53,1.73.21s-.12,1.26-.73,1.63a6.63,6.63,0,0,1-6.88.21A6,6,0,0,1,138.06,128Z"/><path class="cls-1" d="M244,192c-.81,1.87-.38,2.88,1.29,3.32.59.15,1.22.16,1.82.29a6,6,0,0,1,1,.39v.37a7.22,7.22,0,0,1-1.66.51,22.61,22.61,0,0,1-3.68,0,2.17,2.17,0,0,1-1.46-.9c-2.06-3.35.62-8.28,4.56-8.45a9.14,9.14,0,0,1,2.34,0,5.21,5.21,0,0,1,2.2,1,2.11,2.11,0,0,1-.71,3.53,7.23,7.23,0,0,1-4.12.24C245,192.27,244.57,192.12,244,192Zm.57-1.87c1.9,1.17,3,1,3.57-.28C246.6,188.93,245.7,189,244.56,190.09Z"/><path class="cls-1" d="M214.43,190.78c.65-.24,1.21-.48,1.79-.66a3.17,3.17,0,0,1,4.36,2.2,13.36,13.36,0,0,1,.32,3.47c0,.34-.44.69-.67,1-.36-.3-.85-.53-1-.91-.29-.65-.29-1.43-.59-2.08a2,2,0,0,0-1.1-1c-.29-.06-.86.47-1.07.87-.36.67-.5,1.47-.83,2.18a4.25,4.25,0,0,1-1,1.48,1.33,1.33,0,0,1-2.13-.44A6.41,6.41,0,0,1,212,195c-.23-1.21-.38-2.42-.59-3.63-.14-.78-.42-1.58.52-2.06s1.55,0,2.19,1.11A4.53,4.53,0,0,0,214.43,190.78Z"/><path class="cls-1" d="M147.89,189.83c1.54-1.1,1.92-1,3.18.95.71-.23,1.44-.49,2.19-.68a2.93,2.93,0,0,1,3.57,1.48c.86,1.66.65,3.41.35,5.19-1,0-1.17-.62-1.36-1.19a10.24,10.24,0,0,0-.53-1.76c-.24-.44-.72-1-1.12-1s-1,.5-1.22.93a12.4,12.4,0,0,0-.6,1.9,4.71,4.71,0,0,1-.73,1.47,1.42,1.42,0,0,1-2.4-.22,4.1,4.1,0,0,1-.55-1.56C148.38,193.55,148.16,191.78,147.89,189.83Z"/><path class="cls-1" d="M128.92,187.79a28.17,28.17,0,0,0-.36,3.47c0,2,.24,3.89.38,5.83,0,.33.2.7.1,1a1.71,1.71,0,0,1-.74,1,1.29,1.29,0,0,1-1.16-.33,3.29,3.29,0,0,1-.61-1.65c-.19-2.9-.28-5.8-.44-8.69a15.89,15.89,0,0,0-.3-1.81c-.1-.6-.23-1.21-.27-1.81s0-1.47,1-1.58c1.29-.12,2,.16,2.17,1.25A28,28,0,0,1,128.92,187.79Z"/><path class="cls-1" d="M247,123v3.61c0,1.9,0,3.8,0,5.7,0,1.09,0,1.09-1.08,1.92-1-.34-1-1.18-1-2,0-2.52,0-5,0-7.54,0-.45,0-.89-.08-1.55-.73,0-1.43-.08-2.13-.09s-1.47-.07-1.52-.93.66-1.11,1.38-1.11c2.23,0,4.47,0,6.7,0,.17,0,.39,0,.49.09.33.32.62.69.92,1-.35.3-.66.79-1,.86A15.77,15.77,0,0,1,247,123Z"/><path class="cls-1" d="M306.34,196a7.56,7.56,0,0,0,1.75-3.71c.08-.32.06-.72.24-1a1.43,1.43,0,0,1,.94-.55,1.24,1.24,0,0,1,.81.71c.76,2-.65,5.69-2.47,6.68a3.29,3.29,0,0,1-3.71-.56c-1.75-1.81-1.91-4.08-1.75-6.42a1,1,0,0,1,1.15-.94c.67,0,1.26.22,1.41.93a3.92,3.92,0,0,1,0,1.32A3.11,3.11,0,0,0,306.34,196Z"/><path class="cls-1" d="M284.64,196.14a10.45,10.45,0,0,0,1-1.48,23,23,0,0,0,.92-2.69c.16-.6.44-1.2,1.07-1a1.65,1.65,0,0,1,.94,1.17,6.75,6.75,0,0,1-2,5.64c-1.15,1.14-3.69.79-4.64-.51a9.57,9.57,0,0,1-1.6-5.39c0-1.15.47-1.54,1.55-1.44s1.42.6,1.25,1.72C282.77,194.21,283,194.88,284.64,196.14Z"/><path class="cls-1" d="M178.69,123v2.75c0,2.18,0,4.36,0,6.55,0,.73,0,1.47-.87,1.89-.94-.26-1-1-1-1.84v-9.21l-1.91-.14a4.74,4.74,0,0,1-1.32-.13.82.82,0,0,1-.19-1.55,2.83,2.83,0,0,1,1.41-.37c2,0,3.91,0,5.87,0a4.13,4.13,0,0,1,.5,0c.73.07,1.4.37,1.37,1.17s-.74.88-1.39.88Z"/><path class="cls-1" d="M186.79,132.3c1.44,0,2.6,0,3.77,0a3.38,3.38,0,0,1,1.32.08c.39.19.88.63.9,1s-.57.88-.91.9c-1.9.09-3.8.1-5.7,0-.95,0-1.42-.74-1.44-1.93,0-2.18,0-4.37,0-6.55,0-.84,0-1.68,0-2.52a1.78,1.78,0,0,1,.13-1,7.46,7.46,0,0,1,1.13-1c.27.39.7.76.76,1.17a22.56,22.56,0,0,1,0,2.85Z"/><path class="cls-1" d="M314.51,191.52c1.32-.94,2.59-1.94,4.43-.77a6.67,6.67,0,0,1-.89.85,6.2,6.2,0,0,0-3.31,5.12,11.88,11.88,0,0,1-.44,2.29,1.26,1.26,0,0,1-1.58.91c-.71-.12-.83-.72-.82-1.29.05-2.4.1-4.81.24-7.21a1.47,1.47,0,0,1,.79-1.09c.33-.09.82.33,1.21.58C314.29,191,314.36,191.25,314.51,191.52Z"/><path class="cls-1" d="M109.72,192.21c0-1.41.58-1.94,1.58-1.57.83.31.82,1,.6,1.67a3.6,3.6,0,0,0,1,3.53c.43.53,1,.58,1.37-.07a23.48,23.48,0,0,0,1.42-3.36c.2-.63.35-1.32,1.1-1.12a1.55,1.55,0,0,1,.79,1.25,7.19,7.19,0,0,1-1.89,4.88,3,3,0,0,1-4.64-.41C109.91,195.54,109.93,193.79,109.72,192.21Z"/><path class="cls-1" d="M237.59,121.25a1.51,1.51,0,0,1,1,1.63c0,3.25,0,6.5,0,9.75a5.85,5.85,0,0,1-.58,1.69,1.7,1.7,0,0,1-1.45-1.8q0-4.78,0-9.58A1.66,1.66,0,0,1,237.59,121.25Z"/><path class="cls-1" d="M226.36,195.44a7.26,7.26,0,0,1,0,2,1.88,1.88,0,0,1-1.06,1.1,1.64,1.64,0,0,1-1.29-.45c-1-1-1.32-4.69-.57-5.89a1,1,0,0,1,1.26-.46,2.41,2.41,0,0,1,1.71,2.22c0,.5,0,1,0,1.5Z"/><path class="cls-1" d="M120.4,191.71c2,.35,2.56.87,2.65,2.55,0,.89,0,1.79,0,2.68a1.57,1.57,0,0,1-1.41,1.63c-.93.14-1.28-.57-1.49-1.29A6.79,6.79,0,0,1,120.4,191.71Z"/><path class="cls-1" d="M145.34,196.25a7.12,7.12,0,0,1-.73,1.84,1.08,1.08,0,0,1-1.93-.11,6.22,6.22,0,0,1-.47-5.63c.34-.76.91-.89,1.47-.41a4.53,4.53,0,0,1,1.28,1.65A12.78,12.78,0,0,1,145.34,196.25Z"/><path class="cls-1" d="M224.56,188.14a1.43,1.43,0,0,1-1.51-1.42,1.28,1.28,0,0,1,1.45-1.06c1.15,0,1.89.54,1.81,1.27A1.61,1.61,0,0,1,224.56,188.14Z"/><path class="cls-1" d="M121.14,185.81c1.18,0,1.77.38,1.74,1a1.57,1.57,0,0,1-1.51,1.3,1.46,1.46,0,0,1-1.6-1.36C119.8,185.76,120.56,185.84,121.14,185.81Z"/><path class="cls-1" d="M143.18,185.81c1.19,0,1.76.36,1.76,1a1.44,1.44,0,0,1-1.49,1.25c-.77,0-1.76-.77-1.65-1.34C142,185.93,142.65,185.85,143.18,185.81Z"/><path class="cls-1" d="M340.09,81a9.15,9.15,0,0,0-.67-3.24A99.17,99.17,0,0,0,325,54a69.65,69.65,0,0,0-15.89-14.36c-2.69-1.72-5.43-3.34-8.73-3.68-2.5-.26-5-.76-7.47-.93a88,88,0,0,0-10.39-.28c-4.52.24-9,.85-13.51,1.4-1.93.24-3.84.73-5.75,1.12a3.16,3.16,0,0,0-2.61,2.54c-.54,2.28-1.06,4.57-1.58,6.86-2.16,9.37-4.26,18.75-6.5,28.1a9.11,9.11,0,0,0,1.84,8.44c5.48,6.88,10.75,13.92,16.22,20.8,4.32,5.44,8.81,10.74,13.21,16.11a5.21,5.21,0,0,0,4.42,1.93c6.67-.06,13.33,0,20,0v-.19c6.72,0,13.44,0,20.17,0a3.7,3.7,0,0,0,3.95-2.59,99.7,99.7,0,0,0,5.4-17.44A88.82,88.82,0,0,0,340.09,81Z"/></svg>