<svg id="Layer_1" data-name="Layer 1" xmlns="http://www.w3.org/2000/svg" viewBox="0 0 434.04 244.15"><defs><style>.cls-1{fill:#737373;}</style></defs><title>client logos</title><g id="ipm5mS.tif"><path class="cls-1" d="M150.18,146.33H138.57V97.39h20.26c2,12.21,4,24.31,5.94,36.41l.81.15c.76-4.36,1.56-8.72,2.27-13.09,1.13-7,2.13-14,3.39-20.88.19-1,1.53-2.62,2.39-2.65,5.76-.24,11.53-.13,18.16-.13v49.11H180.51v-42.8l-1.07-.09c-2.69,14.29-5.37,28.57-8.07,42.94H159.11q-4-21.36-8.05-42.84l-.88.06Z"/><path class="cls-1" d="M330.88,135.29V97.22c3.18,0,6.45-.11,9.7.09a2.61,2.61,0,0,1,1.78,1.87c.1,15.39.08,30.79.08,46.65-5.51,0-10.61.15-15.69-.14-1-.06-2.27-1.76-2.64-2.94-3.58-11.37-7-22.8-10.47-34.2a2.18,2.18,0,0,0-1-1.34v38.33H301.32c-.11-1.12-.31-2.11-.31-3.1,0-13.89.06-27.77-.07-41.65,0-3,1-3.8,3.82-3.66a99.1,99.1,0,0,0,11.17,0c2.62-.16,3.56,1,4.21,3.3,3,10.61,6.16,21.17,9.27,31.75.32,1.08.72,2.13,1.08,3.2Z"/><path class="cls-1" d="M264.37,97.21c.08,1.78.19,3.16.19,4.53,0,10.53,0,21.06,0,31.59,0,4.18,1.49,5.9,4.85,6,3.53.06,5.07-1.72,5.08-6.09,0-10.78.09-21.57,0-32.35,0-2.86.86-3.74,3.73-3.74,8.72,0,8.72-.12,8.72,8.71,0,9,0,18,0,27s-3.53,13.45-12.37,14.67A38.69,38.69,0,0,1,262,147c-6.14-1.22-9.46-5.48-9.62-12.25-.27-11.55-.14-23.11,0-34.66,0-1,1.3-2.63,2.13-2.72C257.65,97,260.85,97.21,264.37,97.21Z"/><path class="cls-1" d="M378.57,112.34c-.12-3.53.16-7-4.25-7.78-3.64-.64-6.24,1.14-6.31,4.82-.16,8.22-.08,16.45-.05,24.68,0,3.45,2.33,4.83,5.31,4.8s5.21-1.43,5.26-4.88c0-2.55,0-5.11,0-7.89l-4.72-.63c-.09-1.89-.17-3.86-.27-6.12H390c0,6.23.39,12.59-.15,18.88-.32,3.79-3.49,6.2-7,7.51a26.32,26.32,0,0,1-18.82.06c-4.9-1.84-7.78-5.43-7.88-10.78-.15-8.35-.36-16.71-.08-25s4.11-12.47,12.27-13.7a33.57,33.57,0,0,1,10.35,0c9,1.51,12.55,6.61,11.63,16Z"/><path class="cls-1" d="M77.46,111H66.1c-.18-1.14,0-2.35-.55-3.07-1.09-1.5-2.36-3.5-3.9-3.86s-4.31.8-4.73,2a7.93,7.93,0,0,0,.86,5.94c.87,1.5,3,2.31,4.61,3.31,3.72,2.28,7.69,4.2,11.18,6.78,5.39,4,6.79,9.82,4.68,17-1.79,6.06-6.51,8.31-12.17,9a41.93,41.93,0,0,1-8.82.06c-10.11-.88-14.62-6.69-13.32-17.18H56.28c.06,1.34-.25,2.76.25,3.79.85,1.78,1.91,4.23,3.43,4.73s4.77-.26,5.62-1.56a7,7,0,0,0,.08-6.26c-1.35-2.12-4-3.52-6.19-5-3.42-2.25-7.13-4.09-10.45-6.48-4.8-3.43-6.13-8.34-5-14s4.84-8.93,10.21-9.64a45.22,45.22,0,0,1,14.08.09C75.66,97.92,78.55,102.93,77.46,111Z"/><path class="cls-1" d="M107.11,103c-2.19,14.33-4.38,28.67-6.6,43.23h-13c1.69-9.24,3.33-18.31,5-27.37,1.15-6.18,2.48-12.32,3.45-18.53.38-2.39,1.26-3.29,3.69-3.22,5.26.13,10.54-.09,15.8.14,1.14,0,3.06,1.19,3.23,2.1,3,15.46,5.82,31,8.72,46.82h-12.9q-3.19-21.52-6.41-43.12Z"/><path class="cls-1" d="M227.42,111.05c-.07-1.24.2-2.45-.27-3.2-.86-1.41-2-3.41-3.3-3.58a6.51,6.51,0,0,0-5.2,1.84c-.84,1.09-.72,4,.18,5.14,1.51,1.93,3.92,3.2,6.06,4.57,3.45,2.21,7.41,3.82,10.37,6.53a15.35,15.35,0,0,1,4.73,8.31c1.62,11.15-4,17.28-15.4,17.38a37.32,37.32,0,0,1-8.39-.72c-8.37-1.86-12.07-7.63-10.66-16.48h12.27c.1,1.37.21,2.62.26,3.87.1,2.46,1.1,4.53,3.66,4.62,1.84.06,4.68-.41,5.35-1.6a7.67,7.67,0,0,0,.07-6.31c-.94-1.86-3.28-3.12-5.19-4.35-3.23-2.08-6.64-3.88-9.91-5.91-5.61-3.48-7.39-8.7-6.18-15s5.66-9.1,11.41-9.78a41.23,41.23,0,0,1,12.2.3c7.56,1.42,10.48,6.18,9.35,14.32Z"/></g></svg>