<?xml version="1.0" standalone="no"?>
<!DOCTYPE svg PUBLIC "-//W3C//DTD SVG 20010904//EN"
 "http://www.w3.org/TR/2001/REC-SVG-20010904/DTD/svg10.dtd">
<svg version="1.0" xmlns="http://www.w3.org/2000/svg"
 width="1125.000000pt" height="1125.000000pt" viewBox="0 0 1125.000000 1125.000000"
 preserveAspectRatio="xMidYMid meet">
<metadata>
Created by potrace 1.11, written by Peter Selinger 2001-2013
</metadata>
<g transform="translate(0.000000,1125.000000) scale(0.100000,-0.100000)"
fill="#000000" stroke="none">
<path d="M2810 8430 c0 -5 -11 -12 -24 -16 -24 -6 -80 -57 -100 -92 -6 -11
-22 -42 -36 -69 -13 -26 -34 -64 -46 -83 -11 -19 -37 -64 -56 -100 -19 -36
-45 -81 -56 -100 -12 -19 -33 -57 -47 -85 -14 -27 -35 -66 -47 -85 -11 -19
-36 -64 -56 -100 -19 -36 -38 -69 -42 -75 -4 -5 -25 -41 -45 -80 -21 -38 -45
-81 -52 -95 -121 -212 -153 -277 -153 -314 0 -69 -33 -66 715 -66 662 0 672 0
693 -20 33 -31 32 -51 -5 -125 -14 -27 -30 -59 -36 -70 -7 -11 -34 -60 -62
-110 -27 -49 -54 -98 -60 -107 -5 -9 -22 -39 -37 -66 -14 -26 -36 -66 -49 -88
-12 -21 -32 -57 -43 -79 -25 -46 -145 -260 -163 -290 -6 -11 -24 -42 -38 -70
-14 -27 -34 -64 -45 -81 -10 -17 -34 -60 -53 -95 -19 -35 -60 -108 -91 -163
-31 -54 -56 -100 -56 -102 0 -3 -10 -21 -23 -42 -13 -20 -40 -68 -61 -105 -20
-37 -45 -82 -55 -100 -10 -18 -37 -68 -61 -112 -23 -44 -46 -84 -50 -90 -7
-10 -37 -63 -90 -160 -15 -27 -51 -93 -80 -145 -29 -52 -67 -120 -83 -150 -16
-30 -33 -59 -38 -65 -4 -5 -23 -41 -43 -79 -39 -75 -44 -110 -20 -144 l15 -22
820 0 820 0 47 48 c26 26 61 74 78 107 34 66 120 220 152 275 12 19 33 58 47
85 14 28 35 66 47 85 11 19 33 58 48 85 46 84 126 228 148 265 12 19 33 58 47
85 14 28 35 66 47 85 11 19 37 64 56 100 90 166 115 211 153 275 16 28 37 64
45 80 8 17 23 44 33 60 9 17 33 59 53 95 20 36 47 85 60 110 14 25 40 72 58
105 18 33 36 65 40 70 7 9 27 46 108 195 19 36 46 82 59 102 12 21 23 40 23
43 0 2 19 37 43 77 23 40 51 90 62 111 30 58 81 114 112 123 16 4 240 10 500
13 l471 6 38 31 c43 34 46 39 141 214 17 30 40 71 51 90 12 19 28 49 36 65 8
17 29 55 47 85 17 30 47 84 67 120 19 36 38 70 42 75 4 6 23 39 42 75 42 77
75 137 136 245 44 77 64 112 118 213 30 56 27 93 -12 128 l-25 24 -2090 0
c-1359 0 -2089 -3 -2089 -10z"/>
<path d="M7360 8430 c0 -5 -15 -16 -33 -23 -29 -13 -73 -59 -90 -97 -4 -8 -15
-28 -25 -45 -19 -31 -57 -98 -120 -215 -19 -36 -45 -81 -57 -100 -12 -19 -39
-66 -59 -105 -37 -69 -56 -104 -110 -200 -16 -27 -43 -77 -61 -110 -18 -33
-57 -103 -87 -156 -30 -52 -58 -102 -62 -110 -4 -8 -22 -41 -41 -74 -61 -107
-95 -183 -95 -213 0 -32 5 -44 355 -747 134 -269 390 -786 569 -1147 251 -505
333 -662 355 -678 29 -20 40 -20 844 -20 l816 0 20 26 c12 15 21 40 21 55 0
25 -43 122 -112 254 -12 22 -25 47 -29 55 -5 8 -153 308 -330 665 -177 358
-490 990 -696 1405 -206 415 -392 789 -412 830 -21 41 -58 116 -83 165 -25 50
-94 188 -153 308 -77 155 -117 225 -139 242 -17 14 -36 30 -43 35 -16 13 -143
13 -143 0z"/>
<path d="M6349 6681 c-32 -17 -71 -79 -184 -286 -55 -102 -87 -160 -95 -170
-7 -10 -40 -69 -108 -195 -19 -36 -38 -69 -42 -75 -4 -5 -23 -39 -42 -75 -20
-36 -47 -85 -61 -110 -13 -25 -58 -106 -100 -180 -41 -74 -84 -153 -97 -174
-12 -22 -33 -60 -47 -85 -13 -25 -32 -59 -42 -76 -10 -16 -35 -61 -56 -100
-21 -38 -49 -87 -62 -107 -12 -21 -23 -40 -23 -44 0 -4 -15 -32 -34 -63 -18
-31 -48 -83 -65 -116 -18 -33 -40 -73 -50 -90 -37 -64 -96 -172 -120 -220
l-24 -50 20 -35 21 -35 891 -3 891 -2 38 24 c54 35 51 31 162 231 153 275 150
269 150 328 0 62 58 -60 -595 1249 -119 241 -225 444 -234 451 -27 23 -58 26
-92 8z"/>
<path d="M1789 3992 l-305 -2 -34 -69 c-46 -96 -42 -101 75 -101 74 0 97 -3
101 -14 3 -8 -10 -48 -29 -88 -112 -236 -157 -334 -157 -343 0 -3 -11 -23 -25
-45 -41 -65 -37 -70 56 -70 71 0 84 3 100 22 11 11 19 25 19 29 0 5 21 53 46
106 25 54 66 141 91 193 24 52 57 120 72 150 l27 55 105 5 c57 3 111 10 120
15 16 10 69 112 69 132 0 6 -6 14 -12 19 -7 5 -151 8 -319 6z"/>
<path d="M2260 3991 l-65 -6 -25 -50 c-14 -27 -36 -75 -49 -105 -13 -30 -38
-86 -56 -125 -65 -141 -95 -206 -95 -210 0 -2 -20 -46 -45 -99 -64 -137 -64
-136 39 -136 l84 0 32 68 c17 37 38 81 45 97 13 30 44 98 84 188 l21 47 66 0
c75 0 87 -13 62 -64 -9 -17 -25 -51 -36 -76 -11 -25 -36 -79 -56 -121 -20 -42
-39 -90 -42 -107 l-6 -32 84 0 85 0 33 68 c18 37 41 85 51 107 9 22 36 79 58
127 84 181 43 258 -137 258 -78 0 -84 10 -48 85 14 31 26 60 26 65 0 9 -35 32
-42 28 -2 -1 -32 -4 -68 -7z"/>
<path d="M3690 3990 c-78 -5 -100 -13 -100 -33 0 -7 -20 -55 -45 -107 -64
-132 -70 -147 -101 -215 -34 -78 -89 -197 -120 -260 -13 -28 -28 -65 -33 -83
l-10 -32 89 0 88 0 43 99 c56 128 66 121 94 -61 l6 -38 79 0 80 0 0 51 c0 28
-5 59 -10 69 -6 11 -13 52 -16 93 -7 81 -11 73 83 157 150 134 181 165 176
176 -7 18 -149 19 -180 1 -12 -7 -43 -33 -70 -58 -59 -56 -87 -69 -77 -36 6
21 84 192 105 229 11 21 12 46 2 50 -5 2 -42 1 -83 -2z"/>
<path d="M5771 3990 c-51 -3 -77 -10 -82 -20 -8 -13 -29 -58 -109 -235 -46
-101 -70 -156 -104 -228 -49 -106 -50 -164 -2 -212 32 -34 35 -35 110 -35 87
0 91 3 125 72 32 67 26 92 -22 96 -46 4 -56 23 -35 66 8 17 25 54 38 81 29 64
44 75 99 75 44 1 81 17 81 36 0 5 12 31 25 59 28 56 23 65 -37 65 -35 0 -38 2
-38 29 0 15 11 49 25 75 42 80 38 84 -74 76z"/>
<path d="M7873 3986 c-79 -17 -126 -69 -189 -211 -7 -16 -28 -64 -47 -105 -19
-41 -47 -104 -62 -140 -15 -36 -31 -69 -36 -74 -5 -6 -9 -35 -9 -66 0 -56 9
-71 64 -117 19 -16 506 -19 506 -3 0 5 14 38 30 72 17 34 30 67 30 73 0 13
-154 25 -322 25 -116 0 -116 0 -64 112 18 40 44 96 56 123 22 51 42 96 99 217
17 37 31 72 31 77 0 21 -36 27 -87 17z"/>
<path d="M2773 3978 c-19 -26 -52 -102 -47 -110 6 -9 144 -11 168 -2 19 7 59
93 52 111 -7 18 -160 18 -173 1z"/>
<path d="M4432 3982 c-55 -16 -97 -78 -182 -267 -18 -38 -42 -92 -55 -120 -13
-27 -38 -81 -55 -120 -105 -226 -105 -215 -1 -215 l79 0 49 98 49 97 125 3
125 3 32 62 c52 105 55 102 -73 105 -60 1 -113 6 -117 10 -10 10 55 161 73
173 8 5 74 9 147 9 150 0 148 1 111 -79 -11 -25 -26 -59 -34 -76 -7 -16 -26
-59 -43 -95 -38 -83 -85 -185 -106 -232 -9 -20 -16 -45 -16 -57 0 -20 5 -21
80 -21 l80 0 39 83 c41 87 75 160 111 242 12 28 37 82 55 120 18 39 43 95 56
125 12 30 32 73 44 96 12 22 20 45 17 52 -3 9 -75 12 -285 11 -155 -1 -292 -4
-305 -7z"/>
<path d="M6040 3953 c-38 -66 -41 -74 -35 -83 7 -12 155 -13 170 -2 17 12 54
94 48 108 -4 10 -27 14 -83 14 l-78 0 -22 -37z"/>
<path d="M9046 3974 c-9 -8 -16 -20 -16 -25 0 -5 -21 -53 -46 -106 -25 -54
-56 -120 -69 -148 -12 -27 -41 -88 -63 -135 -27 -58 -36 -87 -28 -92 6 -4 46
-8 89 -8 l77 0 35 76 c19 41 35 79 35 84 0 5 10 16 22 24 32 23 106 20 146 -4
29 -18 33 -25 27 -48 -12 -49 -55 -112 -96 -139 -38 -25 -48 -26 -204 -32 -90
-3 -165 -8 -167 -11 -14 -16 -47 -91 -53 -118 l-7 -32 181 0 c100 0 189 4 199
9 9 5 38 17 63 25 143 51 263 216 262 361 -1 106 -47 148 -173 155 -101 6
-104 11 -65 99 15 33 24 64 20 70 -10 18 -151 14 -169 -5z"/>
<path d="M2649 3713 c-28 -60 -61 -130 -74 -158 -13 -27 -44 -94 -69 -149 -25
-54 -46 -109 -46 -122 0 -23 2 -24 83 -24 l83 0 21 43 c12 23 33 68 47 100 60
132 118 260 151 331 36 78 29 86 -66 86 l-79 0 -51 -107z"/>
<path d="M5973 3808 c-10 -12 -20 -34 -93 -193 -80 -173 -94 -204 -121 -260
-45 -95 -44 -96 57 -93 l87 3 28 55 c32 62 119 249 119 255 0 2 20 47 45 99
25 53 45 107 45 121 0 25 -1 25 -79 25 -51 0 -82 -4 -88 -12z"/>
<path d="M2916 3768 c-24 -56 -71 -158 -106 -233 -70 -149 -110 -244 -110
-261 0 -11 18 -14 84 -14 l84 0 41 85 c22 46 41 87 41 90 0 2 20 47 45 98 25
52 45 99 45 105 0 16 38 24 96 20 42 -3 49 -6 52 -25 2 -13 -10 -51 -26 -85
-93 -195 -122 -260 -122 -273 0 -12 16 -15 81 -15 72 0 83 3 100 23 10 12 18
25 19 29 0 6 41 97 120 263 36 77 44 115 31 160 -20 72 -29 75 -256 75 l-201
0 -18 -42z"/>
<path d="M5126 3789 c-110 -44 -204 -139 -245 -245 -43 -113 -20 -231 49 -257
17 -6 30 -15 30 -19 0 -4 81 -8 179 -8 l179 0 32 64 c51 101 52 101 -129 104
-93 1 -160 7 -168 13 -30 25 -8 102 44 154 57 57 89 65 247 65 117 0 148 3
160 15 22 22 58 106 52 122 -4 10 -48 13 -193 12 -164 0 -194 -3 -237 -20z"/>
<path d="M6184 3753 c-15 -32 -40 -87 -56 -123 -32 -70 -62 -135 -104 -227
-14 -32 -32 -71 -40 -87 -27 -57 -30 -56 171 -56 106 0 185 4 185 9 0 5 14 13
32 16 41 9 112 82 166 170 24 39 65 104 92 145 97 148 121 190 115 200 -3 5
-44 10 -90 10 l-84 0 -33 -44 c-18 -25 -60 -86 -92 -138 -33 -51 -77 -117 -98
-145 -35 -48 -42 -53 -78 -53 -21 0 -41 3 -43 8 -3 4 8 34 23 67 16 33 49 105
75 160 25 55 50 107 55 117 13 23 -6 28 -96 28 l-74 0 -26 -57z"/>
<path d="M6940 3803 c-8 -3 -42 -18 -75 -33 -176 -81 -288 -331 -200 -445 14
-19 37 -38 50 -41 14 -3 25 -10 25 -15 0 -5 85 -9 189 -9 l189 0 32 64 c51
103 53 101 -142 104 -157 2 -168 4 -179 23 -29 55 27 153 108 189 57 25 173
29 173 5 0 -17 -22 -23 -107 -28 -70 -4 -96 -20 -119 -77 -11 -26 -12 -41 -5
-57 10 -22 14 -23 171 -23 l161 0 30 68 c17 37 42 90 55 119 31 66 31 103 -1
137 l-24 26 -158 -1 c-87 0 -165 -3 -173 -6z"/>
<path d="M8465 3789 c-153 -62 -268 -218 -269 -364 0 -61 27 -113 70 -135 16
-8 31 -18 32 -22 2 -5 84 -8 181 -8 l178 0 27 58 c15 31 34 71 41 87 8 17 33
71 55 120 23 50 50 108 60 130 10 22 28 61 40 87 12 26 19 52 15 58 -4 6 -75
10 -193 9 -163 0 -193 -3 -237 -20z m185 -139 c0 -6 -4 -18 -9 -28 -5 -9 -23
-48 -40 -87 -17 -38 -35 -77 -40 -85 -6 -11 -29 -16 -83 -18 -64 -2 -77 0 -92
17 -18 19 -18 22 -1 63 39 99 104 146 208 147 32 1 57 -3 57 -9z"/>
<path d="M9640 3794 c-82 -36 -140 -121 -140 -207 0 -43 5 -58 23 -75 30 -28
80 -44 134 -43 23 1 54 -4 70 -10 27 -10 27 -11 9 -25 -15 -11 -55 -14 -166
-14 -166 0 -161 2 -199 -84 -35 -81 -46 -76 184 -76 118 0 205 4 205 9 0 5 13
12 28 16 34 7 91 57 119 105 26 43 39 135 24 173 -14 37 -64 57 -144 57 -45 0
-68 5 -77 15 -21 25 29 35 175 35 133 0 135 0 151 25 9 14 19 45 22 70 l5 45
-194 0 c-150 -1 -202 -4 -229 -16z"/>
</g>
</svg>
